<svg width="433" height="433" viewBox="0 0 433 433" fill="none" xmlns="http://www.w3.org/2000/svg">
<path d="M186.252 339.243H31.4678L51.5356 289.911L62.1389 284.098L78.8259 245.521L92.319 237.594L105.145 214.387H117.812L145.957 261.903L160.277 269.301L186.252 339.243Z" fill="#EBEBEB"/>
<path d="M31.4678 339.243H98.232V300.744L115.363 273.793L107.201 245.521L117.812 214.387H105.145L92.319 237.594L78.8258 245.521L62.1389 284.098L51.5356 289.911L31.4678 339.243Z" fill="#DBDBDB"/>
<path d="M117.812 339.242L124.28 318.976L134.745 308.671L139.413 296.517L142.671 299.159V310.785L134.745 320.033V339.319L117.812 339.242Z" fill="#DBDBDB"/>
<path d="M130.242 276.815L131.98 268.684L136.645 264.017L138.83 266.791L135.915 270.415L137.227 278.153L130.242 276.815Z" fill="#DBDBDB"/>
<path d="M175.116 339.206H401.532L358.808 249.985L338.258 241.174L316.447 198.551L302.061 183.079L289.382 154.857L274.536 157.263L249.155 216.393L234.983 226.966L211.965 287.871L189.288 309.899L175.116 339.206Z" fill="#EBEBEB"/>
<path d="M289.382 154.857L291.122 199.322L274.408 222.671L282.248 240.542L266.727 279.941L280.254 312.542L272.242 339.206H175.116L189.288 309.899L211.965 287.871L234.983 226.966L249.155 216.393L274.536 157.263L289.382 154.857Z" fill="#DBDBDB"/>
<path d="M285.207 268.488L296.864 248.222L295.95 239.632L300.293 233.464L305.55 250.976L289.779 268.488H285.207Z" fill="#DBDBDB"/>
<path d="M276.063 119.525L276.89 121.201L278.738 121.47L277.401 122.775L277.717 124.617L276.063 123.747L274.408 124.617L274.724 122.775L273.386 121.47L275.235 121.201L276.063 119.525Z" fill="#DBDBDB"/>
<path d="M120.608 203.341L121.435 205.018L123.284 205.286L121.946 206.59L122.263 208.433L120.608 207.563L118.954 208.433L119.27 206.59L117.932 205.286L119.781 205.018L120.608 203.341Z" fill="#DBDBDB"/>
<path d="M336.591 58.0878L337.418 59.7635L339.268 60.0328L337.93 61.337L338.246 63.179L336.591 62.3095L334.937 63.179L335.253 61.337L333.914 60.0328L335.764 59.7635L336.591 58.0878Z" fill="#DBDBDB"/>
<path d="M150.841 60.6339L151.668 62.3096L153.518 62.5781L152.18 63.8831L152.496 65.7251L150.841 64.8557L149.187 65.7251L149.503 63.8831L148.164 62.5781L150.014 62.3096L150.841 60.6339Z" fill="#DBDBDB"/>
<path d="M386.37 198.25L387.197 199.926L389.047 200.195L387.708 201.499L388.024 203.341L386.37 202.472L384.715 203.341L385.031 201.499L383.693 200.195L385.543 199.926L386.37 198.25Z" fill="#DBDBDB"/>
<path d="M204.12 116.643L204.947 118.32L206.797 118.588L205.459 119.893L205.775 121.735L204.12 120.865L202.466 121.735L202.782 119.893L201.443 118.588L203.293 118.32L204.12 116.643Z" fill="#DBDBDB"/>
<path d="M39.3467 82.1279L40.1738 83.8036L42.0227 84.0721L40.6847 85.3772L41.0008 87.2191L39.3467 86.3488L37.6918 87.2191L38.0079 85.3772L36.6699 84.0721L38.5188 83.8036L39.3467 82.1279Z" fill="#DBDBDB"/>
<path d="M75.0362 182.197L75.8632 183.873L77.713 184.142L76.3742 185.446L76.6902 187.288L75.0362 186.419L73.3821 187.288L73.6973 185.446L72.3594 184.142L74.2092 183.873L75.0362 182.197Z" fill="#DBDBDB"/>
<path d="M39.3463 210.726L39.8573 211.761L41.0004 211.927L40.1734 212.734L40.3682 213.872L39.3463 213.334L38.3236 213.872L38.5184 212.734L37.6914 211.927L38.8345 211.761L39.3463 210.726Z" fill="#DBDBDB"/>
<path d="M155.642 105.584L156.153 106.62L157.296 106.786L156.469 107.593L156.665 108.731L155.642 108.194L154.62 108.731L154.815 107.593L153.988 106.786L155.131 106.62L155.642 105.584Z" fill="#DBDBDB"/>
<path d="M241.564 197.649L242.076 198.685L243.218 198.851L242.391 199.657L242.587 200.796L241.564 200.258L240.542 200.796L240.737 199.657L239.91 198.851L241.053 198.685L241.564 197.649Z" fill="#DBDBDB"/>
<path d="M48.3269 91.1074L48.8387 92.1432L49.981 92.3094L49.1539 93.1157L49.3497 94.2545L48.3269 93.7167L47.3042 94.2545L47.4999 93.1157L46.6729 92.3094L47.816 92.1432L48.3269 91.1074Z" fill="#DBDBDB"/>
<path d="M339.267 183.169L339.778 184.205L340.921 184.371L340.094 185.178L340.29 186.316L339.267 185.779L338.245 186.316L338.44 185.178L337.613 184.371L338.756 184.205L339.267 183.169Z" fill="#DBDBDB"/>
<path d="M81.9431 231.891L82.4549 232.927L83.598 233.093L82.7702 233.899L82.9659 235.038L81.9431 234.5L80.9212 235.038L81.1161 233.899L80.2891 233.093L81.4322 232.927L81.9431 231.891Z" fill="#DBDBDB"/>
<path d="M62.0935 176.611L62.6045 177.647L63.7476 177.813L62.9205 178.619L63.1163 179.757L62.0935 179.22L61.0708 179.757L61.2665 178.619L60.4395 177.813L61.5826 177.647L62.0935 176.611Z" fill="#DBDBDB"/>
<path d="M229.901 97.561L230.413 98.5968L231.556 98.7622L230.728 99.5684L230.924 100.707L229.901 100.169L228.879 100.707L229.074 99.5684L228.247 98.7622L229.39 98.5968L229.901 97.561Z" fill="#DBDBDB"/>
<path d="M343.317 231.891L343.828 232.927L344.971 233.093L344.144 233.899L344.339 235.038L343.317 234.5L342.294 235.038L342.49 233.899L341.663 233.093L342.806 232.927L343.317 231.891Z" fill="#DBDBDB"/>
<path d="M394.677 133.038L395.187 134.073L396.331 134.24L395.504 135.046L395.699 136.185L394.677 135.647L393.655 136.185L393.849 135.046L393.022 134.24L394.166 134.073L394.677 133.038Z" fill="#DBDBDB"/>
<path d="M349.531 131.464L350.042 132.5L351.185 132.666L350.358 133.472L350.554 134.611L349.531 134.073L348.508 134.611L348.704 133.472L347.877 132.666L349.02 132.5L349.531 131.464Z" fill="#DBDBDB"/>
<path d="M316.391 86.0769C312.465 92.9365 305.071 97.561 296.599 97.561C283.994 97.561 273.787 87.3456 273.787 74.741C273.787 63.8788 281.371 54.7936 291.543 52.4987C284.209 55.8717 279.128 63.283 279.128 71.8763C279.128 83.6617 288.688 93.2128 300.472 93.2128C306.805 93.2119 312.491 90.4598 316.391 86.0769Z" fill="#DBDBDB"/>
<path d="M31.3057 339.236C149.953 338.706 283.048 338.701 401.695 339.236C283.048 339.77 149.953 339.766 31.3057 339.236Z" fill="#263238"/>
<path d="M406.476 346.994H26.5252C24.3827 346.994 22.6455 345.257 22.6455 343.114C22.6455 340.972 24.3827 339.235 26.5252 339.235H406.476C408.618 339.235 410.355 340.972 410.355 343.114C410.355 345.258 408.618 346.994 406.476 346.994Z" fill="#455A64"/>
<path d="M329.216 362.427H89.7029C87.5604 362.427 85.8232 360.69 85.8232 358.547C85.8232 356.405 87.5604 354.668 89.7029 354.668H329.216C331.359 354.668 333.096 356.405 333.096 358.547C333.096 360.69 331.359 362.427 329.216 362.427Z" fill="#455A64"/>
<path d="M307.701 377.778H133.208C131.065 377.778 129.328 376.041 129.328 373.899C129.328 371.756 131.065 370.019 133.208 370.019H307.701C309.843 370.019 311.58 371.756 311.58 373.899C311.58 376.041 309.843 377.778 307.701 377.778Z" fill="#455A64"/>
<path d="M73.528 362.427H55.2996C53.1571 362.427 51.4199 360.69 51.4199 358.547C51.4199 356.405 53.1571 354.668 55.2996 354.668H73.528C75.6705 354.668 77.4077 356.405 77.4077 358.547C77.4069 360.69 75.6705 362.427 73.528 362.427Z" fill="#455A64"/>
<path d="M337.85 377.778H328.736C326.594 377.778 324.856 376.041 324.856 373.899C324.856 371.756 326.594 370.019 328.736 370.019H337.85C339.992 370.019 341.73 371.756 341.73 373.899C341.73 376.041 339.992 377.778 337.85 377.778Z" fill="#455A64"/>
<path d="M202.196 354.751H101.835C102.909 354.751 103.879 354.318 104.58 353.616C105.282 352.915 105.715 351.945 105.715 350.871C105.715 348.732 103.983 346.991 101.835 346.991H202.196C201.122 346.991 200.152 347.424 199.45 348.126C198.749 348.836 198.316 349.806 198.316 350.871C198.316 353.019 200.048 354.751 202.196 354.751Z" fill="#455A64"/>
<path d="M306.42 354.751H240.591C241.665 354.751 242.635 354.318 243.336 353.616C244.038 352.915 244.471 351.945 244.471 350.871C244.471 348.732 242.739 346.991 240.591 346.991H306.42C305.346 346.991 304.376 347.424 303.675 348.126C302.973 348.836 302.54 349.806 302.54 350.871C302.54 353.019 304.272 354.751 306.42 354.751Z" fill="#455A64"/>
<path d="M256.635 370.103H155.643C156.716 370.103 157.686 369.67 158.388 368.969C159.089 368.267 159.522 367.297 159.522 366.223C159.522 364.084 157.79 362.344 155.643 362.344H256.635C255.561 362.344 254.591 362.777 253.889 363.478C253.188 364.188 252.755 365.158 252.755 366.223C252.755 368.371 254.487 370.103 256.635 370.103Z" fill="#455A64"/>
<path d="M57.2705 339.167H298.893L254.783 230.434L233.568 219.696L211.05 167.752L196.196 148.896L183.106 114.502L167.779 117.435L141.575 189.496L126.943 202.382L95.3139 276.606L71.9016 303.451L57.2705 339.167Z" fill="#455A64"/>
<path d="M183.106 114.502L184.902 168.692L167.647 197.147L175.741 218.926L159.717 266.942L173.683 306.672L165.411 339.167H57.2705L71.9016 303.451L95.3139 276.606L126.943 202.382L141.575 189.496L167.779 117.435L183.106 114.502Z" fill="#37474F"/>
<path d="M178.796 252.983L190.832 228.286L189.888 217.817L194.371 210.3L199.799 231.642L183.516 252.983H178.796Z" fill="#37474F"/>
<path d="M375.73 339.184H196.826L220.453 281.138L237.151 267.737L254.381 217.754L268.311 207.483L281.553 177.416H294.63L323.688 238.979L338.472 248.565L375.73 339.184Z" fill="#37474F"/>
<path d="M196.826 339.184H274.415V289.304L292.103 254.385L283.676 217.754L294.63 177.416H281.553L268.311 207.483L254.381 217.754L237.151 267.737L220.453 281.138L196.826 339.184Z" fill="#263238"/>
<path d="M294.631 339.184L301.309 312.926L312.112 299.575L316.933 283.827L320.296 287.25V302.313L312.112 314.295V339.283L294.631 339.184Z" fill="#263238"/>
<path d="M307.464 258.3L309.258 247.766L314.073 241.719L316.331 245.313L313.321 250.009L314.675 260.034L307.464 258.3Z" fill="#263238"/>
<path d="M68.1415 338.969C67.1482 339.962 55.5767 340.404 51.3689 340.404C47.1601 340.404 35.5895 339.962 34.5962 338.969C33.6029 337.975 47.6173 261.062 51.3689 261.062C55.1204 261.063 69.1348 337.976 68.1415 338.969Z" fill="#263238"/>
<path d="M68.3745 319.37C65.5158 320.461 54.9246 324.773 52.6375 326.031C52.6358 325.548 52.6323 325.067 52.6315 324.584C55.1862 323.081 57.7504 321.593 60.312 320.103C63.0616 318.503 66.0146 317.075 68.5788 315.19C68.7035 315.098 68.6343 314.841 68.4619 314.913C65.6353 316.09 63.0105 317.835 60.3744 319.382C57.7712 320.908 55.1965 322.481 52.6297 324.067C52.6185 320.381 52.6072 316.694 52.583 313.009C56.7112 311.352 60.8567 309.143 64.6533 306.874C64.7849 306.795 64.6974 306.553 64.5441 306.616C60.5172 308.279 56.3301 310.239 52.5795 312.513C52.5656 310.597 52.5587 308.68 52.5379 306.764C52.4323 296.895 52.4132 287.015 52.1612 277.145C54.6726 275.878 57.2594 274.761 59.769 273.487C59.9336 273.403 59.8175 273.115 59.6417 273.185C57.0948 274.178 54.6414 275.358 52.1422 276.457C52.0062 271.364 51.8122 266.274 51.5022 261.19C51.4918 261.023 51.2467 261.02 51.2398 261.19C50.8873 270.643 50.9168 280.107 51.0354 289.569C48.4339 287.492 45.6602 285.655 43.0128 283.641C42.9106 283.563 42.811 283.736 42.9123 283.814C45.6801 285.92 48.2694 288.254 51.0458 290.354C51.0527 290.888 51.0588 291.423 51.0666 291.957C48.246 290.668 45.3839 289.468 42.533 288.247C42.3096 288.151 42.1104 288.471 42.3382 288.581C45.2427 289.974 48.136 291.392 51.077 292.707C51.1437 297.394 51.2233 302.081 51.284 306.765C51.3905 314.948 51.5706 323.13 51.7447 331.312C46.4205 328.618 41.0513 325.993 35.6535 323.453C35.4474 323.356 35.269 323.647 35.4725 323.763C40.7387 326.777 46.1962 329.514 51.7577 331.942C51.9023 338.74 52.0434 332.552 52.13 339.351C52.1352 339.763 52.7761 339.765 52.7717 339.351C52.6773 330.679 52.6626 334.995 52.6392 326.323C55.4477 325.63 66.0553 321.087 68.5745 319.843C68.8326 319.715 68.6499 319.265 68.3745 319.37Z" fill="#37474F"/>
<path d="M154.728 338.907C153.876 339.759 143.946 340.139 140.334 340.139C136.723 340.139 126.793 339.759 125.941 338.907C125.088 338.055 137.115 272.052 140.334 272.052C143.554 272.052 155.58 338.054 154.728 338.907Z" fill="#263238"/>
<path d="M154.927 322.088C152.474 323.024 143.385 326.724 141.423 327.803C141.422 327.389 141.419 326.976 141.418 326.562C143.61 325.272 145.81 323.996 148.009 322.716C150.369 321.343 152.903 320.118 155.102 318.5C155.21 318.421 155.15 318.2 155.002 318.262C152.576 319.272 150.325 320.77 148.062 322.096C145.827 323.407 143.618 324.756 141.415 326.117C141.406 322.954 141.396 319.791 141.374 316.628C144.917 315.207 148.475 313.31 151.733 311.363C151.846 311.296 151.771 311.087 151.639 311.142C148.183 312.569 144.59 314.251 141.372 316.202C141.361 314.558 141.354 312.912 141.336 311.268C141.246 302.799 141.229 294.32 141.013 285.85C143.169 284.763 145.388 283.804 147.542 282.712C147.683 282.64 147.584 282.393 147.433 282.452C145.247 283.304 143.142 284.317 140.997 285.259C140.881 280.89 140.714 276.521 140.447 272.159C140.438 272.015 140.228 272.013 140.222 272.159C139.919 280.27 139.945 288.392 140.046 296.512C137.814 294.73 135.434 293.154 133.161 291.425C133.073 291.359 132.987 291.508 133.075 291.573C135.45 293.381 137.672 295.384 140.054 297.186C140.06 297.644 140.065 298.103 140.071 298.561C137.651 297.455 135.195 296.425 132.748 295.377C132.557 295.295 132.385 295.569 132.581 295.663C135.073 296.858 137.557 298.075 140.081 299.204C140.138 303.225 140.206 307.247 140.259 311.267C140.351 318.289 140.505 325.31 140.655 332.332C136.086 330.02 131.479 327.768 126.846 325.588C126.67 325.505 126.516 325.754 126.691 325.854C131.21 328.442 135.894 330.789 140.667 332.873C140.792 338.707 140.912 334.3 140.986 340.135C140.991 340.489 141.541 340.49 141.536 340.135C141.455 332.694 141.443 335.493 141.423 328.052C143.833 327.457 152.936 323.558 155.098 322.49C155.321 322.383 155.164 321.998 154.927 322.088Z" fill="#37474F"/>
<path d="M60.9299 339.255C61.6478 339.973 70.0099 340.292 73.0513 340.292C76.0927 340.292 84.4548 339.973 85.1727 339.255C85.8906 338.537 75.7627 282.955 73.0513 282.955C70.3398 282.955 60.212 338.537 60.9299 339.255Z" fill="#263238"/>
<path d="M60.7624 325.091C62.8278 325.88 70.4823 328.996 72.1347 329.904C72.1355 329.556 72.1381 329.208 72.139 328.859C70.2927 327.772 68.4403 326.697 66.5888 325.62C64.6013 324.464 62.4675 323.432 60.6151 322.069C60.5251 322.003 60.5753 321.817 60.7 321.869C62.7429 322.719 64.6394 323.981 66.5446 325.098C68.4256 326.201 70.2866 327.337 72.1416 328.484C72.1494 325.82 72.1581 323.156 72.1754 320.493C69.192 319.296 66.1965 317.699 63.453 316.059C63.3578 316.002 63.421 315.827 63.5318 315.872C66.4425 317.074 69.4674 318.491 72.1788 320.135C72.1884 318.75 72.1936 317.365 72.2083 315.98C72.2845 308.848 72.2983 301.708 72.4802 294.575C70.6651 293.66 68.7962 292.852 66.982 291.932C66.8633 291.871 66.9473 291.663 67.0738 291.713C68.9149 292.431 70.6876 293.284 72.4941 294.078C72.5919 290.397 72.7322 286.719 72.9565 283.045C72.9634 282.924 73.141 282.922 73.1462 283.045C73.4008 289.876 73.38 296.715 73.2942 303.554C75.1735 302.053 77.1783 300.725 79.0921 299.269C79.1666 299.213 79.2385 299.339 79.1649 299.394C77.1644 300.916 75.293 302.603 73.2873 304.12C73.2821 304.506 73.2778 304.892 73.2726 305.279C75.3112 304.347 77.3792 303.48 79.4394 302.597C79.6005 302.528 79.7451 302.759 79.5805 302.838C77.4814 303.845 75.39 304.871 73.2648 305.821C73.2163 309.208 73.1591 312.595 73.115 315.98C73.0379 321.894 72.908 327.806 72.7816 333.719C76.6292 331.773 80.5098 329.876 84.4102 328.04C84.5592 327.97 84.6882 328.179 84.541 328.264C80.7358 330.443 76.792 332.42 72.772 334.175C72.6673 339.088 72.5659 335.266 72.5027 340.179C72.4993 340.477 72.0359 340.478 72.0394 340.179C72.1078 333.913 72.1182 336.382 72.1355 330.116C70.1056 329.615 62.4407 326.331 60.6195 325.432C60.4307 325.34 60.5632 325.015 60.7624 325.091Z" fill="#455A64"/>
<path d="M367.853 338.794C366.937 339.711 356.258 340.118 352.374 340.118C348.49 340.118 337.811 339.711 336.895 338.794C335.979 337.878 348.912 266.899 352.374 266.899C355.836 266.899 368.77 337.878 367.853 338.794Z" fill="#263238"/>
<path d="M368.067 320.707C365.43 321.715 355.655 325.694 353.545 326.854C353.544 326.409 353.54 325.965 353.539 325.52C355.896 324.132 358.262 322.76 360.627 321.384C363.164 319.907 365.889 318.589 368.255 316.849C368.37 316.765 368.306 316.527 368.147 316.593C365.539 317.68 363.116 319.29 360.684 320.717C358.282 322.126 355.905 323.577 353.537 325.041C353.526 321.639 353.516 318.238 353.493 314.836C357.303 313.307 361.129 311.269 364.632 309.175C364.754 309.102 364.673 308.878 364.532 308.937C360.815 310.472 356.951 312.28 353.49 314.38C353.478 312.611 353.471 310.842 353.452 309.074C353.355 299.966 353.337 290.849 353.105 281.74C355.423 280.571 357.81 279.54 360.125 278.364C360.277 278.287 360.17 278.021 360.008 278.086C357.657 279.003 355.393 280.091 353.086 281.105C352.961 276.405 352.782 271.708 352.496 267.016C352.486 266.861 352.26 266.86 352.254 267.016C351.929 275.74 351.956 284.473 352.065 293.206C349.665 291.289 347.105 289.595 344.662 287.735C344.568 287.663 344.476 287.824 344.568 287.895C347.123 289.838 349.512 291.992 352.074 293.93C352.08 294.423 352.086 294.916 352.093 295.409C349.49 294.219 346.849 293.112 344.218 291.985C344.012 291.897 343.828 292.192 344.038 292.292C346.718 293.577 349.389 294.888 352.103 296.1C352.164 300.426 352.238 304.751 352.294 309.073C352.393 316.624 352.558 324.175 352.72 331.726C347.806 329.24 342.851 326.818 337.87 324.474C337.68 324.384 337.515 324.652 337.703 324.759C342.563 327.542 347.599 330.067 352.732 332.308C352.866 338.583 352.996 333.843 353.076 340.118C353.08 340.498 353.672 340.5 353.668 340.118C353.581 332.116 353.567 335.126 353.545 327.124C356.137 326.484 365.926 322.291 368.252 321.143C368.491 321.025 368.322 320.61 368.067 320.707Z" fill="#455A64"/>
<path d="M323.682 338.794C322.766 339.711 312.087 340.118 308.203 340.118C304.319 340.118 293.64 339.711 292.724 338.794C291.807 337.878 304.741 266.899 308.203 266.899C311.665 266.899 324.598 337.878 323.682 338.794Z" fill="#263238"/>
<path d="M323.896 320.707C321.258 321.715 311.484 325.694 309.373 326.854C309.372 326.409 309.369 325.965 309.367 325.52C311.724 324.132 314.09 322.76 316.455 321.384C318.993 319.907 321.718 318.589 324.084 316.849C324.199 316.765 324.135 316.527 323.976 316.593C321.367 317.68 318.945 319.29 316.512 320.717C314.11 322.126 311.734 323.577 309.365 325.041C309.355 321.639 309.345 318.238 309.322 314.836C313.132 313.307 316.958 311.269 320.461 309.175C320.583 309.102 320.501 308.878 320.36 308.937C316.644 310.472 312.78 312.28 309.319 314.38C309.306 312.611 309.3 310.842 309.28 309.074C309.184 299.966 309.165 290.849 308.933 281.74C311.252 280.571 313.637 279.54 315.954 278.364C316.105 278.287 315.999 278.021 315.836 278.086C313.486 279.003 311.222 280.091 308.915 281.105C308.789 276.405 308.61 271.708 308.324 267.016C308.315 266.861 308.089 266.86 308.083 267.016C307.757 275.74 307.784 284.473 307.894 293.206C305.493 291.289 302.934 289.595 300.491 287.735C300.396 287.663 300.304 287.824 300.397 287.895C302.952 289.838 305.341 291.992 307.903 293.93C307.909 294.423 307.915 294.916 307.922 295.409C305.319 294.219 302.677 293.112 300.046 291.985C299.84 291.897 299.657 292.192 299.866 292.292C302.547 293.577 305.217 294.888 307.931 296.1C307.993 300.426 308.066 304.751 308.123 309.073C308.221 316.624 308.387 324.175 308.548 331.726C303.634 329.24 298.679 326.818 293.698 324.474C293.508 324.384 293.344 324.652 293.531 324.759C298.391 327.542 303.426 330.067 308.56 332.308C308.693 338.583 308.823 333.843 308.904 340.118C308.909 340.498 309.5 340.5 309.496 340.118C309.409 332.116 309.396 335.126 309.374 327.124C311.966 326.484 321.754 322.291 324.08 321.143C324.319 321.025 324.151 320.61 323.896 320.707Z" fill="#455A64"/>
<path d="M317.988 339.479C318.629 340.119 326.092 340.404 328.806 340.404C331.521 340.404 338.984 340.119 339.625 339.479C340.265 338.838 331.227 289.233 328.806 289.233C326.386 289.233 317.348 338.838 317.988 339.479Z" fill="#263238"/>
<path d="M317.839 326.838C319.683 327.542 326.514 330.323 327.989 331.134C327.99 330.823 327.992 330.512 327.993 330.201C326.346 329.232 324.692 328.273 323.039 327.311C321.266 326.278 319.361 325.358 317.708 324.142C317.628 324.083 317.672 323.917 317.784 323.964C319.607 324.723 321.3 325.848 323 326.846C324.679 327.83 326.339 328.844 327.995 329.868C328.002 327.491 328.009 325.113 328.025 322.736C325.362 321.668 322.689 320.242 320.24 318.779C320.156 318.728 320.212 318.572 320.311 318.613C322.909 319.686 325.608 320.95 328.028 322.417C328.036 321.181 328.041 319.945 328.054 318.709C328.121 312.344 328.134 305.972 328.297 299.606C326.677 298.788 325.009 298.068 323.39 297.247C323.284 297.193 323.359 297.007 323.472 297.052C325.115 297.693 326.697 298.454 328.31 299.162C328.397 295.878 328.523 292.595 328.723 289.316C328.73 289.208 328.887 289.207 328.892 289.316C329.12 295.413 329.101 301.516 329.024 307.619C330.702 306.279 332.491 305.095 334.199 303.795C334.264 303.745 334.329 303.857 334.264 303.907C332.479 305.265 330.808 306.771 329.018 308.125C329.014 308.469 329.01 308.814 329.005 309.159C330.825 308.327 332.67 307.553 334.509 306.766C334.652 306.704 334.781 306.91 334.634 306.981C332.761 307.879 330.895 308.794 328.998 309.642C328.955 312.665 328.904 315.687 328.864 318.709C328.795 323.986 328.68 329.264 328.566 334.54C332.001 332.803 335.463 331.11 338.945 329.471C339.078 329.409 339.193 329.596 339.062 329.671C335.666 331.617 332.145 333.381 328.558 334.947C328.465 339.332 328.374 335.82 328.319 340.205C328.315 340.471 327.902 340.472 327.905 340.205C327.965 334.613 327.975 336.916 327.99 331.324C326.179 330.876 319.337 327.946 317.713 327.145C317.544 327.061 317.662 326.77 317.839 326.838Z" fill="#37474F"/>
<path d="M110.437 339.378C111.078 340.019 118.54 340.303 121.255 340.303C123.969 340.303 131.432 340.018 132.073 339.378C132.714 338.737 123.675 289.132 121.255 289.132C118.834 289.132 109.796 338.738 110.437 339.378Z" fill="#263238"/>
<path d="M110.287 326.737C112.13 327.441 118.961 330.222 120.436 331.034C120.437 330.723 120.439 330.412 120.44 330.101C118.793 329.131 117.138 328.171 115.486 327.21C113.713 326.178 111.808 325.257 110.154 324.042C110.074 323.982 110.119 323.816 110.23 323.862C112.052 324.622 113.745 325.748 115.445 326.744C117.125 327.729 118.785 328.743 120.441 329.767C120.447 327.389 120.455 325.011 120.471 322.634C117.808 321.566 115.135 320.141 112.686 318.678C112.601 318.626 112.658 318.47 112.757 318.51C115.354 319.583 118.054 320.848 120.473 322.315C120.482 321.079 120.486 319.842 120.499 318.607C120.567 312.241 120.58 305.869 120.743 299.503C119.123 298.686 117.455 297.965 115.836 297.144C115.73 297.091 115.805 296.905 115.918 296.95C117.561 297.59 119.143 298.352 120.755 299.06C120.842 295.775 120.968 292.492 121.168 289.214C121.174 289.105 121.332 289.104 121.337 289.214C121.565 295.31 121.546 301.414 121.469 307.517C123.147 306.177 124.936 304.992 126.644 303.693C126.709 303.643 126.774 303.755 126.709 303.805C124.924 305.163 123.253 306.669 121.463 308.022C121.459 308.367 121.455 308.712 121.45 309.056C123.27 308.225 125.115 307.451 126.954 306.663C127.097 306.601 127.226 306.807 127.079 306.878C125.206 307.776 123.34 308.692 121.443 309.539C121.4 312.563 121.349 315.585 121.309 318.607C121.24 323.884 121.125 329.161 121.011 334.438C124.445 332.701 127.908 331.008 131.39 329.369C131.523 329.307 131.638 329.494 131.507 329.569C128.111 331.513 124.591 333.278 121.003 334.845C120.91 339.229 120.819 335.817 120.764 340.203C120.76 340.469 120.347 340.47 120.35 340.203C120.41 334.61 120.42 336.814 120.435 331.221C118.624 330.774 111.782 327.843 110.158 327.041C109.991 326.96 110.108 326.67 110.287 326.737Z" fill="#37474F"/>
<path d="M174.693 339.279C175.333 339.919 182.796 340.204 185.511 340.204C188.225 340.204 195.688 339.919 196.329 339.279C196.97 338.638 187.93 289.032 185.511 289.032C183.09 289.032 174.052 338.638 174.693 339.279Z" fill="#263238"/>
<path d="M174.543 326.638C176.387 327.342 183.218 330.123 184.692 330.934C184.693 330.623 184.696 330.312 184.697 330.001C183.049 329.031 181.395 328.072 179.743 327.111C177.97 326.078 176.065 325.158 174.411 323.942C174.331 323.883 174.376 323.717 174.486 323.763C176.309 324.523 178.002 325.648 179.702 326.646C181.382 327.63 183.042 328.644 184.698 329.668C184.704 327.291 184.712 324.913 184.728 322.535C182.065 321.468 179.392 320.042 176.943 318.579C176.858 318.528 176.915 318.372 177.013 318.412C179.611 319.485 182.311 320.75 184.73 322.217C184.739 320.981 184.744 319.744 184.757 318.509C184.825 312.144 184.838 305.771 185 299.406C183.38 298.588 181.712 297.868 180.093 297.047C179.987 296.993 180.062 296.807 180.175 296.852C181.818 297.493 183.4 298.254 185.012 298.962C185.099 295.677 185.225 292.394 185.425 289.116C185.432 289.007 185.589 289.007 185.594 289.116C185.822 295.212 185.803 301.316 185.726 307.419C187.404 306.079 189.193 304.895 190.901 303.595C190.966 303.545 191.031 303.657 190.966 303.707C189.18 305.065 187.51 306.57 185.719 307.924C185.715 308.269 185.711 308.614 185.706 308.958C187.526 308.127 189.371 307.353 191.21 306.566C191.354 306.504 191.482 306.71 191.335 306.781C189.462 307.679 187.596 308.595 185.699 309.442C185.655 312.466 185.604 315.488 185.565 318.509C185.497 323.787 185.381 329.064 185.268 334.341C188.702 332.604 192.165 330.911 195.646 329.272C195.779 329.21 195.894 329.397 195.763 329.472C192.367 331.416 188.847 333.181 185.26 334.748C185.166 339.132 185.075 335.82 185.019 340.205C185.015 340.471 184.602 340.472 184.605 340.205C184.666 334.613 184.675 336.716 184.691 331.124C182.88 330.676 176.037 327.746 174.413 326.944C174.247 326.86 174.364 326.57 174.543 326.638Z" fill="#37474F"/>
<path d="M376.787 339.279C377.428 339.919 384.89 340.204 387.605 340.204C390.319 340.204 397.783 339.919 398.423 339.279C399.064 338.638 390.025 289.032 387.605 289.032C385.185 289.032 376.146 338.638 376.787 339.279Z" fill="#263238"/>
<path d="M376.637 326.638C378.48 327.342 385.311 330.123 386.786 330.934C386.787 330.623 386.79 330.312 386.791 330.001C385.143 329.031 383.489 328.072 381.837 327.111C380.063 326.078 378.159 325.158 376.505 323.942C376.425 323.883 376.47 323.717 376.58 323.763C378.403 324.523 380.096 325.648 381.796 326.646C383.475 327.63 385.136 328.644 386.791 329.668C386.798 327.291 386.806 324.913 386.822 322.535C384.159 321.468 381.485 320.042 379.037 318.579C378.952 318.528 379.009 318.372 379.107 318.412C381.705 319.485 384.405 320.75 386.824 322.217C386.833 320.981 386.838 319.744 386.851 318.509C386.919 312.144 386.932 305.771 387.094 299.406C385.473 298.588 383.805 297.868 382.187 297.047C382.081 296.993 382.156 296.807 382.269 296.852C383.912 297.493 385.494 298.254 387.106 298.962C387.193 295.677 387.319 292.394 387.519 289.116C387.526 289.007 387.683 289.007 387.688 289.116C387.915 295.212 387.896 301.316 387.82 307.419C389.498 306.079 391.287 304.895 392.995 303.595C393.06 303.545 393.125 303.657 393.06 303.707C391.275 305.065 389.604 306.57 387.813 307.924C387.809 308.269 387.805 308.614 387.8 308.958C389.62 308.127 391.465 307.353 393.304 306.566C393.447 306.504 393.577 306.71 393.429 306.781C391.556 307.679 389.69 308.595 387.793 309.442C387.75 312.466 387.699 315.488 387.66 318.509C387.592 323.787 387.476 329.064 387.363 334.341C390.797 332.604 394.26 330.911 397.741 329.272C397.874 329.21 397.989 329.397 397.858 329.472C394.462 331.416 390.941 333.181 387.354 334.748C387.261 339.132 387.17 335.82 387.114 340.205C387.11 340.471 386.697 340.472 386.7 340.205C386.76 334.613 386.77 336.716 386.785 331.124C384.974 330.676 378.132 327.746 376.508 326.944C376.341 326.86 376.459 326.57 376.637 326.638Z" fill="#37474F"/>
<path d="M296.374 335.711H295.089V339.319H296.374V335.711Z" fill="#263238"/>
<path d="M234.361 335.711H233.076V339.319H234.361V335.711Z" fill="#263238"/>
<path d="M233.076 339.319L251.171 312.406L269.746 339.319H233.076Z" fill="#25B491"/>
<path opacity="0.1" d="M233.076 339.319L251.171 312.406L269.746 339.319H233.076Z" fill="black"/>
<path d="M251.171 312.406H277.704L296.142 339.319H269.746L251.171 312.406Z" fill="#25B491"/>
<path d="M262.48 317.303H274.608L278.297 322.687H266.196L262.48 317.303Z" fill="white"/>
<path opacity="0.3" d="M245.226 339.319H256.638L251.172 312.406L245.226 339.319Z" fill="black"/>
<path d="M270.389 335.711H269.104V339.319H270.389V335.711Z" fill="#263238"/>
<path d="M251.172 312.406C246.789 321.148 241.71 330.76 236.966 339.319C241.356 330.571 246.425 320.959 251.172 312.406Z" fill="white"/>
<path d="M251.171 312.406C255.872 320.91 260.893 330.473 265.239 339.171C260.538 330.659 255.51 321.103 251.171 312.406Z" fill="white"/>
<path d="M245.226 339.319C245.226 339.319 244.403 335.505 240.462 332.146L251.172 312.406L245.226 339.319Z" fill="#25B491"/>
<path d="M256.637 339.319L251.171 312.406L262.326 333.174C262.326 333.174 257.39 333.809 256.637 339.319Z" fill="#25B491"/>
<path d="M153.332 150.076C153.332 150.067 153.332 150.067 153.323 150.067C153.112 149.828 152.882 149.598 152.643 149.387C152.643 149.378 152.643 149.378 152.633 149.378C152.422 149.139 152.193 148.91 151.954 148.698C151.954 148.689 151.954 148.689 151.944 148.689C151.733 148.45 151.503 148.22 151.264 148.009C151.264 147.999 151.264 147.999 151.255 147.999C151.044 147.76 150.814 147.531 150.575 147.32C150.575 147.311 150.575 147.311 150.565 147.311C150.354 147.072 150.125 146.842 149.886 146.631C149.886 146.622 149.886 146.622 149.876 146.622C149.665 146.383 149.435 146.153 149.196 145.942C149.196 145.932 149.196 145.932 149.187 145.932C148.976 145.693 148.746 145.464 148.507 145.252C148.507 145.243 148.507 145.243 148.497 145.243C148.286 145.004 148.057 144.774 147.818 144.563C147.818 144.554 147.818 144.554 147.808 144.554C147.597 144.315 147.367 144.085 147.128 143.874C147.128 143.864 147.128 143.864 147.12 143.864C146.422 143.101 145.613 142.449 144.704 141.925V73.8637C144.704 73.5052 144.529 73.3216 144.529 72.9631C144.529 72.421 144.529 72.2374 144.345 71.8789C144.345 71.6953 144.17 71.3368 144.17 71.1532C143.986 70.6111 143.986 70.4275 143.803 70.0689C143.619 69.8853 143.444 69.5268 143.444 69.3432C143.077 68.8011 142.902 68.6175 142.719 68.4426C142.535 68.259 142.36 67.9005 142.177 67.7169L141.451 66.9912C141.451 66.8812 141.313 66.7703 141.157 66.6967C141.065 66.6049 140.946 66.4854 140.799 66.3382L140.762 66.3018C140.762 66.1919 140.625 66.081 140.468 66.0083C140.376 65.9165 140.257 65.797 140.109 65.6497L140.073 65.6125C140.073 65.5025 139.935 65.3917 139.779 65.3181C139.687 65.2263 139.567 65.1068 139.42 64.9595L139.384 64.9232C139.384 64.8132 139.246 64.7023 139.09 64.6287C138.998 64.5369 138.879 64.4174 138.732 64.2702L138.695 64.2338C138.695 64.1238 138.558 64.013 138.402 63.9394C138.31 63.8476 138.19 63.7281 138.043 63.5809L138.007 63.5436C138.007 63.4336 137.869 63.3228 137.712 63.2492C137.621 63.1574 137.501 63.0379 137.354 62.8907L137.317 62.8534C137.317 62.7434 137.18 62.6326 137.024 62.559C136.932 62.4672 136.813 62.3477 136.665 62.2005L136.629 62.1641C136.629 62.0541 136.491 61.9433 136.335 61.8705C136.244 61.7787 136.124 61.6592 135.977 61.512L135.94 61.4756C135.94 61.3656 135.803 61.2548 135.646 61.1812C135.554 61.0894 135.435 60.9699 135.288 60.8227L135.251 60.7854C135.251 60.6754 135.113 60.5646 134.958 60.491L134.563 60.0961C134.563 59.9211 134.204 59.7376 134.021 59.7376C134.021 59.554 133.846 59.554 133.846 59.554C133.478 59.379 133.294 59.1954 132.936 59.0118C132.753 58.8283 132.394 58.6533 132.036 58.2861C131.852 58.2861 131.494 58.1112 131.31 58.1112C130.951 57.9276 130.401 57.9276 130.226 57.744C129.867 57.744 129.684 57.744 129.316 57.5691H128.232C128.057 57.5691 128.057 57.5691 127.874 57.5691C127.69 57.5691 127.515 57.5691 127.515 57.5691H126.247C126.064 57.744 125.705 57.744 125.522 57.744C124.98 57.9276 124.621 57.9276 124.437 58.1112C124.079 58.1112 123.895 58.2861 123.712 58.6533C123.17 58.6533 122.995 58.8283 122.627 59.0118C122.453 59.1954 122.085 59.379 121.902 59.554C121.727 59.7376 121.543 59.9211 121.001 60.0961C120.827 60.4633 120.643 60.6382 120.459 60.8218C120.275 61.0054 120.275 61.1803 120.1 61.1803L53.195 144.367C49.9519 148.455 50.255 154.161 54.0957 157.671C54.307 157.919 54.5365 158.149 54.785 158.36C54.9963 158.608 55.2258 158.838 55.4743 159.05C55.6857 159.297 55.9151 159.528 56.1637 159.739C56.375 159.987 56.6045 160.217 56.853 160.428C57.0643 160.676 57.2938 160.906 57.5424 161.118C57.7537 161.365 57.9831 161.596 58.2317 161.807C58.443 162.055 58.6725 162.285 58.921 162.496C59.1323 162.744 59.3618 162.974 59.6104 163.186C59.8217 163.433 60.0512 163.664 60.2997 163.875C60.7128 164.343 61.1908 164.784 61.7147 165.18C63.5247 166.806 65.6932 167.348 67.8616 167.348H117.935V174.203C117.935 177.198 119.166 179.826 121.169 181.626L121.197 181.654C121.408 181.883 121.629 182.104 121.858 182.316C121.868 182.325 121.877 182.325 121.877 182.334C122.088 182.573 122.317 182.794 122.548 183.005L122.576 183.033C122.787 183.262 123.008 183.483 123.237 183.694C123.247 183.704 123.255 183.704 123.255 183.712C123.467 183.951 123.696 184.171 123.926 184.383L123.954 184.41C124.165 184.64 124.386 184.861 124.616 185.072C124.625 185.082 124.634 185.082 124.634 185.09C124.845 185.329 125.075 185.55 125.305 185.76L125.333 185.788C125.544 186.018 125.765 186.239 125.994 186.45C126.004 186.459 126.013 186.459 126.013 186.468C126.224 186.707 126.453 186.928 126.683 187.139L126.711 187.167C126.922 187.396 127.143 187.617 127.372 187.828C127.382 187.837 127.39 187.837 127.39 187.847C129.192 189.822 131.801 191.044 134.768 191.044C140.373 191.044 144.709 186.698 144.709 181.094V167.348H146.519C152.123 167.348 156.644 163.012 156.644 157.408C156.64 154.532 155.362 151.904 153.332 150.076ZM117.932 111.349V140.576H94.3837L117.932 111.349Z" fill="#25B491"/>
<path opacity="0.1" d="M153.332 150.076C153.332 150.067 153.332 150.067 153.323 150.067C153.112 149.828 152.882 149.598 152.643 149.387C152.643 149.378 152.643 149.378 152.633 149.378C152.422 149.139 152.193 148.91 151.954 148.698C151.954 148.689 151.954 148.689 151.944 148.689C151.733 148.45 151.503 148.22 151.264 148.009C151.264 147.999 151.264 147.999 151.255 147.999C151.044 147.76 150.814 147.531 150.575 147.32C150.575 147.311 150.575 147.311 150.565 147.311C150.354 147.072 150.125 146.842 149.886 146.631C149.886 146.622 149.886 146.622 149.876 146.622C149.665 146.383 149.435 146.153 149.196 145.942C149.196 145.932 149.196 145.932 149.187 145.932C148.976 145.693 148.746 145.464 148.507 145.252C148.507 145.243 148.507 145.243 148.497 145.243C148.286 145.004 148.057 144.774 147.818 144.563C147.818 144.554 147.818 144.554 147.808 144.554C147.597 144.315 147.367 144.085 147.128 143.874C147.128 143.864 147.128 143.864 147.12 143.864C146.422 143.101 145.613 142.449 144.704 141.925V73.8637C144.704 73.5052 144.529 73.3216 144.529 72.9631C144.529 72.421 144.529 72.2374 144.345 71.8789C144.345 71.6953 144.17 71.3368 144.17 71.1532C143.986 70.6111 143.986 70.4275 143.803 70.0689C143.619 69.8853 143.444 69.5268 143.444 69.3432C143.077 68.8011 142.902 68.6175 142.719 68.4426C142.535 68.259 142.36 67.9005 142.177 67.7169L141.451 66.9912C141.451 66.8812 141.313 66.7703 141.157 66.6967C141.065 66.6049 140.946 66.4854 140.799 66.3382L140.762 66.3018C140.762 66.1919 140.625 66.081 140.468 66.0083C140.376 65.9165 140.257 65.797 140.109 65.6497L140.073 65.6125C140.073 65.5025 139.935 65.3917 139.779 65.3181C139.687 65.2263 139.567 65.1068 139.42 64.9595L139.384 64.9232C139.384 64.8132 139.246 64.7023 139.09 64.6287C138.998 64.5369 138.879 64.4174 138.732 64.2702L138.695 64.2338C138.695 64.1238 138.558 64.013 138.402 63.9394C138.31 63.8476 138.19 63.7281 138.043 63.5809L138.007 63.5436C138.007 63.4336 137.869 63.3228 137.712 63.2492C137.621 63.1574 137.501 63.0379 137.354 62.8907L137.317 62.8534C137.317 62.7434 137.18 62.6326 137.024 62.559C136.932 62.4672 136.813 62.3477 136.665 62.2005L136.629 62.1641C136.629 62.0541 136.491 61.9433 136.335 61.8705C136.244 61.7787 136.124 61.6592 135.977 61.512L135.94 61.4756C135.94 61.3656 135.803 61.2548 135.646 61.1812C135.554 61.0894 135.435 60.9699 135.288 60.8227L135.251 60.7854C135.251 60.6754 135.113 60.5646 134.958 60.491L134.563 60.0961C134.563 59.9211 134.204 59.7376 134.021 59.7376C134.021 59.554 133.846 59.554 133.846 59.554C133.478 59.379 133.294 59.1954 132.936 59.0118C132.753 58.8283 132.394 58.6533 132.036 58.2861C131.852 58.2861 131.494 58.1112 131.31 58.1112C130.951 57.9276 130.401 57.9276 130.226 57.744C129.867 57.744 129.684 57.744 129.316 57.5691H128.232C128.057 57.5691 128.057 57.5691 127.874 57.5691C127.69 57.5691 127.515 57.5691 127.515 57.5691H126.247C126.064 57.744 125.705 57.744 125.522 57.744C124.98 57.9276 124.621 57.9276 124.437 58.1112C124.079 58.1112 123.895 58.2861 123.712 58.6533C123.17 58.6533 122.995 58.8283 122.627 59.0118C122.453 59.1954 122.085 59.379 121.902 59.554C121.727 59.7376 121.543 59.9211 121.001 60.0961C120.827 60.4633 120.643 60.6382 120.459 60.8218C120.275 61.0054 120.275 61.1803 120.1 61.1803L53.195 144.367C49.9519 148.455 50.255 154.161 54.0957 157.671C54.307 157.919 54.5365 158.149 54.785 158.36C54.9963 158.608 55.2258 158.838 55.4743 159.05C55.6857 159.297 55.9151 159.528 56.1637 159.739C56.375 159.987 56.6045 160.217 56.853 160.428C57.0643 160.676 57.2938 160.906 57.5424 161.118C57.7537 161.365 57.9831 161.596 58.2317 161.807C58.443 162.055 58.6725 162.285 58.921 162.496C59.1323 162.744 59.3618 162.974 59.6104 163.186C59.8217 163.433 60.0512 163.664 60.2997 163.875C60.7128 164.343 61.1908 164.784 61.7147 165.18C63.5247 166.806 65.6932 167.348 67.8616 167.348H117.935V174.203C117.935 177.198 119.166 179.826 121.169 181.626L121.197 181.654C121.408 181.883 121.629 182.104 121.858 182.316C121.868 182.325 121.877 182.325 121.877 182.334C122.088 182.573 122.317 182.794 122.548 183.005L122.576 183.033C122.787 183.262 123.008 183.483 123.237 183.694C123.247 183.704 123.255 183.704 123.255 183.712C123.467 183.951 123.696 184.171 123.926 184.383L123.954 184.41C124.165 184.64 124.386 184.861 124.616 185.072C124.625 185.082 124.634 185.082 124.634 185.09C124.845 185.329 125.075 185.55 125.305 185.76L125.333 185.788C125.544 186.018 125.765 186.239 125.994 186.45C126.004 186.459 126.013 186.459 126.013 186.468C126.224 186.707 126.453 186.928 126.683 187.139L126.711 187.167C126.922 187.396 127.143 187.617 127.372 187.828C127.382 187.837 127.39 187.837 127.39 187.847C129.192 189.822 131.801 191.044 134.768 191.044C140.373 191.044 144.709 186.698 144.709 181.094V167.348H146.519C152.123 167.348 156.644 163.012 156.644 157.408C156.64 154.532 155.362 151.904 153.332 150.076ZM117.932 111.349V140.576H94.3837L117.932 111.349Z" fill="black"/>
<path d="M149.753 150.516C149.753 156.122 145.232 160.461 139.626 160.461H137.818V174.205C137.818 179.81 133.479 184.15 127.874 184.15C122.267 184.15 117.928 179.81 117.928 174.205V160.461H61.3288H61.1478H60.9668C58.7966 160.461 56.6273 159.919 54.8182 158.291C50.2977 154.856 49.7556 148.708 53.1919 144.368L120.098 61.1874C120.279 61.1874 120.279 61.0064 120.46 60.8262C120.641 60.6452 120.822 60.4642 121.003 60.1023C121.543 59.9213 121.724 59.7411 121.905 59.5601C122.086 59.3791 122.448 59.1982 122.629 59.0172C122.991 58.8362 123.172 58.6552 123.713 58.6552C123.894 58.294 124.075 58.1131 124.437 58.1131C124.618 57.9321 124.98 57.9321 125.523 57.7511C125.704 57.7511 126.064 57.7511 126.244 57.5701C126.606 57.5701 127.149 57.5701 127.511 57.5701C127.511 57.5701 127.692 57.5701 127.873 57.5701C128.054 57.5701 128.054 57.5701 128.233 57.5701C128.595 57.5701 129.138 57.5701 129.319 57.5701C129.681 57.7511 129.862 57.7511 130.224 57.7511C130.404 57.9321 130.947 57.9321 131.309 58.1131C131.49 58.1131 131.852 58.294 132.032 58.294C132.394 58.6552 132.755 58.8362 132.936 59.0172C133.298 59.1982 133.479 59.3791 133.841 59.5601C133.841 59.5601 134.022 59.5601 134.022 59.7411C134.203 59.7411 134.565 59.9213 134.565 60.1023C134.927 60.4642 135.106 60.6452 135.287 60.8262C135.468 61.0064 135.649 61.3683 135.83 61.5493C136.011 61.7303 136.192 61.9113 136.554 62.4534C136.554 62.6344 136.735 62.9964 136.916 63.1774C137.097 63.5385 137.097 63.7195 137.278 64.2625C137.278 64.4426 137.456 64.8046 137.456 64.9856C137.637 65.3476 137.637 65.5277 137.637 66.0707C137.637 66.4327 137.818 66.6137 137.818 66.9748C137.818 67.1558 137.818 67.3368 137.818 67.5178V140.572H139.626C145.233 140.571 149.753 145.091 149.753 150.516ZM117.928 95.9062L81.9431 140.571H117.928V95.9062Z" fill="#25B491"/>
<path d="M255.532 84.5303C253.474 81.3972 251.103 78.4943 248.457 75.9214C248.356 75.8115 248.256 75.7101 248.145 75.6183C248.117 75.5906 248.089 75.5543 248.053 75.5265C247.971 75.4347 247.887 75.3429 247.796 75.2598C247.566 75.0121 247.318 74.7818 247.079 74.5428C247.06 74.5246 247.033 74.4969 247.015 74.4873C246.932 74.4051 246.849 74.3219 246.767 74.2397C246.739 74.212 246.711 74.1756 246.675 74.1479C246.592 74.0561 246.51 73.9643 246.418 73.8811C246.188 73.6335 245.94 73.4031 245.701 73.165C245.683 73.1468 245.655 73.1191 245.637 73.1095C245.554 73.0273 245.471 72.9441 245.389 72.8619C245.361 72.8341 245.334 72.7978 245.297 72.7701C245.215 72.6783 245.132 72.5865 245.04 72.5033C244.811 72.2557 244.562 72.0253 244.324 71.7863C244.306 71.7681 244.278 71.7404 244.26 71.7309C244.177 71.6486 244.094 71.5655 244.011 71.4832C243.984 71.4555 243.956 71.4191 243.919 71.3914C243.836 71.2996 243.754 71.2078 243.662 71.1247C243.433 70.877 243.184 70.6466 242.945 70.4076C242.927 70.3894 242.899 70.3617 242.881 70.3522C242.798 70.2604 242.725 70.1781 242.633 70.1045C242.606 70.0768 242.578 70.0404 242.542 70.0127C235.283 62.5244 225.811 57.5726 215.19 57.5726C200.903 57.5726 189.152 66.0716 181.554 77.6387C173.597 89.2154 169.444 104.228 169.261 120.858C169.444 137.313 173.598 152.501 181.554 164.078C183.603 167.137 185.945 170.013 188.554 172.567C188.674 172.687 188.793 172.797 188.913 172.916C188.931 172.926 188.949 172.944 188.959 172.962C189.17 173.183 189.391 173.394 189.602 173.605C189.712 173.725 189.823 173.835 189.933 173.946C190.053 174.065 190.172 174.175 190.292 174.295C190.31 174.303 190.328 174.322 190.337 174.341C190.549 174.561 190.77 174.773 190.981 174.984C191.091 175.104 191.202 175.214 191.312 175.324C191.431 175.444 191.551 175.554 191.67 175.673C191.688 175.683 191.707 175.701 191.716 175.719C191.927 175.94 192.148 176.151 192.36 176.363C192.47 176.482 192.58 176.592 192.69 176.703C192.81 176.823 192.929 176.933 193.049 177.052C193.067 177.062 193.085 177.08 193.095 177.098C193.306 177.319 193.527 177.53 193.738 177.741C193.848 177.861 193.959 177.971 194.069 178.082C194.189 178.201 194.308 178.311 194.428 178.431C194.446 178.44 194.464 178.458 194.473 178.477C194.685 178.697 194.906 178.909 195.117 179.12C202.265 186.258 211.48 191.046 222.083 191.046C236.003 191.046 247.938 182.363 255.536 170.97C263.309 159.393 267.655 144.206 267.655 127.751C267.65 111.12 263.305 96.107 255.532 84.5303ZM232.002 152.869C226.756 160.642 220.794 164.078 215.189 164.078C212.102 164.078 208.85 163.039 205.653 160.797C205.395 160.466 205.147 160.117 204.899 159.759C199.837 152.161 196.217 140.593 196.217 127.749C196.217 114.73 199.837 103.337 204.899 95.564C210.329 87.9658 216.476 84.3554 222.081 84.5295C225.057 84.4377 228.136 85.4119 231.158 87.4973C231.443 87.8835 231.728 88.2689 232.003 88.6733C237.066 96.4465 240.686 107.839 240.686 120.858C240.685 133.703 237.065 145.271 232.002 152.869Z" fill="#25B491"/>
<path opacity="0.1" d="M255.532 84.5303C253.474 81.3972 251.103 78.4943 248.457 75.9214C248.356 75.8115 248.256 75.7101 248.145 75.6183C248.117 75.5906 248.089 75.5543 248.053 75.5265C247.971 75.4347 247.887 75.3429 247.796 75.2598C247.566 75.0121 247.318 74.7818 247.079 74.5428C247.06 74.5246 247.033 74.4969 247.015 74.4873C246.932 74.4051 246.849 74.3219 246.767 74.2397C246.739 74.212 246.711 74.1756 246.675 74.1479C246.592 74.0561 246.51 73.9643 246.418 73.8811C246.188 73.6335 245.94 73.4031 245.701 73.165C245.683 73.1468 245.655 73.1191 245.637 73.1095C245.554 73.0273 245.471 72.9441 245.389 72.8619C245.361 72.8341 245.334 72.7978 245.297 72.7701C245.215 72.6783 245.132 72.5865 245.04 72.5033C244.811 72.2557 244.562 72.0253 244.324 71.7863C244.306 71.7681 244.278 71.7404 244.26 71.7309C244.177 71.6486 244.094 71.5655 244.011 71.4832C243.984 71.4555 243.956 71.4191 243.919 71.3914C243.836 71.2996 243.754 71.2078 243.662 71.1247C243.433 70.877 243.184 70.6466 242.945 70.4076C242.927 70.3894 242.899 70.3617 242.881 70.3522C242.798 70.2604 242.725 70.1781 242.633 70.1045C242.606 70.0768 242.578 70.0404 242.542 70.0127C235.283 62.5244 225.811 57.5726 215.19 57.5726C200.903 57.5726 189.152 66.0716 181.554 77.6387C173.597 89.2154 169.444 104.228 169.261 120.858C169.444 137.313 173.598 152.501 181.554 164.078C183.603 167.137 185.945 170.013 188.554 172.567C188.674 172.687 188.793 172.797 188.913 172.916C188.931 172.926 188.949 172.944 188.959 172.962C189.17 173.183 189.391 173.394 189.602 173.605C189.712 173.725 189.823 173.835 189.933 173.946C190.053 174.065 190.172 174.175 190.292 174.295C190.31 174.303 190.328 174.322 190.337 174.341C190.549 174.561 190.77 174.773 190.981 174.984C191.091 175.104 191.202 175.214 191.312 175.324C191.431 175.444 191.551 175.554 191.67 175.673C191.688 175.683 191.707 175.701 191.716 175.719C191.927 175.94 192.148 176.151 192.36 176.363C192.47 176.482 192.58 176.592 192.69 176.703C192.81 176.823 192.929 176.933 193.049 177.052C193.067 177.062 193.085 177.08 193.095 177.098C193.306 177.319 193.527 177.53 193.738 177.741C193.848 177.861 193.959 177.971 194.069 178.082C194.189 178.201 194.308 178.311 194.428 178.431C194.446 178.44 194.464 178.458 194.473 178.477C194.685 178.697 194.906 178.909 195.117 179.12C202.265 186.258 211.48 191.046 222.083 191.046C236.003 191.046 247.938 182.363 255.536 170.97C263.309 159.393 267.655 144.206 267.655 127.751C267.65 111.12 263.305 96.107 255.532 84.5303ZM232.002 152.869C226.756 160.642 220.794 164.078 215.189 164.078C212.102 164.078 208.85 163.039 205.653 160.797C205.395 160.466 205.147 160.117 204.899 159.759C199.837 152.161 196.217 140.593 196.217 127.749C196.217 114.73 199.837 103.337 204.899 95.564C210.329 87.9658 216.476 84.3554 222.081 84.5295C225.057 84.4377 228.136 85.4119 231.158 87.4973C231.443 87.8835 231.728 88.2689 232.003 88.6733C237.066 96.4465 240.686 107.839 240.686 120.858C240.685 133.703 237.065 145.271 232.002 152.869Z" fill="black"/>
<path d="M169.258 120.861C169.439 104.224 173.597 89.2153 181.555 77.643C189.148 66.0697 200.902 57.5708 215.188 57.5708C229.113 57.5708 241.046 66.0697 248.643 77.643C256.417 89.2162 260.757 104.225 260.757 120.861C260.757 137.316 256.417 152.505 248.643 164.078C241.046 175.471 229.113 184.15 215.188 184.15C200.902 184.15 189.148 175.471 181.555 164.078C173.597 152.505 169.439 137.316 169.258 120.861ZM240.683 120.861C240.683 107.841 237.067 96.449 232.004 88.6723C226.759 81.0784 220.794 77.4611 215.187 77.6421C209.581 77.4611 203.433 81.0775 198.01 88.6723C192.946 96.449 189.328 107.84 189.328 120.861C189.328 133.7 192.946 145.272 198.01 152.867C203.433 160.642 209.581 164.078 215.187 164.078C220.793 164.078 226.759 160.643 232.004 152.867C237.067 145.272 240.683 133.7 240.683 120.861Z" fill="#25B491"/>
<path d="M378.727 150.076C378.727 150.067 378.727 150.067 378.718 150.067C378.497 149.828 378.268 149.598 378.038 149.387C378.038 149.378 378.038 149.378 378.029 149.378C377.808 149.139 377.578 148.91 377.349 148.698C377.349 148.689 377.349 148.689 377.339 148.689C377.119 148.45 376.889 148.22 376.659 148.009C376.659 147.999 376.659 147.999 376.65 147.999C376.429 147.76 376.2 147.531 375.97 147.32C375.97 147.311 375.97 147.311 375.961 147.311C375.74 147.072 375.51 146.842 375.281 146.631C375.281 146.622 375.281 146.622 375.271 146.622C375.051 146.383 374.821 146.153 374.591 145.942C374.591 145.932 374.591 145.932 374.582 145.932C374.361 145.693 374.132 145.464 373.902 145.252C373.902 145.243 373.902 145.243 373.893 145.243C373.673 145.004 373.443 144.774 373.214 144.563C373.214 144.554 373.214 144.554 373.204 144.554C372.983 144.315 372.754 144.085 372.524 143.874C372.524 143.864 372.524 143.864 372.515 143.864C371.817 143.101 370.999 142.441 370.089 141.925V73.8638C370.089 73.5052 369.914 73.3216 369.914 72.9631C369.914 72.421 369.914 72.2374 369.731 71.8789C369.731 71.6953 369.556 71.3368 369.556 71.1532C369.372 70.6111 369.372 70.4275 369.188 70.0689C369.013 69.8853 368.83 69.5268 368.83 69.3432C368.471 68.8011 368.288 68.6175 368.104 68.4426C367.921 68.259 367.746 67.9005 367.562 67.7169L366.836 66.9912C366.836 66.8812 366.699 66.7703 366.542 66.6967C366.45 66.6049 366.331 66.4854 366.183 66.3382L366.147 66.3018C366.147 66.1919 366.009 66.081 365.853 66.0083C365.761 65.9165 365.641 65.797 365.494 65.6497L365.458 65.6125C365.458 65.5025 365.32 65.3917 365.164 65.3181C365.072 65.2263 364.953 65.1068 364.806 64.9595L364.769 64.9232C364.769 64.8132 364.632 64.7023 364.475 64.6287C364.383 64.5369 364.263 64.4174 364.116 64.2702L364.08 64.2338C364.08 64.1238 363.942 64.013 363.786 63.9394C363.694 63.8476 363.575 63.7281 363.428 63.5809L363.391 63.5436C363.391 63.4336 363.254 63.3228 363.098 63.2492C363.006 63.1574 362.887 63.0379 362.739 62.8907L362.703 62.8534C362.703 62.7434 362.565 62.6326 362.409 62.559C362.318 62.4672 362.198 62.3477 362.051 62.2005L362.014 62.1641C362.014 62.0541 361.876 61.9433 361.719 61.8705C361.627 61.7787 361.508 61.6592 361.361 61.512L361.324 61.4756C361.324 61.3656 361.187 61.2548 361.031 61.1812C360.939 61.0894 360.819 60.9699 360.672 60.8227L360.636 60.7854C360.636 60.6754 360.498 60.5646 360.341 60.491L359.946 60.0961C359.946 59.9211 359.588 59.7376 359.404 59.7376C359.404 59.554 359.221 59.554 359.221 59.554C358.862 59.379 358.679 59.1954 358.32 59.0118C358.137 58.8283 357.778 58.6533 357.419 58.2861C357.236 58.2861 356.877 58.1112 356.694 58.1112C356.335 57.9276 355.793 57.9276 355.61 57.744C355.242 57.744 355.067 57.744 354.7 57.5691H353.616C353.441 57.5691 353.441 57.5691 353.257 57.5691C353.083 57.5691 352.899 57.5691 352.899 57.5691H351.631C351.448 57.744 351.089 57.744 350.905 57.744C350.363 57.9276 350.005 57.9276 349.821 58.1112C349.463 58.1112 349.279 58.2861 349.095 58.6533C348.563 58.6533 348.378 58.8283 348.011 59.0118C347.836 59.1954 347.469 59.379 347.294 59.554C347.111 59.7376 346.927 59.9211 346.385 60.0961C346.201 60.4633 346.026 60.6382 345.843 60.8218C345.659 61.0054 345.659 61.1803 345.484 61.1803L278.579 144.367C275.336 148.455 275.639 154.161 279.479 157.671C279.691 157.919 279.92 158.149 280.169 158.36C280.38 158.608 280.61 158.838 280.858 159.05C281.069 159.297 281.299 159.528 281.547 159.739C281.759 159.987 281.988 160.217 282.237 160.428C282.448 160.676 282.678 160.906 282.926 161.118C283.137 161.365 283.367 161.596 283.615 161.807C283.827 162.055 284.056 162.285 284.305 162.496C284.516 162.744 284.746 162.974 284.994 163.186C285.205 163.433 285.435 163.664 285.683 163.875C286.097 164.343 286.575 164.784 287.099 165.18C288.908 166.806 291.077 167.348 293.245 167.348H343.318V174.203C343.318 177.189 344.55 179.826 346.553 181.626C346.562 181.636 346.571 181.636 346.571 181.644C346.782 181.883 347.012 182.104 347.241 182.316L347.269 182.343C347.48 182.573 347.701 182.794 347.931 183.005C347.94 183.014 347.949 183.014 347.949 183.023C348.16 183.262 348.39 183.482 348.62 183.693L348.648 183.721C348.859 183.951 349.08 184.171 349.309 184.383C349.319 184.392 349.328 184.392 349.328 184.401C349.539 184.64 349.768 184.861 349.998 185.072L350.026 185.1C350.237 185.329 350.458 185.55 350.687 185.761C350.697 185.77 350.705 185.77 350.705 185.78C350.917 186.019 351.146 186.239 351.377 186.45L351.404 186.478C351.616 186.707 351.836 186.928 352.066 187.139C352.075 187.149 352.084 187.149 352.084 187.157C352.295 187.396 352.525 187.617 352.754 187.828L352.782 187.855C354.582 189.831 357.183 191.043 360.151 191.043C365.756 191.043 370.092 186.697 370.092 181.093V167.348H371.902C377.515 167.348 382.036 163.011 382.036 157.407C382.035 154.532 380.757 151.904 378.727 150.076ZM343.318 111.349V140.576H319.769L343.318 111.349Z" fill="#25B491"/>
<path opacity="0.1" d="M378.727 150.076C378.727 150.067 378.727 150.067 378.718 150.067C378.497 149.828 378.268 149.598 378.038 149.387C378.038 149.378 378.038 149.378 378.029 149.378C377.808 149.139 377.578 148.91 377.349 148.698C377.349 148.689 377.349 148.689 377.339 148.689C377.119 148.45 376.889 148.22 376.659 148.009C376.659 147.999 376.659 147.999 376.65 147.999C376.429 147.76 376.2 147.531 375.97 147.32C375.97 147.311 375.97 147.311 375.961 147.311C375.74 147.072 375.51 146.842 375.281 146.631C375.281 146.622 375.281 146.622 375.271 146.622C375.051 146.383 374.821 146.153 374.591 145.942C374.591 145.932 374.591 145.932 374.582 145.932C374.361 145.693 374.132 145.464 373.902 145.252C373.902 145.243 373.902 145.243 373.893 145.243C373.673 145.004 373.443 144.774 373.214 144.563C373.214 144.554 373.214 144.554 373.204 144.554C372.983 144.315 372.754 144.085 372.524 143.874C372.524 143.864 372.524 143.864 372.515 143.864C371.817 143.101 370.999 142.441 370.089 141.925V73.8638C370.089 73.5052 369.914 73.3216 369.914 72.9631C369.914 72.421 369.914 72.2374 369.731 71.8789C369.731 71.6953 369.556 71.3368 369.556 71.1532C369.372 70.6111 369.372 70.4275 369.188 70.0689C369.013 69.8853 368.83 69.5268 368.83 69.3432C368.471 68.8011 368.288 68.6175 368.104 68.4426C367.921 68.259 367.746 67.9005 367.562 67.7169L366.836 66.9912C366.836 66.8812 366.699 66.7703 366.542 66.6967C366.45 66.6049 366.331 66.4854 366.183 66.3382L366.147 66.3018C366.147 66.1919 366.009 66.081 365.853 66.0083C365.761 65.9165 365.641 65.797 365.494 65.6497L365.458 65.6125C365.458 65.5025 365.32 65.3917 365.164 65.3181C365.072 65.2263 364.953 65.1068 364.806 64.9595L364.769 64.9232C364.769 64.8132 364.632 64.7023 364.475 64.6287C364.383 64.5369 364.263 64.4174 364.116 64.2702L364.08 64.2338C364.08 64.1238 363.942 64.013 363.786 63.9394C363.694 63.8476 363.575 63.7281 363.428 63.5809L363.391 63.5436C363.391 63.4336 363.254 63.3228 363.098 63.2492C363.006 63.1574 362.887 63.0379 362.739 62.8907L362.703 62.8534C362.703 62.7434 362.565 62.6326 362.409 62.559C362.318 62.4672 362.198 62.3477 362.051 62.2005L362.014 62.1641C362.014 62.0541 361.876 61.9433 361.719 61.8705C361.627 61.7787 361.508 61.6592 361.361 61.512L361.324 61.4756C361.324 61.3656 361.187 61.2548 361.031 61.1812C360.939 61.0894 360.819 60.9699 360.672 60.8227L360.636 60.7854C360.636 60.6754 360.498 60.5646 360.341 60.491L359.946 60.0961C359.946 59.9211 359.588 59.7376 359.404 59.7376C359.404 59.554 359.221 59.554 359.221 59.554C358.862 59.379 358.679 59.1954 358.32 59.0118C358.137 58.8283 357.778 58.6533 357.419 58.2861C357.236 58.2861 356.877 58.1112 356.694 58.1112C356.335 57.9276 355.793 57.9276 355.61 57.744C355.242 57.744 355.067 57.744 354.7 57.5691H353.616C353.441 57.5691 353.441 57.5691 353.257 57.5691C353.083 57.5691 352.899 57.5691 352.899 57.5691H351.631C351.448 57.744 351.089 57.744 350.905 57.744C350.363 57.9276 350.005 57.9276 349.821 58.1112C349.463 58.1112 349.279 58.2861 349.095 58.6533C348.563 58.6533 348.378 58.8283 348.011 59.0118C347.836 59.1954 347.469 59.379 347.294 59.554C347.111 59.7376 346.927 59.9211 346.385 60.0961C346.201 60.4633 346.026 60.6382 345.843 60.8218C345.659 61.0054 345.659 61.1803 345.484 61.1803L278.579 144.367C275.336 148.455 275.639 154.161 279.479 157.671C279.691 157.919 279.92 158.149 280.169 158.36C280.38 158.608 280.61 158.838 280.858 159.05C281.069 159.297 281.299 159.528 281.547 159.739C281.759 159.987 281.988 160.217 282.237 160.428C282.448 160.676 282.678 160.906 282.926 161.118C283.137 161.365 283.367 161.596 283.615 161.807C283.827 162.055 284.056 162.285 284.305 162.496C284.516 162.744 284.746 162.974 284.994 163.186C285.205 163.433 285.435 163.664 285.683 163.875C286.097 164.343 286.575 164.784 287.099 165.18C288.908 166.806 291.077 167.348 293.245 167.348H343.318V174.203C343.318 177.189 344.55 179.826 346.553 181.626C346.562 181.636 346.571 181.636 346.571 181.644C346.782 181.883 347.012 182.104 347.241 182.316L347.269 182.343C347.48 182.573 347.701 182.794 347.931 183.005C347.94 183.014 347.949 183.014 347.949 183.023C348.16 183.262 348.39 183.482 348.62 183.693L348.648 183.721C348.859 183.951 349.08 184.171 349.309 184.383C349.319 184.392 349.328 184.392 349.328 184.401C349.539 184.64 349.768 184.861 349.998 185.072L350.026 185.1C350.237 185.329 350.458 185.55 350.687 185.761C350.697 185.77 350.705 185.77 350.705 185.78C350.917 186.019 351.146 186.239 351.377 186.45L351.404 186.478C351.616 186.707 351.836 186.928 352.066 187.139C352.075 187.149 352.084 187.149 352.084 187.157C352.295 187.396 352.525 187.617 352.754 187.828L352.782 187.855C354.582 189.831 357.183 191.043 360.151 191.043C365.756 191.043 370.092 186.697 370.092 181.093V167.348H371.902C377.515 167.348 382.036 163.011 382.036 157.407C382.035 154.532 380.757 151.904 378.727 150.076ZM343.318 111.349V140.576H319.769L343.318 111.349Z" fill="black"/>
<path d="M375.14 150.516C375.14 156.122 370.62 160.461 365.013 160.461H363.203V174.205C363.203 179.81 358.864 184.15 353.261 184.15C347.655 184.15 343.315 179.81 343.315 174.205V160.461H286.715H286.534H286.353C284.182 160.461 282.014 159.919 280.204 158.291C275.683 154.856 275.14 148.708 278.579 144.368L345.483 61.1874C345.664 61.1874 345.664 61.0064 345.845 60.8262C346.026 60.6452 346.207 60.4642 346.388 60.1023C346.931 59.9213 347.112 59.7411 347.293 59.5601C347.474 59.3791 347.836 59.1982 348.017 59.0172C348.379 58.8362 348.56 58.6552 349.099 58.6552C349.28 58.294 349.461 58.1131 349.823 58.1131C350.004 57.9321 350.366 57.9321 350.909 57.7511C351.09 57.7511 351.452 57.7511 351.633 57.5701C351.995 57.5701 352.538 57.5701 352.899 57.5701C352.899 57.5701 353.08 57.5701 353.261 57.5701C353.442 57.5701 353.442 57.5701 353.619 57.5701C353.981 57.5701 354.524 57.5701 354.705 57.5701C355.067 57.7511 355.248 57.7511 355.61 57.7511C355.791 57.9321 356.334 57.9321 356.696 58.1131C356.877 58.1131 357.239 58.294 357.42 58.294C357.782 58.6552 358.14 58.8362 358.321 59.0172C358.683 59.1982 358.864 59.3791 359.226 59.5601C359.226 59.5601 359.407 59.5601 359.407 59.7411C359.588 59.7411 359.95 59.9213 359.95 60.1023C360.312 60.4642 360.493 60.6452 360.674 60.8262C360.855 61.0064 361.036 61.3683 361.217 61.5493C361.398 61.7303 361.579 61.9113 361.941 62.4534C361.941 62.6344 362.122 62.9964 362.303 63.1774C362.484 63.5385 362.484 63.7195 362.665 64.2625C362.665 64.4426 362.841 64.8046 362.841 64.9856C363.022 65.3476 363.022 65.5277 363.022 66.0707C363.022 66.4327 363.203 66.6137 363.203 66.9748C363.203 67.1558 363.203 67.3368 363.203 67.5178V140.572H365.013C370.619 140.571 375.14 145.091 375.14 150.516ZM343.315 95.9062L307.326 140.571H343.315V95.9062Z" fill="#25B491"/>
<path d="M159.89 393.505H158.204V396.48C158.204 396.891 157.861 397.233 157.437 397.233C157.026 397.233 156.684 396.891 156.684 396.48V388.393C156.684 387.968 157.027 387.64 157.437 387.64H157.451H159.89C161.522 387.64 162.837 388.955 162.837 390.587C162.838 392.19 161.522 393.505 159.89 393.505ZM158.205 391.984H159.891C160.686 391.984 161.303 391.353 161.317 390.585C161.303 389.79 160.686 389.16 159.891 389.16H158.205V391.984Z" fill="#263238"/>
<path d="M168.606 394.972H165.276L164.605 396.754C164.481 397.055 164.193 397.233 163.892 397.233C163.797 397.233 163.714 397.22 163.631 397.192C163.234 397.041 163.041 396.602 163.179 396.205L166.208 388.132C166.332 387.83 166.634 387.638 166.935 387.652C167.25 387.638 167.538 387.83 167.661 388.132L170.691 396.205C170.828 396.602 170.636 397.04 170.239 397.192C170.17 397.22 170.074 397.233 169.978 397.233C169.677 397.233 169.389 397.055 169.279 396.754L168.606 394.972ZM168.044 393.464L166.934 390.517L165.824 393.464H168.044Z" fill="#263238"/>
<path d="M171.702 392.313C171.702 389.558 173.977 387.365 176.76 387.365C177.925 387.365 179.035 387.762 179.885 388.434C180.241 388.695 180.296 389.201 180.036 389.544C179.775 389.873 179.268 389.942 178.925 389.667C178.337 389.215 177.582 388.927 176.76 388.927C175.772 388.927 174.909 389.297 174.292 389.928C173.648 390.544 173.264 391.38 173.264 392.313C173.264 393.218 173.648 394.053 174.292 394.67C174.909 395.301 175.772 395.67 176.76 395.67C177.445 395.67 178.089 395.464 178.637 395.149V393.271H176.677C176.252 393.271 175.896 392.916 175.896 392.49C175.896 392.051 176.252 391.723 176.677 391.723H179.378C179.391 391.723 179.391 391.723 179.391 391.723C179.405 391.723 179.405 391.723 179.405 391.723C179.844 391.723 180.2 392.052 180.2 392.49V395.52C180.2 395.616 180.172 395.67 180.159 395.753C180.145 395.78 180.145 395.794 180.132 395.821V395.835C180.09 395.959 180.008 396.068 179.871 396.164C179.008 396.836 177.925 397.233 176.76 397.233C173.977 397.233 171.702 395.054 171.702 392.313Z" fill="#263238"/>
<path d="M183.282 396.479V388.392C183.282 387.967 183.611 387.639 184.036 387.639H184.05C184.05 387.639 184.05 387.639 184.077 387.639H188.518C188.916 387.639 189.271 387.968 189.271 388.392C189.271 388.818 188.916 389.16 188.518 389.16H184.804V391.668H187.998C188.409 391.668 188.751 392.024 188.751 392.422C188.751 392.847 188.408 393.189 187.998 393.189H184.804V395.711H188.518C188.916 395.711 189.271 396.054 189.271 396.479C189.271 396.89 188.916 397.232 188.518 397.232H184.077C184.05 397.232 184.05 397.219 184.05 397.219L184.036 397.232C183.611 397.233 183.282 396.89 183.282 396.479Z" fill="#263238"/>
<path d="M197.026 396.479C197.026 396.891 196.683 397.233 196.287 397.233C195.862 397.233 195.533 396.89 195.533 396.479V388.515C195.533 388.515 195.533 388.515 195.533 388.502C195.52 388.269 195.629 388.022 195.835 387.871C196.178 387.638 196.644 387.707 196.877 388.036L201.304 394.163V388.515C201.304 388.118 201.633 387.776 202.044 387.776C202.455 387.776 202.797 388.119 202.797 388.515V396.479C202.797 396.891 202.454 397.233 202.044 397.233C201.825 397.233 201.619 397.123 201.482 396.959C201.454 396.931 201.427 396.904 201.414 396.877L197.027 390.791V396.479H197.026Z" fill="#263238"/>
<path d="M212.965 388.832C213.815 389.736 214.35 390.942 214.35 392.299C214.35 393.656 213.815 394.875 212.965 395.766C212.156 396.658 210.951 397.233 209.689 397.233C208.374 397.233 207.167 396.658 206.331 395.766C205.481 394.875 204.974 393.656 204.974 392.299C204.974 390.942 205.481 389.736 206.331 388.832C207.166 387.927 208.373 387.365 209.689 387.365C210.951 387.365 212.157 387.927 212.965 388.832ZM212.788 392.299C212.788 391.367 212.418 390.504 211.856 389.9C211.28 389.284 210.513 388.927 209.69 388.927C208.813 388.927 208.045 389.283 207.469 389.9C206.894 390.503 206.538 391.366 206.538 392.299C206.538 393.231 206.894 394.094 207.469 394.684C208.045 395.301 208.813 395.671 209.69 395.671C210.513 395.671 211.28 395.301 211.856 394.684C212.417 394.094 212.788 393.231 212.788 392.299Z" fill="#263238"/>
<path d="M222.16 389.16H219.981V396.479C219.981 396.904 219.652 397.232 219.227 397.232C218.816 397.232 218.473 396.903 218.473 396.479V389.16H216.307C215.882 389.16 215.553 388.804 215.553 388.392C215.553 387.967 215.882 387.639 216.307 387.639H222.159C222.571 387.639 222.914 387.968 222.914 388.392C222.914 388.804 222.572 389.16 222.16 389.16Z" fill="#263238"/>
<path d="M229.285 396.479V388.392C229.285 387.981 229.613 387.639 230.039 387.639H230.052C230.052 387.639 230.052 387.639 230.08 387.639H234.521C234.918 387.639 235.274 387.982 235.274 388.392C235.274 388.818 234.918 389.16 234.521 389.16H230.806V391.668H234C234.411 391.668 234.754 392.024 234.754 392.422C234.754 392.847 234.411 393.189 234 393.189H230.806V396.479C230.806 396.89 230.463 397.232 230.039 397.232C229.614 397.232 229.285 396.89 229.285 396.479Z" fill="#263238"/>
<path d="M244.868 388.832C245.717 389.736 246.252 390.942 246.252 392.299C246.252 393.656 245.718 394.875 244.868 395.766C244.059 396.658 242.852 397.233 241.591 397.233C240.276 397.233 239.07 396.658 238.234 395.766C237.384 394.875 236.877 393.656 236.877 392.299C236.877 390.942 237.384 389.736 238.234 388.832C239.07 387.927 240.276 387.365 241.591 387.365C242.852 387.365 244.058 387.927 244.868 388.832ZM244.689 392.299C244.689 391.367 244.319 390.504 243.757 389.9C243.181 389.284 242.413 388.927 241.591 388.927C240.714 388.927 239.947 389.283 239.371 389.9C238.795 390.503 238.439 391.366 238.439 392.299C238.439 393.231 238.795 394.094 239.371 394.684C239.947 395.301 240.714 395.671 241.591 395.671C242.414 395.671 243.181 395.301 243.757 394.684C244.319 394.094 244.689 393.231 244.689 392.299Z" fill="#263238"/>
<path d="M252.308 397.233C250.101 397.233 248.347 395.451 248.347 393.272V388.393C248.347 387.968 248.675 387.64 249.1 387.64C249.511 387.64 249.867 387.969 249.867 388.393V393.272C249.867 394.616 250.964 395.712 252.308 395.712C253.665 395.712 254.747 394.616 254.747 393.272V388.393C254.747 387.968 255.09 387.64 255.515 387.64C255.94 387.64 256.269 387.969 256.269 388.393V393.272C256.269 395.451 254.5 397.233 252.308 397.233Z" fill="#263238"/>
<path d="M260.79 396.479C260.79 396.891 260.447 397.233 260.049 397.233C259.624 397.233 259.295 396.89 259.295 396.479V388.515C259.295 388.515 259.295 388.515 259.295 388.502C259.282 388.269 259.391 388.022 259.596 387.871C259.939 387.638 260.404 387.707 260.638 388.036L265.065 394.163V388.515C265.065 388.118 265.394 387.776 265.805 387.776C266.216 387.776 266.559 388.119 266.559 388.515V396.479C266.559 396.891 266.216 397.233 265.805 397.233C265.586 397.233 265.38 397.123 265.243 396.959C265.215 396.931 265.188 396.904 265.174 396.877L260.788 390.791V396.479H260.79Z" fill="#263238"/>
<path d="M269.162 396.479V388.392C269.162 387.967 269.49 387.639 269.916 387.639H271.533C274.179 387.639 276.317 389.791 276.317 392.423C276.317 395.081 274.179 397.233 271.533 397.233H269.916C269.49 397.233 269.162 396.89 269.162 396.479ZM270.683 395.712H271.532C273.341 395.698 274.795 394.246 274.795 392.423C274.795 390.627 273.341 389.16 271.532 389.16H270.683V395.712Z" fill="#263238"/>
<path opacity="0.2" d="M222.241 337.846C227.325 337.846 231.446 333.725 231.446 328.641C231.446 323.557 227.325 319.435 222.241 319.435C217.157 319.435 213.035 323.557 213.035 328.641C213.035 333.725 217.157 337.846 222.241 337.846Z" fill="#25B491"/>
<path opacity="0.2" d="M222.241 337.805C226.146 337.805 229.311 334.639 229.311 330.735C229.311 326.83 226.146 323.665 222.241 323.665C218.336 323.665 215.171 326.83 215.171 330.735C215.171 334.639 218.336 337.805 222.241 337.805Z" fill="#25B491"/>
<path d="M222.873 337.784C222.873 337.784 217.257 336.963 216.921 337.18C216.584 337.396 216.279 339.034 216.957 339.432C217.635 339.831 222.783 339.106 222.783 339.106C222.783 339.106 223.339 338.614 222.873 337.784Z" fill="#25B491"/>
<path opacity="0.49" d="M222.873 337.784C222.873 337.784 217.257 336.963 216.921 337.18C216.584 337.396 216.279 339.034 216.957 339.432C217.635 339.831 222.783 339.106 222.783 339.106C222.783 339.106 223.339 338.614 222.873 337.784Z" fill="black"/>
<path opacity="0.2" d="M216.948 337.242C217.119 337.204 217.393 337.766 217.329 338.392C217.27 338.988 217.046 339.386 216.954 339.373C216.861 339.361 216.547 339.013 216.599 338.245C216.636 337.687 216.806 337.274 216.948 337.242Z" fill="white"/>
<g opacity="0.2">
<path d="M217.537 337.399C217.86 337.376 218.183 337.371 218.507 337.388C218.669 337.394 218.831 337.409 218.993 337.429C219.074 337.44 219.155 337.454 219.238 337.475C219.325 337.498 219.387 337.515 219.467 337.528C219.777 337.582 220.099 337.603 220.417 337.632C220.738 337.656 221.058 337.684 221.38 337.714C221.058 337.744 220.735 337.757 220.412 337.753C220.088 337.75 219.766 337.735 219.44 337.681C219.362 337.668 219.269 337.641 219.2 337.622C219.126 337.602 219.048 337.588 218.971 337.575C218.815 337.547 218.657 337.529 218.498 337.508L217.537 337.399Z" fill="black"/>
<path d="M218.175 337.698C218.403 337.731 218.63 337.77 218.855 337.813C219.079 337.853 219.303 337.902 219.525 337.931C219.74 337.961 219.968 337.944 220.196 337.939C220.424 337.93 220.653 337.924 220.885 337.922C220.662 337.983 220.435 338.03 220.206 338.06C219.978 338.089 219.746 338.115 219.505 338.085C219.271 338.051 219.049 337.996 218.827 337.931C218.604 337.866 218.387 337.789 218.175 337.698Z" fill="black"/>
<path d="M220.933 338.226C221.224 338.019 221.571 337.874 221.943 337.853C222.129 337.844 222.317 337.869 222.496 337.944C222.584 337.983 222.669 338.035 222.739 338.111C222.774 338.149 222.807 338.189 222.828 338.25C222.833 338.265 222.839 338.285 222.838 338.309C222.836 338.323 222.833 338.338 222.829 338.351C222.825 338.361 222.821 338.367 222.817 338.375C222.801 338.405 222.784 338.424 222.766 338.443C222.625 338.586 222.453 338.678 222.258 338.714C222.161 338.73 222.057 338.726 221.961 338.692C221.871 338.661 221.788 338.624 221.706 338.576C221.628 338.523 221.54 338.478 221.496 338.359C221.486 338.33 221.489 338.286 221.51 338.257C221.53 338.228 221.559 338.21 221.582 338.202C221.631 338.182 221.676 338.173 221.722 338.166C221.815 338.157 221.907 338.157 221.997 338.169C222.086 338.181 222.18 338.204 222.249 338.263C222.088 338.184 221.901 338.205 221.735 338.241C221.694 338.251 221.652 338.262 221.619 338.28C221.586 338.299 221.58 338.31 221.589 338.332C221.61 338.383 221.691 338.435 221.763 338.471C221.838 338.507 221.921 338.537 222.001 338.562C222.075 338.584 222.155 338.584 222.232 338.569C222.387 338.538 222.544 338.451 222.651 338.338C222.664 338.325 222.676 338.309 222.681 338.299L222.685 338.293C222.683 338.296 222.682 338.299 222.684 338.303C222.684 338.305 222.685 338.303 222.682 338.296C222.675 338.273 222.652 338.239 222.627 338.212C222.577 338.155 222.507 338.112 222.434 338.076C222.287 338.004 222.114 337.978 221.943 337.97C221.772 337.963 221.599 337.994 221.429 338.039C221.26 338.084 221.094 338.149 220.933 338.226Z" fill="black"/>
<path d="M222.8 338.769C222.586 338.885 222.349 338.964 222.103 338.993C221.98 339.009 221.854 339.01 221.728 339C221.602 338.986 221.476 338.951 221.361 338.911C221.127 338.827 220.913 338.702 220.704 338.591C220.496 338.48 220.274 338.4 220.033 338.356C220.276 338.338 220.529 338.383 220.755 338.481C220.982 338.575 221.191 338.688 221.413 338.765C221.631 338.851 221.856 338.88 222.093 338.873C222.328 338.864 222.565 338.829 222.8 338.769Z" fill="black"/>
<path d="M217.329 339.249C217.619 339.249 217.908 339.252 218.194 339.257C218.479 339.257 218.772 339.267 219.041 339.226C219.329 339.165 219.629 339.167 219.917 339.18C220.207 339.192 220.495 339.225 220.781 339.275L219.916 339.301C219.627 339.314 219.346 339.317 219.068 339.379C218.766 339.421 218.478 339.402 218.188 339.379C217.899 339.353 217.612 339.31 217.329 339.249Z" fill="black"/>
<path d="M221.225 339.065C220.985 339.006 220.748 338.942 220.507 338.893C220.388 338.868 220.268 338.842 220.148 338.826C220.026 338.807 219.919 338.809 219.798 338.835C219.56 338.881 219.318 338.933 219.073 338.976C218.95 338.997 218.826 339.013 218.701 339.023C218.575 339.032 218.446 339.037 218.31 339.009C218.188 338.979 218.067 338.945 217.947 338.9C217.829 338.852 217.707 338.806 217.603 338.692C217.579 338.661 217.554 338.625 217.547 338.578C217.535 338.533 217.547 338.484 217.563 338.445C217.608 338.356 217.684 338.327 217.746 338.299C217.874 338.254 218.001 338.241 218.128 338.235C218.255 338.231 218.381 338.236 218.507 338.254C218.632 338.275 218.759 338.296 218.874 338.377C218.9 338.397 218.933 338.421 218.939 338.478C218.933 338.54 218.885 338.556 218.858 338.569C218.794 338.593 218.732 338.601 218.671 338.609C218.547 338.622 218.423 338.622 218.3 338.617C218.423 338.606 218.545 338.591 218.665 338.568C218.769 338.545 218.956 338.494 218.828 338.439C218.737 338.383 218.612 338.364 218.495 338.352C218.375 338.342 218.255 338.344 218.135 338.355C218.018 338.367 217.898 338.387 217.795 338.427C217.747 338.448 217.702 338.477 217.693 338.502C217.679 338.537 217.686 338.561 217.715 338.596C217.779 338.666 217.893 338.717 218.001 338.758C218.113 338.798 218.229 338.829 218.347 338.857C218.562 338.901 218.813 338.862 219.052 338.831C219.293 338.798 219.533 338.747 219.782 338.717C219.844 338.71 219.907 338.702 219.974 338.705C220.042 338.706 220.103 338.719 220.165 338.73C220.288 338.755 220.409 338.786 220.527 338.821C220.762 338.894 220.996 338.972 221.225 339.065Z" fill="black"/>
<path d="M219.639 338.37C219.308 338.314 218.992 338.227 218.676 338.141L218.204 338.013C218.046 337.976 217.891 337.931 217.724 337.929C217.883 337.866 218.061 337.878 218.227 337.893C218.394 337.912 218.558 337.949 218.719 337.991C219.036 338.083 219.349 338.199 219.639 338.37Z" fill="black"/>
</g>
<path d="M222.097 337.749C222.097 337.749 227.722 336.989 228.057 337.209C228.391 337.43 228.679 339.07 227.997 339.461C227.314 339.852 222.174 339.07 222.174 339.07C222.174 339.07 221.622 338.573 222.097 337.749Z" fill="#25B491"/>
<path opacity="0.49" d="M222.097 337.749C222.097 337.749 227.722 336.989 228.057 337.209C228.391 337.43 228.679 339.07 227.997 339.461C227.314 339.852 222.174 339.07 222.174 339.07C222.174 339.07 221.622 338.573 222.097 337.749Z" fill="black"/>
<path opacity="0.2" d="M228.027 337.272C227.858 337.232 227.578 337.79 227.634 338.417C227.687 339.014 227.907 339.413 228 339.402C228.092 339.391 228.411 339.047 228.367 338.278C228.335 337.719 228.17 337.305 228.027 337.272Z" fill="white"/>
<g opacity="0.2">
<path d="M222.299 338.906L223.263 338.959C223.423 338.965 223.582 338.975 223.741 338.973C223.82 338.972 223.898 338.972 223.975 338.965C224.046 338.958 224.142 338.946 224.221 338.947C224.552 338.948 224.873 338.988 225.192 339.039C225.512 339.089 225.828 339.156 226.14 339.24C225.818 339.216 225.497 339.19 225.177 339.16C224.858 339.135 224.537 339.102 224.223 339.104C224.142 339.103 224.077 339.11 223.988 339.118C223.903 339.125 223.82 339.125 223.739 339.122C223.575 339.115 223.413 339.103 223.253 339.082C222.932 339.042 222.613 338.983 222.299 338.906Z" fill="black"/>
<path d="M222.884 338.889C223.103 338.816 223.325 338.756 223.551 338.709C223.778 338.662 224.004 338.623 224.239 338.609C224.482 338.597 224.711 338.641 224.937 338.688C225.163 338.735 225.385 338.8 225.602 338.879C225.372 338.859 225.143 338.835 224.917 338.808C224.691 338.785 224.464 338.751 224.248 338.765C224.025 338.776 223.797 338.807 223.571 338.83C223.344 338.855 223.114 338.875 222.884 338.889Z" fill="black"/>
<path d="M225.675 338.579C225.83 338.668 225.99 338.745 226.157 338.802C226.323 338.86 226.493 338.904 226.664 338.91C226.834 338.916 227.008 338.903 227.161 338.843C227.236 338.813 227.31 338.776 227.364 338.723C227.391 338.698 227.416 338.667 227.426 338.644C227.429 338.638 227.428 338.635 227.428 338.638C227.427 338.642 227.428 338.645 227.429 338.648L227.426 338.642C227.422 338.632 227.411 338.616 227.399 338.602C227.301 338.48 227.151 338.382 227 338.338C226.924 338.317 226.844 338.311 226.769 338.327C226.686 338.345 226.601 338.369 226.523 338.399C226.449 338.428 226.364 338.474 226.339 338.525C226.329 338.545 226.333 338.556 226.365 338.578C226.396 338.598 226.437 338.613 226.478 338.627C226.64 338.675 226.825 338.711 226.991 338.644C226.918 338.698 226.822 338.713 226.732 338.719C226.641 338.724 226.549 338.717 226.458 338.7C226.412 338.69 226.367 338.678 226.321 338.655C226.298 338.644 226.271 338.623 226.253 338.593C226.234 338.562 226.234 338.519 226.246 338.49C226.299 338.375 226.392 338.337 226.473 338.291C226.558 338.249 226.645 338.218 226.736 338.196C226.834 338.17 226.938 338.174 227.034 338.196C227.227 338.248 227.39 338.353 227.519 338.506C227.536 338.527 227.551 338.547 227.564 338.578C227.568 338.587 227.571 338.593 227.575 338.603C227.578 338.616 227.58 338.631 227.581 338.645C227.579 338.669 227.573 338.689 227.566 338.703C227.539 338.762 227.504 338.799 227.466 338.835C227.389 338.904 227.301 338.95 227.209 338.982C227.026 339.043 226.835 339.054 226.651 339.03C226.284 338.98 225.949 338.808 225.675 338.579Z" fill="black"/>
<path d="M227.58 338.183C227.351 338.105 227.117 338.051 226.884 338.024C226.648 337.998 226.422 338.01 226.197 338.079C225.97 338.138 225.754 338.235 225.518 338.31C225.284 338.39 225.029 338.415 224.789 338.377C225.032 338.353 225.259 338.29 225.476 338.196C225.692 338.101 225.915 337.994 226.155 337.928C226.273 337.897 226.402 337.872 226.528 337.868C226.654 337.867 226.78 337.879 226.901 337.904C227.145 337.954 227.376 338.05 227.58 338.183Z" fill="black"/>
<path d="M224.215 337.645C224.498 337.583 224.785 337.539 225.074 337.512C225.364 337.487 225.652 337.467 225.954 337.508C226.231 337.569 226.513 337.571 226.802 337.582L227.667 337.606C227.381 337.656 227.093 337.69 226.803 337.704C226.516 337.718 226.216 337.721 225.928 337.661C225.658 337.621 225.366 337.633 225.081 337.634C224.793 337.639 224.504 337.643 224.215 337.645Z" fill="black"/>
<path d="M226.031 337.765C225.796 337.84 225.557 337.9 225.315 337.955C225.194 337.98 225.072 338.003 224.947 338.017C224.884 338.024 224.822 338.031 224.754 338.028C224.687 338.025 224.625 338.012 224.563 338C224.318 337.951 224.083 337.881 223.844 337.83C223.61 337.78 223.362 337.72 223.144 337.748C223.024 337.766 222.906 337.789 222.792 337.82C222.681 337.852 222.564 337.895 222.495 337.959C222.462 337.992 222.455 338.015 222.465 338.051C222.472 338.077 222.513 338.109 222.561 338.134C222.661 338.182 222.778 338.211 222.895 338.232C223.013 338.253 223.133 338.263 223.253 338.263C223.371 338.261 223.497 338.251 223.592 338.202C223.723 338.157 223.541 338.091 223.438 338.061C223.321 338.029 223.2 338.004 223.079 337.983C223.202 337.987 223.326 337.998 223.448 338.021C223.509 338.033 223.57 338.046 223.631 338.075C223.657 338.089 223.704 338.109 223.705 338.172C223.695 338.228 223.66 338.249 223.632 338.267C223.511 338.339 223.382 338.349 223.256 338.36C223.13 338.369 223.004 338.365 222.878 338.35C222.752 338.335 222.626 338.312 222.501 338.256C222.442 338.224 222.369 338.19 222.331 338.098C222.317 338.058 222.31 338.009 222.325 337.964C222.336 337.918 222.364 337.883 222.39 337.855C222.502 337.749 222.628 337.713 222.75 337.674C222.873 337.638 222.997 337.614 223.12 337.594C223.258 337.576 223.386 337.591 223.511 337.61C223.636 337.629 223.758 337.655 223.878 337.686C224.119 337.747 224.355 337.818 224.59 337.883C224.709 337.919 224.815 337.929 224.938 337.919C225.059 337.912 225.18 337.895 225.302 337.879C225.546 337.85 225.788 337.806 226.031 337.765Z" fill="black"/>
<path d="M224.396 338.334C224.094 338.482 223.773 338.573 223.447 338.639C223.283 338.668 223.117 338.692 222.949 338.698C222.783 338.701 222.604 338.698 222.45 338.623C222.617 338.634 222.775 338.602 222.936 338.576L223.417 338.486C223.741 338.427 224.062 338.363 224.396 338.334Z" fill="black"/>
<path d="M225.896 338.945C226.152 339.027 226.394 339.109 226.642 339.166C226.765 339.198 226.891 339.217 227.016 339.236C227.144 339.254 227.271 339.257 227.407 339.267C227.284 339.321 227.148 339.353 227.012 339.357C226.876 339.363 226.738 339.349 226.607 339.317C226.475 339.284 226.346 339.239 226.226 339.177C226.106 339.115 225.992 339.041 225.896 338.945Z" fill="black"/>
</g>
<path d="M226.782 325.829C226.782 325.926 226.86 326.004 226.957 326.004C227.053 326.004 227.131 325.926 227.131 325.829C227.131 325.733 227.053 325.655 226.957 325.655C226.86 325.655 226.782 325.733 226.782 325.829Z" fill="#25B491"/>
<path d="M224.916 318.343C224.916 318.439 224.994 318.517 225.091 318.517C225.187 318.517 225.265 318.439 225.265 318.343C225.265 318.247 225.187 318.168 225.091 318.168C224.994 318.168 224.916 318.247 224.916 318.343Z" fill="#25B491"/>
<path d="M218.252 324.692C218.328 324.751 218.438 324.736 218.497 324.66C218.556 324.583 218.541 324.474 218.465 324.415C218.388 324.356 218.279 324.371 218.22 324.447C218.161 324.523 218.176 324.633 218.252 324.692Z" fill="#25B491"/>
<path d="M216.689 335.338C216.689 335.435 216.768 335.513 216.864 335.513C216.96 335.513 217.038 335.435 217.038 335.338C217.038 335.242 216.96 335.164 216.864 335.164C216.768 335.164 216.689 335.242 216.689 335.338Z" fill="#25B491"/>
<path d="M227.586 334.157C227.586 334.253 227.664 334.331 227.76 334.331C227.857 334.331 227.935 334.253 227.935 334.157C227.935 334.061 227.857 333.982 227.76 333.982C227.664 333.982 227.586 334.06 227.586 334.157Z" fill="#25B491"/>
<path d="M226.547 326.968C226.547 327.098 226.653 327.204 226.782 327.204C226.912 327.204 227.018 327.098 227.018 326.968C227.018 326.838 226.912 326.732 226.782 326.732C226.653 326.732 226.547 326.838 226.547 326.968Z" fill="#25B491"/>
<path d="M219.198 322.737C219.301 322.817 219.449 322.798 219.529 322.694C219.609 322.591 219.59 322.443 219.486 322.363C219.383 322.284 219.235 322.303 219.155 322.407C219.076 322.511 219.095 322.659 219.198 322.737Z" fill="#25B491"/>
<path d="M217.136 331.467C217.136 331.597 217.241 331.702 217.371 331.702C217.501 331.702 217.607 331.597 217.607 331.467C217.607 331.337 217.501 331.231 217.371 331.231C217.241 331.231 217.136 331.337 217.136 331.467Z" fill="#25B491"/>
<path d="M226.172 326.631C226.172 326.688 226.218 326.734 226.274 326.734C226.331 326.734 226.377 326.688 226.377 326.631C226.377 326.575 226.331 326.529 226.274 326.529C226.218 326.529 226.172 326.575 226.172 326.631Z" fill="#25B491"/>
<path d="M227.145 330.041C227.202 330.041 227.248 329.995 227.248 329.939C227.248 329.882 227.202 329.836 227.145 329.836C227.089 329.836 227.043 329.882 227.043 329.939C227.043 329.995 227.089 330.041 227.145 330.041Z" fill="#25B491"/>
<path d="M228.377 333.22C228.377 333.276 228.423 333.322 228.479 333.322C228.536 333.322 228.582 333.276 228.582 333.22C228.582 333.163 228.536 333.117 228.479 333.117C228.423 333.117 228.377 333.163 228.377 333.22Z" fill="#25B491"/>
<path d="M216.793 330.735C216.793 330.792 216.839 330.838 216.895 330.838C216.952 330.838 216.998 330.792 216.998 330.735C216.998 330.679 216.952 330.633 216.895 330.633C216.839 330.633 216.793 330.679 216.793 330.735Z" fill="#25B491"/>
<path d="M227.555 323.396C227.555 323.452 227.601 323.498 227.657 323.498C227.714 323.498 227.76 323.452 227.76 323.396C227.76 323.339 227.714 323.293 227.657 323.293C227.601 323.293 227.555 323.339 227.555 323.396Z" fill="#25B491"/>
<path d="M222.953 322.552C223.01 322.552 223.055 322.506 223.055 322.449C223.055 322.393 223.01 322.347 222.953 322.347C222.896 322.347 222.851 322.393 222.851 322.449C222.851 322.506 222.896 322.552 222.953 322.552Z" fill="#25B491"/>
<path d="M222.184 321.012C222.241 321.012 222.287 320.966 222.287 320.91C222.287 320.853 222.241 320.807 222.184 320.807C222.128 320.807 222.082 320.853 222.082 320.91C222.082 320.966 222.128 321.012 222.184 321.012Z" fill="#25B491"/>
<path d="M218.661 338.029C219.389 338.489 222.009 338.828 222.009 338.828L222.695 338.839C222.695 338.839 224.408 338.429 224.655 338.346C224.901 338.264 225.491 338.527 225.762 338.346C226.033 338.166 227.335 336.986 227.423 336.64C227.512 336.295 226.983 335.046 226.968 334.801C226.953 334.555 227.313 333.061 227.347 332.568C227.38 332.075 225.918 329.632 225.787 329.237C225.655 328.841 226.21 327.396 226.21 327.396C226.21 327.396 225.002 328.661 225.042 328.956C225.08 329.251 225.631 329.941 225.659 330.155C225.688 330.368 224.912 331.894 224.939 332.107C224.966 332.321 225.315 333.027 225.281 333.339C225.281 333.339 225.102 332.617 224.73 332.387C224.359 332.157 223.982 331.977 223.817 331.829C223.654 331.681 223.215 330.433 223.254 330.286C223.292 330.138 223.636 329.747 223.587 329.237C223.538 328.726 222.446 326.969 222.446 326.969C222.446 326.969 222.637 327.939 222.446 328.168C222.257 328.397 221.567 328.759 221.502 328.94C221.437 329.121 222.126 329.909 222.044 330.106C221.961 330.303 220.409 330.614 220.249 330.828C220.089 331.041 219.663 332.668 219.778 332.98C219.893 333.291 220.27 334.473 220.057 334.704C219.844 334.934 219.383 335.033 219.368 334.934C219.351 334.835 219.648 334.097 219.531 333.638C219.417 333.178 218.924 332.176 218.891 331.929C218.858 331.683 219.192 330.441 219.329 330.15C219.466 329.86 218.377 331.683 218.316 332.165C218.257 332.645 218.628 334.206 218.584 334.239C218.541 334.272 218.362 334.085 218.31 333.987C218.257 333.888 218.31 333.084 218.31 333.084C218.31 333.084 217.687 333.812 217.615 334.129C217.544 334.447 217.905 335.224 217.851 335.487C217.796 335.749 217.518 336.357 217.484 336.707C217.451 337.054 218.4 337.863 218.661 338.029ZM226.093 335.681C226.068 335.999 225.722 336.699 225.689 336.727C225.689 336.727 225.766 336.212 225.771 336.01C225.777 335.807 225.657 335.626 225.542 335.222C225.426 334.817 225.799 334.297 225.799 334.297C225.799 334.297 226.126 335.265 226.093 335.681ZM224.643 338.084C224.643 338.084 225.064 337.723 225.272 337.532C225.481 337.341 226.098 337.067 226.21 336.88C226.322 336.695 226.498 335.802 226.498 335.802C226.498 335.802 226.656 336.705 226.581 336.996C226.504 337.285 225.793 337.926 225.562 338.047C225.333 338.166 224.643 338.084 224.643 338.084ZM220.061 335.356C220.037 335.399 219.717 335.994 219.701 336.294C219.685 336.605 219.865 336.995 219.997 337.197C220.128 337.4 220.27 337.924 220.27 337.924C220.27 337.924 219.543 337.585 219.417 337.049C219.294 336.529 220.019 335.419 220.061 335.356Z" fill="#25B491"/>
<path d="M224.985 327.706C224.985 327.706 225.739 327.17 225.761 326.764C225.784 326.359 225.29 325.516 225.339 325.188C225.39 324.86 225.556 324.553 225.556 324.553C225.556 324.553 224.758 325.101 224.762 325.549C224.765 325.998 225.236 326.71 225.192 326.929C225.149 327.147 224.985 327.706 224.985 327.706Z" fill="#25B491"/>
<path d="M220.483 330.17C220.483 330.17 220.658 329.637 220.633 329.426C220.608 329.216 220.357 328.936 220.357 328.936C220.357 328.936 220.157 329.147 220.256 329.489C220.355 329.831 220.483 330.17 220.483 330.17Z" fill="#25B491"/>
<path d="M218.619 330.079C218.664 330.03 218.993 329.454 219.051 328.935C219.108 328.417 218.833 327.764 218.739 327.596C218.644 327.428 218.246 327.202 218.246 327.202C218.246 327.202 218.517 327.629 218.525 327.822C218.533 328.015 218.39 328.614 218.369 328.848C218.348 329.083 218.619 330.079 218.619 330.079Z" fill="#25B491"/>
<path d="M223.512 326.968C223.512 326.968 224.079 326.196 223.972 325.696C223.866 325.195 223.426 324.542 223.258 324.374C223.089 324.205 222.675 323.808 222.502 323.537C222.33 323.266 222.321 322.281 222.502 322.034C222.683 321.788 222.995 321.638 222.995 321.638C222.995 321.638 222.224 321.599 221.731 322.289C221.238 322.978 220.606 325.655 220.902 326.262C221.197 326.87 222.027 327.469 222.027 327.469C222.027 327.469 221.805 326.41 221.879 326.148C221.953 325.885 222.741 326.147 222.938 326.307C223.135 326.467 223.512 326.968 223.512 326.968Z" fill="#25B491"/>
<path d="M224.815 330.753C224.815 330.753 225.163 330.392 225.089 330.08C225.015 329.768 224.572 329.3 224.547 329.153C224.522 329.005 224.649 328.405 224.649 328.405C224.649 328.405 224.201 329.251 224.3 329.514C224.399 329.776 224.489 330.17 224.489 330.17C224.489 330.17 224.291 330.039 224.25 329.932C224.209 329.826 224.168 329.645 224.168 329.645C224.168 329.645 223.831 330.064 223.938 330.359C224.044 330.654 224.627 331.221 224.627 331.221C224.627 331.221 224.611 331.048 224.618 330.95C224.63 330.851 224.692 330.908 224.815 330.753Z" fill="#25B491"/>
<g opacity="0.4">
<path d="M222.406 338.829C222.406 338.829 224.459 338.09 224.916 337.04C225.203 336.381 224.429 335.034 224.363 334.82C224.297 334.606 224.383 333.785 224.275 333.457C224.167 333.129 222.714 332.267 222.586 332.041C222.459 331.815 222.84 330.912 222.84 330.912C222.84 330.912 221.736 331.804 221.572 332.31C221.409 332.816 222.064 333.801 222.056 333.982C222.048 334.163 221.671 334.697 221.671 334.697C221.671 334.697 221.379 334.326 221.369 333.982C221.358 333.637 221.528 333.459 221.493 333.22C221.457 332.981 221.012 332.521 221.012 332.521C221.012 332.521 221.243 332.933 221.128 333.22C221.013 333.506 220.454 334.064 220.536 334.507C220.619 334.951 221.275 335.969 221.218 336.248C221.161 336.527 221.012 336.726 221.012 336.726C221.012 336.726 220.833 336.31 220.775 336.032C220.718 335.754 220.658 335.385 220.658 335.385C220.658 335.385 220.321 337.207 220.667 337.721C221.014 338.235 222.406 338.829 222.406 338.829Z" fill="white"/>
<path d="M222.952 326.129C222.968 326.097 223.189 325.6 223.198 325.329C223.206 325.058 222.714 324.697 222.492 324.492C222.27 324.287 221.794 323.622 221.836 323.277C221.876 322.932 221.928 322.669 221.928 322.669C221.928 322.669 221.244 324.623 221.285 325.238C221.326 325.854 221.688 326.248 221.688 326.248C221.688 326.248 221.818 325.655 222.106 325.673C222.491 325.699 222.952 326.129 222.952 326.129Z" fill="white"/>
<path d="M225.162 327.436C225.162 327.436 225.6 327.026 225.595 326.752C225.589 326.479 225.162 325.718 225.162 325.718C225.162 325.718 225.346 326.61 225.379 326.785C225.412 326.96 225.162 327.436 225.162 327.436Z" fill="white"/>
<path d="M220.093 338.185C220.093 338.185 219.201 337.63 219.04 337.485C218.878 337.339 218.631 336.555 218.647 336.399C218.664 336.243 218.951 335.547 218.951 335.355C218.951 335.164 218.368 334.482 218.368 334.482C218.368 334.482 218.557 335.128 218.524 335.286C218.491 335.443 217.732 336.346 217.779 336.683C217.827 337.02 218.549 337.628 218.757 337.764C218.965 337.901 220.093 338.185 220.093 338.185Z" fill="white"/>
<path d="M226.377 334.595C226.377 334.595 226.968 333.063 226.914 332.658C226.859 332.253 226.172 330.721 226.172 330.721C226.172 330.721 226.222 332.028 226.278 332.234C226.334 332.439 226.172 333.063 226.172 333.063C226.172 333.063 225.961 332.615 225.923 332.45C225.885 332.286 226.041 331.651 226.041 331.651C226.041 331.651 225.612 332.786 225.71 333.22C225.809 333.654 226.377 334.595 226.377 334.595Z" fill="white"/>
</g>
</svg>
