<svg width="500" height="500" viewBox="0 0 500 500" fill="none" xmlns="http://www.w3.org/2000/svg">
<path d="M500 382.398H0V382.648H500V382.398Z" fill="#EBEBEB"/>
<path d="M449.901 398.492H416.779V398.742H449.901V398.492Z" fill="#EBEBEB"/>
<path d="M331.22 401.211H322.527V401.461H331.22V401.211Z" fill="#EBEBEB"/>
<path d="M415.778 389.211H396.586V389.461H415.778V389.211Z" fill="#EBEBEB"/>
<path d="M95.652 390.891H52.459V391.141H95.652V390.891Z" fill="#EBEBEB"/>
<path d="M110.889 390.891H104.556V391.141H110.889V390.891Z" fill="#EBEBEB"/>
<path d="M225.147 395.109H131.471V395.359H225.147V395.109Z" fill="#EBEBEB"/>
<path d="M237.014 337.801H43.915C40.768 337.801 38.207 335.24 38.207 332.093V60.6611C38.207 57.5141 40.768 54.9531 43.915 54.9531H237.014C240.16 54.9531 242.721 57.5141 242.721 60.6611V332.093C242.721 335.24 240.16 337.801 237.014 337.801ZM43.915 55.2041C40.905 55.2041 38.457 57.6521 38.457 60.6621V332.094C38.457 335.104 40.905 337.552 43.915 337.552H237.014C240.023 337.552 242.471 335.104 242.471 332.094V60.6611C242.471 57.6521 240.023 55.2031 237.014 55.2031L43.915 55.2041Z" fill="#EBEBEB"/>
<path d="M453.31 337.801H260.212C257.065 337.801 254.505 335.24 254.505 332.093V60.6611C254.505 57.5141 257.066 54.9531 260.212 54.9531H453.31C456.458 54.9531 459.018 57.5141 459.018 60.6611V332.093C459.019 335.24 456.458 337.801 453.31 337.801ZM260.212 55.2041C257.203 55.2041 254.755 57.6521 254.755 60.6621V332.094C254.755 335.104 257.203 337.552 260.212 337.552H453.31C456.32 337.552 458.768 335.104 458.768 332.094V60.6611C458.768 57.6521 456.32 55.2031 453.31 55.2031L260.212 55.2041Z" fill="#EBEBEB"/>
<path d="M289.691 174.062L427.472 174.062V83.8355L289.691 83.8355V174.062Z" fill="#E6E6E6"/>
<path d="M285.487 174.062L425.507 174.062V83.8355L285.487 83.8355V174.062Z" fill="#F0F0F0"/>
<path d="M289.691 191.773L427.472 191.773V174.065L289.691 174.065V191.773Z" fill="#E6E6E6"/>
<path d="M278.484 191.773L418.504 191.773V174.065L278.484 174.065V191.773Z" fill="#F0F0F0"/>
<path d="M419.622 168.175V89.7188L291.373 89.7187V168.175L419.622 168.175Z" fill="#FAFAFA"/>
<path d="M390.702 168.183L374.322 89.7266H348.761L365.141 168.183H390.702Z" fill="white"/>
<path d="M416.897 162.321C417.129 162.321 417.318 162.133 417.318 161.901V93.5528C417.318 93.3208 417.13 93.1328 416.897 93.1328C416.665 93.1328 416.476 93.3208 416.476 93.5528V161.901C416.476 162.133 416.665 162.321 416.897 162.321Z" fill="#F0F0F0"/>
<path d="M359.65 168.183L343.27 89.7266H333.304L349.685 168.183H359.65Z" fill="white"/>
<path d="M292.12 168.175V89.7188H291.373V168.175H292.12Z" fill="#E6E6E6"/>
<path opacity="0.6" d="M284.095 98.5938H421.876L422.417 92.0078H284.636L284.095 98.5938Z" fill="#EBEBEB"/>
<path opacity="0.6" d="M284.095 109.398H421.876L422.417 102.812H284.636L284.095 109.398Z" fill="#EBEBEB"/>
<path opacity="0.6" d="M284.095 120.203H421.876L422.417 113.617H284.636L284.095 120.203Z" fill="#EBEBEB"/>
<path opacity="0.6" d="M284.095 131H421.876L422.417 124.414H284.636L284.095 131Z" fill="#EBEBEB"/>
<path opacity="0.6" d="M284.095 141.805H421.876L422.417 135.219H284.636L284.095 141.805Z" fill="#EBEBEB"/>
<path opacity="0.6" d="M284.095 152.609H421.876L422.417 146.023H284.636L284.095 152.609Z" fill="#EBEBEB"/>
<path d="M407.688 316.781H378.799V322.477H407.688V316.781Z" fill="#E6E6E6"/>
<path d="M324.308 382.398H329.641V251.333H324.308V382.398Z" fill="#E6E6E6"/>
<path d="M305.835 322.477H378.798V316.781H305.835V322.477Z" fill="#F5F5F5"/>
<path d="M407.688 347.953H378.799V353.649H407.688V347.953Z" fill="#E6E6E6"/>
<path d="M305.835 353.648H378.798V347.952H305.835V353.648Z" fill="#F5F5F5"/>
<path d="M407.688 254.453H378.799V260.149H407.688V254.453Z" fill="#E6E6E6"/>
<path d="M305.835 260.148H378.798V254.452H305.835V260.148Z" fill="#F5F5F5"/>
<path d="M407.688 285.617H378.799V291.313H407.688V285.617Z" fill="#E6E6E6"/>
<path d="M305.835 291.312H378.798V285.616H305.835V291.312Z" fill="#F5F5F5"/>
<path d="M397.271 382.398H402.604V251.333H397.271V382.398Z" fill="#E6E6E6"/>
<path d="M373.465 382.398H378.798V251.333H373.465V382.398Z" fill="#F5F5F5"/>
<path d="M305.835 382.398H311.168V251.333H305.835V382.398Z" fill="#F5F5F5"/>
<path d="M65.3737 382.398H119.952L119.952 276.506H65.3737L65.3737 382.398Z" fill="#E6E6E6"/>
<path d="M79.948 382.399H65.374V367.781H95.228L79.948 382.399Z" fill="#FAFAFA"/>
<path d="M214.183 382.398H268.761V276.506H214.183V382.398Z" fill="#E6E6E6"/>
<path d="M65.3734 377.367H226.902V276.506H65.3734V377.367Z" fill="#FAFAFA"/>
<path d="M212.329 382.399H226.903V367.781H197.048L212.329 382.399Z" fill="#FAFAFA"/>
<path d="M76.6797 339.336H215.597V314.095H76.6797V339.336Z" fill="#F0F0F0"/>
<path d="M76.6797 369.969H215.597V344.728H76.6797V369.969Z" fill="#F0F0F0"/>
<path d="M103.084 316.791H189.192C191.719 316.791 193.768 314.742 193.768 312.214V311.906H98.5083V312.214C98.5083 314.742 100.557 316.791 103.084 316.791Z" fill="#FAFAFA"/>
<path d="M76.6797 308.695H215.597V283.454H76.6797V308.695Z" fill="#F0F0F0"/>
<path d="M103.084 286.158H189.192C191.719 286.158 193.768 284.109 193.768 281.581V281.273H98.5083V281.581C98.5083 284.109 100.557 286.158 103.084 286.158Z" fill="#FAFAFA"/>
<path d="M103.084 347.423H189.192C191.719 347.423 193.768 345.374 193.768 342.847V342.539H98.5083V342.847C98.5083 345.374 100.557 347.423 103.084 347.423Z" fill="#FAFAFA"/>
<path d="M74.0681 174.062L211.849 174.062V83.8355L74.0681 83.8355V174.062Z" fill="#E6E6E6"/>
<path d="M69.8648 174.062L209.885 174.062V83.8355L69.8648 83.8355V174.062Z" fill="#F0F0F0"/>
<path d="M74.0681 191.773L211.849 191.773V174.065L74.0681 174.065V191.773Z" fill="#E6E6E6"/>
<path d="M62.8604 191.773L202.88 191.773V174.065L62.8604 174.065V191.773Z" fill="#F0F0F0"/>
<path d="M204 168.175L204 89.7188L75.7505 89.7187L75.7505 168.175L204 168.175Z" fill="#FAFAFA"/>
<path d="M175.08 168.183L158.699 89.7266H133.138L149.519 168.183H175.08Z" fill="white"/>
<path d="M201.274 162.321C201.506 162.321 201.694 162.133 201.694 161.901V93.5528C201.694 93.3208 201.506 93.1328 201.274 93.1328C201.042 93.1328 200.853 93.3208 200.853 93.5528V161.901C200.854 162.133 201.042 162.321 201.274 162.321Z" fill="#F0F0F0"/>
<path d="M144.028 168.183L127.647 89.7266H117.682L134.063 168.183H144.028Z" fill="white"/>
<path d="M76.4976 168.175L76.4976 89.7188H75.7506L75.7506 168.175H76.4976Z" fill="#E6E6E6"/>
<path opacity="0.6" d="M68.4717 98.5938H206.253L206.795 92.0078H69.0137L68.4717 98.5938Z" fill="#EBEBEB"/>
<path opacity="0.6" d="M68.4717 102.314H206.253L206.795 95.7266H69.0137L68.4717 102.314Z" fill="#EBEBEB"/>
<path opacity="0.6" d="M68.4717 106.024H206.253L206.795 99.4375H69.0137L68.4717 106.024Z" fill="#EBEBEB"/>
<path opacity="0.6" d="M68.4717 109.743H206.253L206.795 103.156H69.0137L68.4717 109.743Z" fill="#EBEBEB"/>
<path opacity="0.6" d="M68.4717 113.461H206.253L206.795 106.875H69.0137L68.4717 113.461Z" fill="#EBEBEB"/>
<path opacity="0.6" d="M68.4717 117.172H206.253L206.795 110.586H69.0137L68.4717 117.172Z" fill="#EBEBEB"/>
<path d="M96.0139 273.273H100.777V220.181H96.0139V273.273Z" fill="#F5F5F5"/>
<path d="M96.6272 273.234H97.9722V220.142H96.6272V273.234Z" fill="#FAFAFA"/>
<path d="M98.536 273.234H99.063V220.142H98.536V273.234Z" fill="#FAFAFA"/>
<path d="M80.7632 276.505H116.027C116.027 274.051 114.038 272.062 111.584 272.062H85.2062C82.7522 272.062 80.7632 274.051 80.7632 276.505Z" fill="#F0F0F0"/>
<path d="M89.8353 253.136C90.5893 253.136 91.2053 252.519 91.2053 251.766V216.956C91.2053 216.203 90.5883 215.586 89.8353 215.586C89.0813 215.586 88.4653 216.203 88.4653 216.956V251.766C88.4653 252.52 89.0813 253.136 89.8353 253.136Z" fill="#F0F0F0"/>
<path d="M77.0742 232.799H119.716L114.811 203H81.9792L77.0742 232.799Z" fill="#E0E0E0"/>
<path d="M250 427.56C357.082 427.56 443.889 422.491 443.889 416.237C443.889 409.984 357.082 404.914 250 404.914C142.918 404.914 56.1108 409.984 56.1108 416.237C56.1108 422.491 142.918 427.56 250 427.56Z" fill="#F5F5F5"/>
<path d="M104.108 202.358L103.11 202.43L104.438 220.871L105.435 220.799L104.108 202.358Z" fill="#25B491"/>
<path d="M106.139 230.311L105.142 230.383L105.642 237.32L106.639 237.248L106.139 230.311Z" fill="#25B491"/>
<path d="M337.711 315.158H123.553C118.709 315.158 114.461 311.195 114.112 306.351L103.589 160.221C103.24 155.377 106.918 151.414 111.762 151.414H325.92C330.764 151.414 335.012 155.377 335.361 160.221L345.884 306.351C346.232 311.195 342.555 315.158 337.711 315.158Z" fill="#25B491"/>
<path d="M338.532 315.158H124.374C119.53 315.158 115.282 311.195 114.933 306.351L104.41 160.221C104.061 155.377 107.739 151.414 112.583 151.414H326.741C331.585 151.414 335.833 155.377 336.182 160.221L346.705 306.351C347.053 311.195 343.376 315.158 338.532 315.158Z" fill="#25B491"/>
<path opacity="0.5" d="M338.532 315.158H124.374C119.53 315.158 115.282 311.195 114.933 306.351L104.41 160.221C104.061 155.377 107.739 151.414 112.583 151.414H326.741C331.585 151.414 335.833 155.377 336.182 160.221L346.705 306.351C347.053 311.195 343.376 315.158 338.532 315.158Z" fill="white"/>
<path d="M327.058 155.82H112.9C112.658 155.82 112.419 155.83 112.183 155.849C106.709 156.3 107.827 164.627 113.352 164.627H327.875C333.4 164.627 333.319 156.3 327.78 155.849C327.541 155.83 327.3 155.82 327.058 155.82Z" fill="#25B491"/>
<path d="M118.478 160.222C118.558 161.337 117.72 162.241 116.604 162.241C115.489 162.241 114.52 161.337 114.44 160.222C114.36 159.107 115.198 158.203 116.314 158.203C117.43 158.203 118.398 159.106 118.478 160.222Z" fill="#FAFAFA"/>
<path d="M125.346 160.222C125.426 161.337 124.588 162.241 123.472 162.241C122.357 162.241 121.388 161.337 121.308 160.222C121.228 159.107 122.066 158.203 123.182 158.203C124.297 158.203 125.266 159.106 125.346 160.222Z" fill="#FAFAFA"/>
<path d="M132.214 160.222C132.294 161.337 131.455 162.241 130.34 162.241C129.225 162.241 128.256 161.337 128.175 160.222C128.095 159.107 128.934 158.203 130.049 158.203C131.164 158.203 132.133 159.106 132.214 160.222Z" fill="#FAFAFA"/>
<path d="M332.854 300.575H127.951C126.188 300.575 124.655 299.145 124.528 297.382L115.874 177.209C115.747 175.446 117.074 174.016 118.837 174.016H323.74C325.503 174.016 327.036 175.445 327.163 177.209L335.817 297.382C335.944 299.145 334.617 300.575 332.854 300.575Z" fill="white"/>
<path d="M246.53 254.794L243.195 208.475L233.087 202.391H205.283L209.057 254.794H246.53Z" fill="white"/>
<path d="M246.53 255.278H209.057C208.803 255.278 208.592 255.082 208.574 254.828L204.8 202.425C204.79 202.291 204.837 202.158 204.929 202.06C205.021 201.961 205.149 201.906 205.284 201.906H233.088C233.176 201.906 233.263 201.93 233.338 201.976L243.445 208.059C243.58 208.14 243.667 208.282 243.678 208.439L247.013 254.758C247.023 254.892 246.976 255.025 246.884 255.123C246.793 255.222 246.664 255.278 246.53 255.278ZM209.508 254.309H246.009L242.729 208.76L232.953 202.875H205.804L209.508 254.309Z" fill="#25B491"/>
<path d="M243.194 208.475L233.086 202.391L236.797 210.451L243.194 208.475Z" fill="#EBEBEB"/>
<path d="M236.798 210.934C236.613 210.934 236.439 210.827 236.358 210.652L232.647 202.593C232.558 202.4 232.605 202.171 232.764 202.029C232.922 201.887 233.155 201.866 233.337 201.975L243.444 208.059C243.608 208.157 243.698 208.343 243.675 208.533C243.652 208.723 243.52 208.881 243.337 208.937L236.941 210.913C236.894 210.927 236.846 210.934 236.798 210.934ZM234.186 203.617L237.061 209.861L242.017 208.33L234.186 203.617Z" fill="#25B491"/>
<path d="M220.969 226C221.053 227.169 220.174 228.117 219.004 228.117C217.834 228.117 216.819 227.169 216.735 226C216.651 224.831 217.53 223.883 218.699 223.883C219.868 223.883 220.885 224.831 220.969 226Z" fill="#25B491"/>
<path d="M234.705 226C234.789 227.169 233.91 228.117 232.74 228.117C231.571 228.117 230.555 227.169 230.47 226C230.386 224.831 231.265 223.883 232.435 223.883C233.605 223.884 234.621 224.831 234.705 226Z" fill="#25B491"/>
<path d="M238.58 239.734C238.328 239.734 238.116 239.539 238.097 239.284C237.852 235.88 232.514 233.111 226.197 233.111C222.012 233.111 218.255 234.355 216.391 236.358C215.562 237.249 215.179 238.209 215.251 239.214C215.27 239.481 215.069 239.713 214.802 239.732C214.534 239.749 214.303 239.55 214.284 239.283C214.193 238.017 214.676 236.777 215.681 235.697C217.722 233.503 221.751 232.141 226.197 232.141C233.126 232.141 238.778 235.248 239.064 239.213C239.083 239.48 238.882 239.712 238.615 239.731C238.603 239.734 238.591 239.734 238.58 239.734Z" fill="#25B491"/>
<path d="M213.167 221.71C213.049 221.71 212.931 221.667 212.837 221.581C212.641 221.399 212.629 221.092 212.811 220.896L214.935 218.608C215.117 218.411 215.424 218.401 215.62 218.582C215.816 218.764 215.827 219.071 215.646 219.267L213.523 221.555C213.427 221.658 213.297 221.71 213.167 221.71Z" fill="#25B491"/>
<path d="M237.584 221.71C237.466 221.71 237.347 221.667 237.253 221.58L234.8 219.292C234.604 219.11 234.594 218.803 234.776 218.607C234.958 218.411 235.265 218.401 235.461 218.583L237.914 220.871C238.11 221.053 238.12 221.36 237.938 221.556C237.843 221.658 237.714 221.71 237.584 221.71Z" fill="#25B491"/>
<path d="M202.257 265.148H204.517L207.778 269.482L207.466 265.148H209.747L210.311 272.981H208.029L204.786 268.68L205.096 272.981H202.82L202.257 265.148Z" fill="#25B491"/>
<path d="M211.334 269.072C211.242 267.793 211.526 266.798 212.188 266.085C212.849 265.373 213.816 265.016 215.087 265.016C216.391 265.016 217.42 265.366 218.176 266.066C218.932 266.766 219.355 267.746 219.446 269.007C219.512 269.922 219.412 270.673 219.146 271.259C218.88 271.845 218.468 272.301 217.909 272.627C217.35 272.953 216.636 273.116 215.767 273.116C214.884 273.116 214.142 272.975 213.543 272.694C212.944 272.413 212.443 271.967 212.039 271.358C211.635 270.75 211.4 269.988 211.334 269.072ZM213.755 269.083C213.812 269.874 214 270.442 214.318 270.787C214.637 271.133 215.049 271.305 215.555 271.305C216.075 271.305 216.465 271.136 216.726 270.797C216.987 270.459 217.085 269.851 217.022 268.975C216.969 268.238 216.781 267.699 216.459 267.359C216.137 267.019 215.721 266.849 215.212 266.849C214.724 266.849 214.345 267.022 214.074 267.367C213.804 267.714 213.698 268.285 213.755 269.083Z" fill="#25B491"/>
<path d="M224.152 265.148H227.748C228.457 265.148 229.036 265.244 229.487 265.436C229.937 265.628 230.318 265.904 230.629 266.264C230.94 266.624 231.177 267.042 231.339 267.52C231.502 267.997 231.602 268.503 231.641 269.037C231.701 269.874 231.653 270.523 231.495 270.985C231.338 271.446 231.101 271.833 230.785 272.144C230.469 272.456 230.121 272.663 229.74 272.766C229.22 272.909 228.744 272.98 228.313 272.98H224.717L224.152 265.148ZM226.7 266.922L227.008 271.202H227.601C228.107 271.202 228.462 271.146 228.668 271.034C228.874 270.922 229.027 270.726 229.128 270.446C229.229 270.166 229.257 269.713 229.212 269.086C229.152 268.256 228.976 267.688 228.683 267.382C228.39 267.076 227.93 266.923 227.303 266.923H226.7V266.922Z" fill="#25B491"/>
<path d="M237.448 271.688H234.7L234.411 272.981H231.94L234.32 265.148H236.96L240.467 272.981H237.932L237.448 271.688ZM236.824 269.995L235.756 267.179L235.103 269.995H236.824Z" fill="#25B491"/>
<path d="M239.369 265.148H246.726L246.865 267.082H244.397L244.822 272.981H242.402L241.977 267.082H239.509L239.369 265.148Z" fill="#25B491"/>
<path d="M252.365 271.688H249.617L249.328 272.981H246.857L249.237 265.148H251.877L255.384 272.981H252.849L252.365 271.688ZM251.741 269.995L250.674 267.179L250.021 269.995H251.741Z" fill="#25B491"/>
<path d="M353.688 173.077C354.582 172.629 355.647 172.05 356.632 171.509C357.635 170.958 358.633 170.383 359.615 169.785C361.574 168.579 363.549 167.387 365.423 166.063C369.205 163.458 372.748 160.567 375.936 157.41C376.354 157.028 376.709 156.604 377.095 156.2L377.665 155.588L377.951 155.282L378.094 155.129C378.132 155.089 378.123 155.097 378.105 155.121L378.073 155.17C377.931 155.437 378.049 155.356 378.104 155.098C378.171 154.85 378.227 154.445 378.245 154.007C378.309 152.191 377.951 149.902 377.516 147.689C376.626 143.204 375.279 138.591 373.947 134.071L377.831 132.367C380.265 136.713 382.293 141.152 383.944 145.965C384.73 148.403 385.452 150.851 385.663 153.858C385.702 154.624 385.719 155.429 385.58 156.368C385.433 157.292 385.2 158.398 384.357 159.652L384.19 159.883L384.061 160.051L383.908 160.239L383.599 160.613L382.982 161.363C382.565 161.857 382.17 162.378 381.727 162.841C378.279 166.67 374.442 170.052 370.347 172.993C368.309 174.482 366.227 175.896 364.064 177.183C362.987 177.835 361.896 178.461 360.787 179.068C359.664 179.692 358.596 180.235 357.32 180.834L353.688 173.077Z" fill="#FFB573"/>
<path d="M344.794 408.178C345.568 408.178 346.414 408.018 347.005 407.878C347.082 407.86 347.141 407.798 347.155 407.719C347.169 407.641 347.135 407.562 347.069 407.519C346.782 407.33 344.239 405.689 343.264 406.13C343.11 406.2 342.917 406.353 342.869 406.688C342.806 407.132 342.917 407.486 343.198 407.742C343.555 408.068 344.15 408.178 344.794 408.178ZM346.444 407.595C344.986 407.886 343.889 407.836 343.465 407.449C343.285 407.285 343.218 407.054 343.262 406.743C343.285 406.576 343.363 406.521 343.427 406.492C343.94 406.26 345.407 406.968 346.444 407.595Z" fill="#25B491"/>
<path d="M346.96 407.878C346.994 407.878 347.029 407.869 347.06 407.851C347.121 407.815 347.159 407.75 347.159 407.679C347.159 407.577 347.148 405.165 346.237 404.359C345.995 404.145 345.713 404.056 345.397 404.094C344.9 404.154 344.766 404.467 344.729 404.647C344.54 405.591 346.063 407.398 346.862 407.851C346.892 407.869 346.926 407.878 346.96 407.878ZM345.535 404.482C345.698 404.482 345.842 404.539 345.974 404.656C346.518 405.137 346.704 406.491 346.75 407.294C345.953 406.658 345.004 405.3 345.119 404.725C345.138 404.631 345.192 404.519 345.445 404.488C345.475 404.484 345.505 404.482 345.535 404.482Z" fill="#25B491"/>
<path d="M346.223 148.062C345.249 153.032 343.195 163.1 346.673 166.417C346.673 166.417 345.314 171.458 336.079 171.458C325.924 171.458 331.226 166.417 331.226 166.417C336.769 165.093 336.626 160.981 335.66 157.119L346.223 148.062Z" fill="#FFB573"/>
<path d="M329.284 168.424C327.69 168.64 329.046 164.511 329.694 164.083C331.19 163.094 350.545 161.694 350.419 164.043C350.339 165.054 349.864 167.027 349.018 167.697C348.171 168.367 343.199 166.342 329.284 168.424Z" fill="#263238"/>
<path d="M332.437 167.029C331.171 167.457 331.291 163.296 331.722 162.795C332.72 161.637 348.386 157.612 348.851 159.889C349.03 160.872 349.116 162.836 348.579 163.599C348.042 164.361 343.439 163.1 332.437 167.029Z" fill="#263238"/>
<path d="M326.61 139.108C326.487 139.115 326.363 139.066 326.279 138.963C325.159 137.593 323.703 137.733 323.689 137.735C323.468 137.758 323.275 137.601 323.252 137.383C323.228 137.165 323.386 136.969 323.604 136.946C323.681 136.938 325.504 136.761 326.894 138.46C327.033 138.63 327.008 138.88 326.838 139.018C326.771 139.074 326.691 139.103 326.61 139.108Z" fill="#263238"/>
<path d="M324.672 144C324.672 144 323.816 147.007 322.697 148.527C323.666 149.268 325.138 148.741 325.138 148.741L324.672 144Z" fill="#FF5652"/>
<path d="M325.16 142.782C325.226 143.454 324.923 144.034 324.484 144.078C324.044 144.121 323.635 143.611 323.568 142.939C323.502 142.267 323.805 141.687 324.244 141.643C324.684 141.6 325.094 142.11 325.16 142.782Z" fill="#263238"/>
<path d="M324.443 141.659L322.782 141.352C322.782 141.352 323.735 142.533 324.443 141.659Z" fill="#263238"/>
<path d="M356.7 407.678H348.324L348.981 388.281H357.357L356.7 407.678Z" fill="#FFB573"/>
<path d="M347.661 406.711H357.071C357.413 406.711 357.691 406.949 357.739 407.283L358.811 414.728C358.922 415.5 358.258 416.231 357.468 416.218C354.187 416.162 352.606 415.969 348.468 415.969C345.922 415.969 342.202 416.233 338.687 416.233C335.248 416.233 334.984 412.756 336.448 412.442C343.012 411.03 344.049 409.083 346.261 407.226C346.659 406.891 347.16 406.711 347.661 406.711Z" fill="#263238"/>
<g opacity="0.2">
<path d="M357.359 388.289H348.979L348.645 398.288H357.025L357.359 388.289Z" fill="black"/>
</g>
<path d="M323.374 178.043C318.191 176.014 313.247 173.807 308.324 171.289C303.409 168.774 298.57 166.095 293.92 162.516C292.762 161.605 291.617 160.609 290.498 159.446C290.219 159.146 289.94 158.868 289.666 158.524C289.378 158.162 289.161 157.949 288.787 157.393C288.111 156.421 287.588 155.116 287.449 153.784C287.318 152.451 287.557 151.178 287.94 150.163C288.322 149.13 288.823 148.287 289.347 147.556C290.398 146.092 291.563 145.01 292.736 144.036C295.079 142.097 297.557 140.687 300.039 139.369C301.279 138.711 302.543 138.118 303.823 137.572C305.109 137.017 306.364 136.501 307.729 136.031L309.504 139.884C305.142 142.633 300.624 145.655 297.302 149.043C296.495 149.882 295.789 150.76 295.345 151.533C294.869 152.32 294.875 152.909 294.956 152.864C294.997 152.864 294.981 152.846 295.097 152.962L295.495 153.389C295.645 153.568 295.856 153.751 296.045 153.935C296.83 154.668 297.751 155.404 298.744 156.104C300.729 157.517 302.916 158.839 305.178 160.074C307.432 161.326 309.751 162.524 312.113 163.661C316.825 165.918 321.711 168.09 326.505 170.074L323.374 178.043Z" fill="#FFB573"/>
<path d="M311.969 137.151L313.354 134.147L307.058 131.961C307.058 131.961 305.097 137.864 307.434 140.588C309.424 140.269 311.125 138.981 311.969 137.151Z" fill="#FFB573"/>
<path d="M313.354 127.654L308.321 126.203L307.058 131.961L313.354 134.148V127.654Z" fill="#FFB573"/>
<path d="M378.35 134.434L379.084 127.414L372.596 128.939C372.596 128.939 372.501 135.519 375.933 136.568L378.35 134.434Z" fill="#FFB573"/>
<path d="M375.958 122.5L371.731 124.474L372.595 128.939L379.083 127.414L375.958 122.5Z" fill="#FFB573"/>
<path d="M347.54 138.253C347.845 146.56 348.152 150.07 344.398 154.719C338.752 161.711 328.481 160.269 325.7 152.22C323.197 144.975 323.118 132.607 330.878 128.525C338.523 124.505 347.235 129.945 347.54 138.253Z" fill="#FFB573"/>
<path d="M343.921 154.702C352.076 151.178 357.44 143.747 355.176 132.128C353.01 121.012 345.505 119.914 342.405 122.22C339.305 124.526 331.578 121.089 326.941 124.991C318.906 131.752 326.502 139.041 330.459 143.36C332.823 148.218 335.919 158.16 343.921 154.702Z" fill="#263238"/>
<path d="M340.535 130.134C343.287 134.119 348.565 135.244 352.325 132.647C356.085 130.051 356.902 124.716 354.15 120.731C351.398 116.746 346.12 115.621 342.36 118.218C338.6 120.814 337.783 126.149 340.535 130.134Z" fill="#25B491"/>
<path d="M342.652 122.999C341.475 116.301 347.813 111.136 356.288 113.632C364.763 116.128 360.28 123.641 358.542 129.641C356.804 135.641 361.365 141.356 363.271 136.786C365.177 132.217 361.973 130.806 361.973 130.806C361.973 130.806 370.972 133.139 362.612 143.283C354.252 153.428 346.684 142.226 348.731 135.615C350.385 130.273 343.765 129.33 342.652 122.999Z" fill="#263238"/>
<path d="M334.182 125.528C330.313 123.51 323.761 121.878 320.032 128.151C318.269 131.117 318.952 135.14 318.952 135.14L330.341 135.898L334.182 125.528Z" fill="#263238"/>
<path d="M317.612 133.175C317.607 133.175 317.602 133.175 317.596 133.174C317.458 133.166 317.354 133.047 317.362 132.909C317.372 132.739 317.648 128.716 320.076 126.192C325.945 120.094 332.826 125.152 334.795 126.848C334.9 126.938 334.912 127.096 334.821 127.201C334.73 127.306 334.573 127.317 334.468 127.227C332.583 125.604 326.001 120.757 320.436 126.539C318.137 128.928 317.863 132.9 317.86 132.94C317.853 133.072 317.743 133.175 317.612 133.175Z" fill="#263238"/>
<path d="M331.853 143.028C331.841 144.646 331.116 146.23 330.198 147.305C328.816 148.921 327.232 148.125 326.869 146.333C326.542 144.72 326.866 141.936 328.613 140.96C330.333 139.999 331.867 141.178 331.853 143.028Z" fill="#FFB573"/>
<path d="M330.053 219.117C330.053 219.117 330.587 277.261 335.631 309.662C339.705 335.832 347.244 396.351 347.244 396.351H358.666C358.666 396.351 359.782 337.927 357.714 312.043C352.481 246.545 365.985 234.3 355.088 219.117H330.053Z" fill="#263238"/>
<path opacity="0.1" d="M330.053 219.117C330.053 219.117 330.587 277.261 335.631 309.662C339.705 335.832 347.244 396.351 347.244 396.351H358.666C358.666 396.351 359.782 337.927 357.714 312.043C352.481 246.545 365.985 234.3 355.088 219.117H330.053Z" fill="white"/>
<path opacity="0.3" d="M336.057 245.499C340.067 263.049 336.867 290.689 334.677 302.859C332.357 284.379 331.187 260.429 330.607 242.879C332.677 239.519 334.637 239.299 336.057 245.499Z" fill="black"/>
<path d="M345.681 396.578H360.23L360.994 391.474L345.598 390.953L345.681 396.578Z" fill="#25B491"/>
<path d="M349.833 170.036C351.201 167.315 358.558 165.603 362.579 165.609L365.589 178.974C365.589 178.974 357.577 190.864 354.246 189.603C350.31 188.116 346.901 175.866 349.833 170.036Z" fill="#25B491"/>
<path opacity="0.4" d="M349.833 170.036C351.201 167.315 358.558 165.603 362.579 165.609L365.589 178.974C365.589 178.974 357.577 190.864 354.246 189.603C350.31 188.116 346.901 175.866 349.833 170.036Z" fill="black"/>
<path d="M341.353 393.309C341.389 393.25 341.392 393.175 341.359 393.113C341.32 393.039 341.238 392.997 341.154 393.01C340.734 393.073 337.032 393.661 336.532 394.718C336.435 394.923 336.449 395.139 336.571 395.343C336.775 395.684 337.064 395.876 337.429 395.913C338.642 396.038 340.394 394.355 341.33 393.341C341.338 393.33 341.346 393.32 341.353 393.309ZM336.912 394.846C337.254 394.285 339.168 393.768 340.629 393.499C339.31 394.84 338.148 395.587 337.468 395.517C337.23 395.492 337.048 395.368 336.91 395.138C336.856 395.048 336.85 394.971 336.89 394.887C336.897 394.873 336.904 394.859 336.912 394.846Z" fill="#25B491"/>
<path d="M341.353 393.311C341.361 393.299 341.367 393.285 341.371 393.271C341.394 393.205 341.379 393.131 341.334 393.078C341.271 393.005 339.788 391.296 338.421 391.207C338.002 391.18 337.636 391.304 337.331 391.577C336.92 391.945 336.955 392.265 337.058 392.468C337.491 393.326 340.151 393.625 341.224 393.402C341.278 393.39 341.324 393.357 341.353 393.311ZM337.438 392.052C337.469 392.001 337.519 391.941 337.596 391.872C337.821 391.67 338.083 391.582 338.395 391.603C339.293 391.662 340.314 392.591 340.778 393.064C339.593 393.164 337.672 392.804 337.412 392.289C337.397 392.258 337.358 392.182 337.438 392.052Z" fill="#25B491"/>
<path d="M350.083 389.762L342.422 393.165L339.008 386.06L334.547 376.756L334.024 375.674L341.676 372.266L342.268 373.484L346.593 382.494L350.083 389.762Z" fill="#FFB573"/>
<path opacity="0.2" d="M346.593 382.494L339.008 386.06L334.547 376.756L342.268 373.484L346.593 382.494Z" fill="black"/>
<path d="M321.069 219.117C321.069 219.117 296.595 279.952 303.229 308.599C309.224 334.489 335.733 383.52 335.733 383.52L345.983 378.375C345.983 378.375 329.595 319.187 327.817 306.329C324.358 281.311 346.593 245.996 346.593 219.117H321.069Z" fill="#263238"/>
<path opacity="0.1" d="M321.069 219.117C321.069 219.117 296.595 279.952 303.229 308.599C309.224 334.489 335.733 383.52 335.733 383.52L345.983 378.375C345.983 378.375 329.595 319.187 327.817 306.329C324.358 281.311 346.593 245.996 346.593 219.117H321.069Z" fill="white"/>
<path d="M341.055 392.102L348.663 386.564C348.94 386.362 349.305 386.391 349.54 386.633L354.788 392.022C355.332 392.581 355.225 393.563 354.579 394.017C351.893 395.902 350.501 396.677 347.156 399.112C345.097 400.61 340.995 403.923 338.153 405.992C335.373 408.015 333.113 405.36 334.112 404.244C338.589 399.24 339.532 396.145 340.227 393.342C340.352 392.837 340.65 392.397 341.055 392.102Z" fill="#263238"/>
<path d="M335.073 385.693L348.304 379.641L346.606 374.25L332.438 380.712L335.073 385.693Z" fill="#25B491"/>
<path d="M327.564 169.357C326.466 166.516 316.907 163.401 312.112 162.312L310.005 178.08C310.005 178.08 317.836 189.335 321.275 188.404C325.335 187.305 329.916 175.444 327.564 169.357Z" fill="#25B491"/>
<path opacity="0.4" d="M327.564 169.357C326.466 166.516 316.907 163.401 312.112 162.312L310.005 178.08C310.005 178.08 317.836 189.335 321.275 188.404C325.335 187.305 329.916 175.444 327.564 169.357Z" fill="black"/>
<path d="M317.066 168.566C317.066 168.566 313.076 169.971 321.069 219.121C334.568 219.121 348.52 219.121 355.088 219.121C354.517 205.275 354.501 196.738 361.118 168.323C361.118 168.323 353.99 166.772 346.672 166.42C340.947 166.144 336.257 165.961 331.224 166.421C324.591 167.026 317.066 168.566 317.066 168.566Z" fill="#25B491"/>
<path opacity="0.4" d="M317.066 168.566C317.066 168.566 313.076 169.971 321.069 219.121C334.568 219.121 348.52 219.121 355.088 219.121C354.517 205.275 354.501 196.738 361.118 168.323C361.118 168.323 353.99 166.772 346.672 166.42C340.947 166.144 336.257 165.961 331.224 166.421C324.591 167.026 317.066 168.566 317.066 168.566Z" fill="black"/>
<path d="M355.598 217.123L357.132 220.168C357.251 220.404 356.971 220.645 356.578 220.645H320.901C320.594 220.645 320.34 220.495 320.321 220.302L320.014 217.257C319.993 217.046 320.259 216.867 320.594 216.867H355.044C355.297 216.868 355.521 216.971 355.598 217.123Z" fill="#25B491"/>
<path opacity="0.3" d="M355.598 217.123L357.132 220.168C357.251 220.404 356.971 220.645 356.578 220.645H320.901C320.594 220.645 320.34 220.495 320.321 220.302L320.014 217.257C319.993 217.046 320.259 216.867 320.594 216.867H355.044C355.297 216.868 355.521 216.971 355.598 217.123Z" fill="white"/>
<path d="M350.972 220.97H351.895C352.079 220.97 352.218 220.875 352.205 220.76L351.773 216.804C351.76 216.688 351.6 216.594 351.416 216.594H350.493C350.309 216.594 350.169 216.689 350.182 216.804L350.615 220.76C350.628 220.876 350.789 220.97 350.972 220.97Z" fill="#263238"/>
<path d="M328.608 220.97H329.531C329.715 220.97 329.855 220.875 329.842 220.76L329.409 216.804C329.396 216.688 329.236 216.594 329.052 216.594H328.129C327.945 216.594 327.805 216.689 327.818 216.804L328.251 220.76C328.263 220.876 328.424 220.97 328.608 220.97Z" fill="#263238"/>
</svg>
