<svg width="696" height="252" viewBox="0 0 696 252" fill="none" xmlns="http://www.w3.org/2000/svg">
<path d="M171.279 80.217H140.063V90.17H171.279V80.217Z" stroke="#9EB7C7" stroke-width="4.0717" stroke-miterlimit="10"/>
<path d="M179.592 87.831H131.749V90.659H179.592V87.831Z" fill="#3D324C"/>
<path d="M174.555 77.227H136.786V83.206H174.555V77.227Z" fill="#3D324C"/>
<path d="M125.996 241.332C124.531 243.122 119.174 243.122 117.709 241.332C115.277 238.361 115.277 227.495 117.709 224.523C119.174 222.733 124.531 222.733 125.996 224.523C128.428 227.495 128.428 238.361 125.996 241.332Z" fill="#3D324C"/>
<path d="M193.632 241.332C192.167 243.122 186.81 243.122 185.345 241.332C182.913 238.361 182.913 227.495 185.345 224.523C186.81 222.733 192.167 222.733 193.632 224.523C196.064 227.495 196.064 238.361 193.632 241.332Z" fill="#3D324C"/>
<path d="M190.426 228.801H120.916C112.151 228.801 105.045 221.696 105.045 212.93V106.529C105.045 97.764 112.151 90.658 120.916 90.658H190.426C199.191 90.658 206.297 97.763 206.297 106.529V212.93C206.296 221.695 199.191 228.801 190.426 228.801Z" fill="#A5616E"/>
<path d="M130.79 213.715H120.598C117.995 213.715 115.885 211.605 115.885 209.002V109.754C115.885 107.151 117.995 105.041 120.598 105.041H130.79C133.393 105.041 135.503 107.151 135.503 109.754V209.002C135.502 211.605 133.392 213.715 130.79 213.715Z" stroke="#3D324C" stroke-width="1.3572" stroke-miterlimit="10"/>
<path d="M160.766 213.715H150.574C147.971 213.715 145.861 211.605 145.861 209.002V109.754C145.861 107.151 147.971 105.041 150.574 105.041H160.766C163.369 105.041 165.479 107.151 165.479 109.754V209.002C165.479 211.605 163.369 213.715 160.766 213.715Z" stroke="#3D324C" stroke-width="1.3572" stroke-miterlimit="10"/>
<path d="M190.743 213.715H180.552C177.949 213.715 175.839 211.605 175.839 209.002V109.754C175.839 107.151 177.949 105.041 180.552 105.041H190.743C193.346 105.041 195.456 107.151 195.456 109.754V209.002C195.456 211.605 193.346 213.715 190.743 213.715Z" stroke="#3D324C" stroke-width="1.3572" stroke-miterlimit="10"/>
<path d="M144.768 226.675C140.961 225.14 137.067 224.811 138.603 221.005L146.692 202.041L160.477 207.602L154.441 222.564C152.905 226.369 148.574 228.21 144.768 226.675Z" fill="#5D4E75"/>
<path d="M192.38 235.869C192.38 235.869 188.943 242.583 178.966 244.208C168.989 245.832 146.786 241.308 146.786 241.308V244.556H139.085V240.582C139.085 240.582 137.229 240.437 135.286 238.233C134.996 237.899 134.75 237.551 134.561 237.174C134.547 237.16 134.547 237.16 134.547 237.16C133.358 234.985 133.532 232.157 133.662 230.214C133.996 224.239 138.607 221.005 138.607 221.005C138.607 221.005 146.046 229.561 154.443 222.557C154.443 222.557 173.527 233.506 182.954 233.332C187.392 233.245 189.741 233.811 190.974 234.42C192.38 235.1 192.38 235.869 192.38 235.869Z" fill="#FFB68E"/>
<path d="M192.38 235.869C192.38 235.869 188.943 242.583 178.966 244.208C168.989 245.832 146.786 241.308 146.786 241.308V244.556H139.085V240.582C139.085 240.582 137.229 240.437 135.286 238.233C134.996 237.899 134.75 237.551 134.561 237.174C134.75 237.29 135.95 239.066 146.608 240.038C150.165 240.362 159.881 243.395 174.615 242.931C189.349 242.481 190.973 234.418 190.973 234.418C192.38 235.1 192.38 235.869 192.38 235.869Z" fill="#5D4E75"/>
<path d="M143.554 224.48C145.016 225.37 146.357 226.454 147.588 227.649C148.81 228.853 149.911 230.196 150.766 231.706C151.597 233.226 152.141 234.918 152.276 236.669C152.447 238.437 151.968 240.174 151.374 241.822L150.712 241.528C151.32 239.995 151.839 238.374 151.733 236.695C151.663 235.033 151.205 233.387 150.447 231.877C149.666 230.377 148.629 229.012 147.459 227.777C146.281 226.548 144.983 225.421 143.554 224.48Z" fill="#5D4E75"/>
<path d="M151.866 239.138C154.602 239.848 157.405 240.395 160.211 240.841C163.021 241.282 165.851 241.597 168.691 241.784C171.533 241.947 174.382 241.951 177.225 241.781C180.064 241.561 182.887 241.125 185.647 240.394C182.904 241.184 180.084 241.681 177.24 241.962C174.392 242.192 171.531 242.25 168.673 242.146C165.817 242.019 162.967 241.762 160.132 241.379C157.296 240.989 154.482 240.503 151.681 239.839L151.866 239.138Z" fill="#5D4E75"/>
<path d="M157.297 224.042C157.297 224.042 152.946 232.415 158.475 230.563C164.005 228.71 157.297 224.042 157.297 224.042Z" stroke="#5D4E75" stroke-width="0.7251" stroke-miterlimit="10"/>
<path d="M158.374 224.276C158.374 224.276 168.451 224.18 168.497 227.352C168.542 230.524 158.374 224.276 158.374 224.276Z" stroke="#5D4E75" stroke-width="0.7251" stroke-miterlimit="10"/>
<path d="M164.186 238.453C164.911 229.933 157.298 224.042 157.298 224.042C157.298 224.042 167.585 232.183 173.703 228.226" stroke="#5D4E75" stroke-width="0.7251" stroke-miterlimit="10"/>
<path d="M170.054 230.021L168.594 232.928" stroke="#5D4E75" stroke-width="0.7251" stroke-miterlimit="10"/>
<path d="M166.924 228.921L165.464 231.828" stroke="#5D4E75" stroke-width="0.7251" stroke-miterlimit="10"/>
<path d="M173.654 231.335L172.593 234.315" stroke="#5D4E75" stroke-width="0.7251" stroke-miterlimit="10"/>
<path d="M176.835 232.242L176.261 234.939" stroke="#5D4E75" stroke-width="0.7251" stroke-miterlimit="10"/>
<path d="M125.96 128.555C125.96 128.555 181.141 138.163 182.954 146.32C184.767 154.477 160.661 218.702 160.661 218.702L140.46 214.628L154.293 164.625C154.293 164.625 119.508 168.072 100.294 169.522C81.0799 170.972 73.8279 170.428 76.7279 152.12C79.6279 133.812 125.96 128.555 125.96 128.555Z" fill="#3D324C"/>
<path d="M103.786 17.052C103.786 17.052 98.5517 43.35 93.3677 50.071C101.049 59.48 111.033 59.672 111.033 59.672C111.033 59.672 117.562 44.119 122.554 45.847C127.547 47.574 103.786 17.052 103.786 17.052Z" fill="#EC9D6C"/>
<path d="M125.96 128.555C94.7069 133.993 74.9149 167.347 74.1899 164.447C73.4649 161.547 67.6639 113.147 72.5799 85.412C77.4959 57.677 92.4859 47.441 92.4859 47.441L111.927 57.695L125.96 128.555Z" fill="#5D4E75"/>
<path d="M112.678 61.517C110.492 61.361 108.414 60.618 106.383 59.854C104.362 59.045 102.389 58.118 100.465 57.103C98.5371 56.096 96.6271 55.044 94.8131 53.842C93.0131 52.62 91.2441 51.355 89.5791 49.952L89.6211 49.893C91.5231 50.956 93.3411 52.127 95.2021 53.23C97.0541 54.344 98.8641 55.525 100.743 56.594C102.619 57.666 104.545 58.65 106.522 59.519C108.498 60.366 110.534 61.195 112.678 61.445V61.517Z" fill="#3D324C"/>
<path d="M156.73 124.326C156.73 124.326 180.658 134.622 182.471 145.317C171.802 139.259 156.73 135.927 156.73 135.927C156.73 135.927 162.168 131.214 156.73 124.326Z" fill="#FFB68E"/>
<path d="M103.292 64.882L119.679 111.34L160.476 124.326V138.103L103.194 133.269L84.579 78.321C84.579 78.321 82.137 62.76 90.793 55.008C95.77 50.551 103.292 64.882 103.292 64.882Z" fill="#5D4E75"/>
<path d="M84.6572 72.302C84.5402 74.968 84.8832 77.628 85.3382 80.251C85.8062 82.875 86.4092 85.475 87.1012 88.05C88.4732 93.204 90.1062 98.286 91.8592 103.324C93.6042 108.366 95.5352 113.341 97.4602 118.316C99.4162 123.279 101.377 128.243 103.401 133.178L103.213 133.043C105.755 133.297 108.294 133.588 110.833 133.877L110.827 133.949C108.276 133.808 105.724 133.67 103.175 133.494L103.044 133.485L102.987 133.359C100.777 128.491 98.7122 123.562 96.7892 118.577C94.8442 113.6 93.0672 108.558 91.3542 103.496C89.6632 98.427 88.0772 93.319 86.7802 88.132C86.1282 85.54 85.5662 82.924 85.1392 80.284C84.7262 77.647 84.4252 74.971 84.5852 72.297L84.6572 72.302Z" fill="#3D324C"/>
<path d="M101.957 62.735C103.27 64.472 104.215 66.433 105.173 68.369C106.108 70.321 106.962 72.3101 107.793 74.3071C109.429 78.3131 110.903 82.383 112.317 86.47C113.712 90.562 115.141 94.645 116.431 98.774C117.731 102.902 118.979 107.038 119.905 111.292L119.748 111.118C121.741 111.795 123.722 112.506 125.703 113.219L125.681 113.288C123.652 112.725 121.624 112.159 119.607 111.56L119.487 111.524L119.45 111.386C118.35 107.235 117.003 103.116 115.743 98.9901C114.442 94.8721 113.171 90.742 111.811 86.64C110.463 82.536 109.043 78.457 107.484 74.43C106.694 72.421 105.882 70.42 104.988 68.455C104.073 66.507 103.163 64.525 101.901 62.784L101.957 62.735Z" fill="#3D324C"/>
<path d="M132.539 17.052C132.539 28.717 131.563 49.52 126.623 49.883C117.95 50.52 106.819 43.421 106.819 31.756C106.819 20.091 108.098 7.82796 116.794 7.82796C125.49 7.82796 132.539 5.38696 132.539 17.052Z" fill="#FFB68E"/>
<path d="M98.2908 38.778C98.2908 38.778 85.2308 16.348 98.2908 7.82798C98.2908 -4.13602 129.622 -1.05403 135.098 11.816C132.18 16.348 116.794 11.091 116.794 11.091C116.794 11.091 115.418 16.165 116.794 24.505C116.794 24.505 104.684 28.493 103.557 36.469L98.2908 38.778Z" fill="#3D324C"/>
<path d="M111.928 28.493C111.928 31.763 111.963 34.415 109.963 34.415C107.963 34.415 104.684 31.764 104.684 28.493C104.684 25.223 106.306 22.571 108.306 22.571C110.306 22.571 111.928 25.222 111.928 28.493Z" fill="#FFB68E"/>
<path d="M109.73 25.043C108.775 24.744 107.66 24.859 107.143 25.611C106.632 26.349 106.518 27.372 106.53 28.316C106.53 29.274 106.822 30.199 107.38 30.967C107.961 31.714 108.783 32.311 109.731 32.664C108.724 32.546 107.731 32.065 107.009 31.275C106.292 30.476 105.921 29.388 105.914 28.333C105.92 27.297 106.046 26.184 106.775 25.305C107.141 24.873 107.712 24.636 108.247 24.633C108.783 24.633 109.294 24.781 109.73 25.043Z" fill="#3D324C"/>
<path d="M106.393 26.68C106.879 26.806 107.236 27.067 107.562 27.362C107.875 27.67 108.155 28.013 108.306 28.492C107.819 28.367 107.462 28.106 107.137 27.81C106.825 27.501 106.545 27.159 106.393 26.68Z" fill="#3D324C"/>
<path d="M130.505 26.1969C130.505 27.4649 130.126 28.4929 129.659 28.4929C129.192 28.4929 128.813 27.4649 128.813 26.1969C128.813 24.9289 129.192 23.9009 129.659 23.9009C130.127 23.8999 130.505 24.9279 130.505 26.1969Z" fill="#3D324C"/>
<path d="M128.33 41.6649L130.846 41.4529L130.547 42.8719L128.33 41.6649Z" fill="#3D324C"/>
<path d="M132.308 26.2579L135.944 39.0689H130.981L132.308 26.2579Z" fill="#FF977E"/>
<path d="M127.293 22.542C127.998 22.23 128.756 22.014 129.561 21.995C129.958 21.985 130.394 21.974 130.779 22.181C131.15 22.393 131.486 22.71 131.587 23.126L131.538 23.163C131.164 22.98 130.876 22.834 130.544 22.752C130.226 22.659 129.896 22.543 129.537 22.488C128.82 22.399 128.057 22.461 127.312 22.599L127.293 22.542Z" fill="#3D324C"/>
<path d="M63.225 181.823L44.248 186.504L3.229 71.357L22.205 66.676L63.225 181.823Z" fill="#25B491"/>
<path d="M44.248 186.504L148.609 169.653L147.525 163.649L60.697 174.727L44.248 186.504Z" fill="#25B491"/>
<path d="M42.388 189.65L0.583008 72.2989L5.87501 70.4139L46.109 183.359L148.161 166.881L149.057 172.426L42.388 189.65Z" fill="#375E6A"/>
<path d="M129.486 240.685V234.424L96.9941 175.625L114.446 150.51C115.708 148.695 115.855 146.351 114.831 144.392C113.807 142.433 111.798 141.217 109.588 141.217H59.6511C57.7561 141.217 55.9631 142.134 54.8541 143.671C53.7441 145.208 53.4391 147.2 54.0371 149L64.5301 180.573L34.1581 234.425V240.686H32.9341V242.675H39.7581V240.686H38.6511V234.425L75.2431 196.277H88.4001L124.992 234.425V240.686H123.741V242.675H130.565V240.686H129.486V240.685ZM64.3161 165.09L58.4791 147.525C58.3051 147.003 58.5111 146.603 58.6491 146.412C58.7871 146.221 59.1011 145.899 59.6511 145.899H109.588C110.264 145.899 110.579 146.363 110.683 146.562C110.787 146.761 110.988 147.285 110.603 147.84L98.6151 165.09H64.3161Z" fill="#375E6A"/>
<path d="M10.937 84.546L27.029 80.217L11.342 85.841L10.937 84.546Z" fill="#3D324C"/>
<path d="M15.813 98.333L31.66 93.216L16.282 99.607L15.813 98.333Z" fill="#3D324C"/>
<path d="M19.9541 110.079L35.5091 104.02L20.4981 111.323L19.9541 110.079Z" fill="#3D324C"/>
<path d="M24.3779 122.472L39.9919 116.606L24.9069 123.722L24.3779 122.472Z" fill="#3D324C"/>
<path d="M28.416 133.88L43.852 127.442L28.989 135.111L28.416 133.88Z" fill="#3D324C"/>
<path d="M32.4888 145.278L48.0088 139.109L33.0408 146.518L32.4888 145.278Z" fill="#3D324C"/>
<path d="M35.9771 155.151L51.296 148.337L36.578 156.368L35.9771 155.151Z" fill="#3D324C"/>
<path d="M45.7642 182.775L60.6972 174.727L46.4552 183.943L45.7642 182.775Z" fill="#3D324C"/>
<path d="M40.4858 167.776L55.8868 161.224L41.0668 169.002L40.4858 167.776Z" fill="#3D324C"/>
<path d="M64.3159 165.09C65.4929 168.384 66.6539 171.683 67.7549 175L69.4219 179.971C69.9879 181.625 70.5039 183.295 71.0449 184.957L70.6209 184.646L78.4149 184.599C81.0129 184.582 83.6109 184.621 86.2089 184.63L85.8169 184.848C87.8969 181.522 89.9919 178.206 92.1359 174.919C94.2549 171.617 96.4169 168.342 98.6149 165.09C96.6779 168.505 94.7039 171.896 92.6879 175.262C90.6969 178.643 88.6559 181.993 86.6009 185.334L86.4669 185.551L86.2089 185.552C83.6109 185.56 81.0129 185.6 78.4149 185.582L70.6209 185.535L70.2909 185.533L70.1969 185.224C69.6869 183.552 69.1529 181.888 68.6669 180.209L67.1819 175.18C66.1819 171.831 65.2419 168.463 64.3159 165.09Z" fill="#3D324C"/>
<path d="M96.429 181.674L89.71 193.508L125.96 232.782L96.429 181.674Z" stroke="#3D324C" stroke-miterlimit="10" stroke-linejoin="bevel"/>
<path d="M63.225 186.504L72.876 194.508L37.21 233.077L63.225 186.504Z" stroke="#3D324C" stroke-miterlimit="10" stroke-linejoin="bevel"/>
<path d="M121.727 217.247H80.3721V205.145C80.3721 198.984 85.3851 193.971 91.5461 193.971H110.553C116.714 193.971 121.727 198.984 121.727 205.145V217.247ZM83.5441 214.075H118.555V205.145C118.555 200.733 114.965 197.143 110.553 197.143H91.5461C87.1341 197.143 83.5441 200.733 83.5441 205.145V214.075Z" fill="#3D324C"/>
<path d="M148.77 246.254H55.091C52.82 246.254 50.98 244.413 50.98 242.143V216.184C50.98 210.827 55.323 206.483 60.68 206.483H143.181C148.538 206.483 152.882 210.826 152.882 216.184V242.143C152.882 244.414 151.041 246.254 148.77 246.254Z" fill="#A5616E"/>
<path d="M117.827 226.369H86.0339C74.8339 226.369 65.7549 224.501 65.7549 213.301V206.483H138.107V213.301C138.106 224.501 129.027 226.369 117.827 226.369Z" fill="#25B491"/>
<path d="M101.9 221.515C103.486 221.515 104.772 220.229 104.772 218.643C104.772 217.057 103.486 215.771 101.9 215.771C100.314 215.771 99.0278 217.057 99.0278 218.643C99.0278 220.229 100.314 221.515 101.9 221.515Z" fill="#FFB68E"/>
<path d="M138.157 234.921H66.0479V239.254H138.157V234.921Z" fill="#3D324C"/>
<path d="M60.716 206.483L60.97 226.368C61.009 229.682 61.09 232.997 61.042 236.311C60.976 239.625 60.923 242.939 60.716 246.254H60.643C60.436 242.94 60.383 239.625 60.317 236.311C60.269 232.997 60.35 229.682 60.39 226.368L60.644 206.483H60.716Z" fill="#3D324C"/>
<path d="M143.77 206.483L144.024 226.368C144.063 229.682 144.144 232.997 144.096 236.311C144.03 239.625 143.977 242.939 143.77 246.254H143.698C143.491 242.94 143.438 239.625 143.372 236.311C143.324 232.997 143.405 229.682 143.445 226.368L143.699 206.483H143.77Z" fill="#3D324C"/>
<path d="M426.008 233.017C426.008 233.017 423.748 237.719 416.877 239.014C410.006 240.309 394.577 237.564 394.577 237.564L389.24 237.196C389.24 237.196 387.954 237.128 386.572 235.637C386.366 235.411 386.189 235.175 386.052 234.917C386.042 234.907 386.042 234.907 386.042 234.907C385.182 233.423 385.254 231.465 385.31 230.119C385.438 225.982 388.57 223.666 388.57 223.666C388.57 223.666 398.182 225.663 399.546 224.465C399.546 224.465 412.931 231.706 419.445 231.423C420.217 231.384 420.899 231.387 421.501 231.402C423.289 231.468 424.369 231.742 425.009 232.037C425.995 232.486 426.008 233.017 426.008 233.017Z" fill="#3D324C"/>
<path d="M388.5 237.003L388.524 237.971L399.155 238.273C399.155 238.273 391.242 236.718 388.5 237.003Z" fill="#5D4E75"/>
<path d="M392.96 192.909C392.96 192.909 389.515 222.855 386.636 225.863C386.636 225.863 394.023 232.88 407.299 234.749C413.498 235.851 418.439 233.471 417.974 232.025C417.509 230.58 403.507 227.158 400.441 219.948C397.375 212.739 399.577 188.824 399.577 188.824L392.96 192.909Z" fill="#FFB68E"/>
<path d="M399.401 139.127C401.214 147.284 399.517 216.508 399.517 216.508L388.375 218.558L380.293 163.503C380.293 163.503 352.276 167.832 333.062 169.282C313.848 170.732 306.596 170.188 309.497 151.88C312.397 133.571 397.589 130.97 399.401 139.127Z" fill="#3D324C"/>
<path d="M382.839 41.944C382.839 41.944 359.553 53.292 351.075 53.707C348.898 65.656 355.231 73.379 355.231 73.379C355.231 73.379 371.302 68.256 373.226 73.176C375.15 78.096 382.839 41.944 382.839 41.944Z" fill="#EC9D6C"/>
<path d="M348.831 137.38C315.366 145.057 312.33 161.752 308.4 160.496C305.552 159.586 310.299 107.704 321.126 81.7009C331.953 55.6979 353.448 53.3099 353.448 53.3099C353.448 53.3099 351.238 59.8159 357.252 72.7929C358.041 74.4959 359.726 88.2129 360.525 100.298C360.957 106.838 352.669 107.941 350.621 114.845C347.374 125.786 348.831 137.38 348.831 137.38Z" fill="#5D4E75"/>
<path d="M353.448 53.311C353.448 53.311 358.025 74.299 356.441 85.382C354.858 96.465 347.706 127.095 348.831 137.38C349.956 147.665 312.905 164.532 308.4 160.496C303.895 156.46 314.058 105.352 314.058 105.352C314.058 105.352 319.288 59.906 353.448 53.311Z" fill="#25B491"/>
<path d="M351.112 53.707L351.276 64.882L351.256 64.794L355.513 73.241L355.59 73.394L355.496 73.547L353.462 76.828L353.515 76.577C353.892 78.822 354.195 81.078 354.488 83.336C354.79 85.592 355.038 87.857 355.252 90.127L355.18 90.138C354.707 87.908 354.268 85.673 353.883 83.429C353.489 81.187 353.105 78.943 352.795 76.688L352.776 76.547L352.849 76.437L354.97 73.212L354.953 73.517L350.899 64.971L350.878 64.927L350.879 64.883L351.043 53.708L351.112 53.707Z" fill="#3D324C"/>
<path d="M439.747 117.069L438.659 115.185L413.897 129.482L414.984 131.366L439.747 117.069Z" fill="#3D324C"/>
<path d="M410.755 126.154C410.755 126.154 413.759 121.252 414.866 121.331C415.149 121.351 415.565 121.361 416.028 121.364C417.747 121.377 419.135 122.774 419.135 124.493L427.515 124.019L430.795 122.243C430.795 122.243 433.05 124.968 430.045 125.916C427.04 126.864 424.985 127.181 424.985 127.181C424.985 127.181 426.961 128.762 425.301 130.027C423.641 131.292 422.613 131.9 422.613 132.742C422.613 133.584 419.846 138.328 418.186 138.249C416.526 138.17 403.323 138.25 403.323 138.25L405.062 126.39L410.755 126.154Z" fill="#FFB68E"/>
<path d="M419.139 124.53C418.638 124.696 418.135 124.841 417.629 124.967C417.377 125.037 417.13 125.148 416.868 125.132C416.605 125.113 416.339 125.066 416.059 124.901L416.05 124.829C416.283 124.602 416.53 124.493 416.781 124.413C417.032 124.335 417.298 124.384 417.56 124.392C418.081 124.394 418.604 124.417 419.13 124.459L419.139 124.53Z" fill="#3D324C"/>
<path d="M424.993 127.217C424.756 127.376 424.514 127.516 424.268 127.635C424.147 127.702 424.034 127.809 423.894 127.791C423.753 127.77 423.607 127.723 423.435 127.557L423.419 127.486C423.507 127.264 423.62 127.159 423.739 127.082C423.859 127.007 424.006 127.058 424.144 127.068C424.417 127.074 424.695 127.1 424.977 127.146L424.993 127.217Z" fill="#3D324C"/>
<path d="M353.095 87.6299L367.867 121.975L407.211 126.112V139.889L356.774 134.965L335.021 91.0519C335.021 91.0519 325.357 75.6089 338.274 69.0479C345.651 65.3019 353.095 87.6299 353.095 87.6299Z" fill="#25B491"/>
<path d="M355.179 92.5679C354.024 88.8499 352.711 85.1789 351.231 81.5809C349.727 78.0019 348.108 74.427 345.864 71.27C345.299 70.488 344.672 69.7499 343.963 69.1159C343.248 68.4819 342.438 67.9949 341.488 67.9109C339.604 67.6369 337.626 67.8209 335.903 68.6329C335.02 68.9919 334.26 69.579 333.542 70.19C332.885 70.867 332.264 71.5949 331.845 72.4479C330.95 74.1209 330.588 76.0469 330.61 77.9519C330.637 79.8699 331.005 81.7489 331.662 83.5729C332.262 85.4069 332.994 87.2079 333.767 88.9869C335.296 92.5559 336.97 96.069 338.723 99.541C342.169 106.518 345.84 113.388 349.528 120.251L349.465 120.287C345.416 113.626 341.647 106.8 338.075 99.8659C336.32 96.3839 334.643 92.859 333.106 89.266C332.349 87.465 331.633 85.6429 331.044 83.7689C330.402 81.9209 330.03 79.924 330.03 77.951C330.026 75.974 330.42 73.9559 331.383 72.1959C331.835 71.2999 332.498 70.531 333.202 69.824C333.966 69.182 334.778 68.5729 335.71 68.2019C337.533 67.3659 339.599 67.196 341.551 67.498C342.562 67.594 343.502 68.1599 344.221 68.8229C344.958 69.4929 345.59 70.256 346.158 71.057C348.396 74.291 349.968 77.891 351.432 81.498C352.87 85.122 354.138 88.811 355.248 92.546L355.179 92.5679Z" fill="#3D324C"/>
<path d="M367.864 122.012C366.423 122.027 364.984 122.05 363.551 122.093C362.834 122.121 362.12 122.202 361.409 122.176C360.694 122.149 359.988 122.102 359.254 122.012L359.243 121.94C359.932 121.637 360.666 121.525 361.388 121.451C362.114 121.382 362.839 121.462 363.56 121.513C365.003 121.599 366.439 121.745 367.869 121.94L367.864 122.012Z" fill="#3D324C"/>
<path d="M399.438 125.292C399.543 127.598 399.627 129.904 399.692 132.21C399.731 133.363 399.812 134.516 399.765 135.669C399.715 136.822 399.637 137.975 399.439 139.128H399.367C399.169 137.975 399.091 136.822 399.041 135.669C398.993 134.516 399.074 133.363 399.113 132.21C399.177 129.904 399.262 127.598 399.367 125.292H399.438Z" fill="#3D324C"/>
<path d="M404.222 128.657C404.205 129.243 403.782 129.922 403.052 129.973C402.352 130.031 401.648 129.422 401.628 128.657C401.549 127.908 402.227 127.093 403.052 127.16C403.449 127.175 403.804 127.418 403.991 127.718C404.185 128.019 404.233 128.356 404.222 128.657ZM404.149 128.657C404.14 128.363 403.943 128.11 403.716 127.992C403.484 127.87 403.249 127.868 403.051 127.885C402.664 127.921 402.254 128.193 402.207 128.656C402.155 129.104 402.539 129.583 403.051 129.609C403.3 129.638 403.572 129.57 403.799 129.404C404.02 129.234 404.171 128.949 404.149 128.657Z" fill="#3D324C"/>
<path d="M396.675 54.8669C390.102 63.4729 378.218 77.8139 374.37 75.2979C367.613 70.8809 362.842 59.8279 369.415 51.2219C375.988 42.6159 383.841 34.2889 390.257 39.1889C396.672 44.0889 403.249 46.2609 396.675 54.8669Z" fill="#FFB68E"/>
<path d="M375.458 28.669C379.379 27.442 379.84 26.957 382.839 29.761C382.839 29.761 389.76 27.376 393.638 29.454C402.883 34.409 409.089 46.954 404.288 53.273C398.823 60.466 390.892 50.386 385.612 48.243C380.482 46.161 381.425 47.477 378.321 49.663C372.984 53.421 376.574 50.924 373.824 48.495C371.277 49.105 371.679 59.378 368.832 59.99C366.196 60.557 362.142 60.261 359.499 59.99C359.648 57.91 355.57 34.892 375.458 28.669Z" fill="#3D324C"/>
<path d="M375.023 51.693C373.18 54.106 371.712 56.082 370.236 54.954C368.76 53.827 367.835 50.024 369.678 47.611C371.521 45.198 374.211 44.156 375.687 45.283C377.163 46.411 376.865 49.281 375.023 51.693Z" fill="#FFB68E"/>
<path d="M375.345 47.91C374.807 47.159 373.925 46.597 373.115 46.868C372.323 47.126 371.649 47.805 371.139 48.522C370.584 49.221 370.289 50.076 370.269 50.957C370.269 51.838 370.557 52.737 371.05 53.533C370.366 52.88 369.924 51.961 369.828 50.974C369.75 49.98 370.101 48.977 370.675 48.186C371.276 47.438 371.984 46.677 373.017 46.44C373.53 46.336 374.081 46.476 374.481 46.771C374.877 47.074 375.171 47.471 375.345 47.91Z" fill="#3D324C"/>
<path d="M371.961 47.238C372.26 47.603 372.34 48.003 372.439 48.4C372.471 48.808 372.522 49.213 372.351 49.653C372.05 49.289 371.971 48.888 371.873 48.491C371.841 48.083 371.792 47.678 371.961 47.238Z" fill="#3D324C"/>
<path d="M390.022 60.4669C389.308 61.4029 388.449 61.9479 388.104 61.6839C387.759 61.4209 388.059 60.4489 388.774 59.5129C389.489 58.5769 390.347 58.0329 390.692 58.2959C391.037 58.5599 390.737 59.5319 390.022 60.4669Z" fill="#3D324C"/>
<path d="M390.692 58.2969L391.712 59.3159L390.352 58.8119L390.692 58.2969Z" fill="#3D324C"/>
<path d="M379.701 70.6539L381.676 71.9149L380.657 72.7939L379.701 70.6539Z" fill="#3D324C"/>
<path d="M390.404 62.4989L386.781 73.0279L383.12 70.2319L390.404 62.4989Z" fill="#FF977E"/>
<path d="M389.71 56.1429C390.35 56.2989 390.977 56.5509 391.534 56.9619C391.809 57.1639 392.111 57.3869 392.265 57.7329C392.407 58.0749 392.471 58.4719 392.324 58.8119H392.271C392.112 58.4889 391.992 58.2359 391.809 58.0039C391.642 57.7719 391.477 57.5179 391.262 57.2899C390.821 56.8509 390.271 56.4899 389.694 56.1929L389.71 56.1429Z" fill="#3D324C"/>
<path d="M294.621 101.689L281.385 106.405L297.354 151.228L310.59 146.512L294.621 101.689Z" fill="#5D4E75"/>
<mask id="mask0_549_393" style="mask-type:luminance" maskUnits="userSpaceOnUse" x="277" y="104" width="39" height="44">
<path d="M287.402 104.902L277.505 112.979L305.774 147.617L315.67 139.54L287.402 104.902Z" fill="white"/>
</mask>
<g mask="url(#mask0_549_393)">
<path d="M295.104 103.042L283.071 107.329L298.075 149.445L310.108 145.158L295.104 103.042Z" fill="#FFB68E"/>
</g>
<mask id="mask1_549_393" style="mask-type:luminance" maskUnits="userSpaceOnUse" x="283" y="103" width="28" height="47">
<path d="M295.104 103.042L283.071 107.329L298.075 149.445L310.108 145.158L295.104 103.042Z" fill="white"/>
</mask>
<g mask="url(#mask1_549_393)">
<path d="M296.595 126.23L290.579 128.373L284.928 112.512L292.688 115.262L296.595 126.23Z" fill="#25B491"/>
</g>
<mask id="mask2_549_393" style="mask-type:luminance" maskUnits="userSpaceOnUse" x="283" y="103" width="28" height="47">
<path d="M295.104 103.042L283.071 107.329L298.075 149.445L310.108 145.158L295.104 103.042Z" fill="white"/>
</mask>
<g mask="url(#mask2_549_393)">
<path d="M282.016 110.999L301.977 118.973" stroke="#F7FAFB" stroke-width="0.958" stroke-miterlimit="10"/>
</g>
<mask id="mask3_549_393" style="mask-type:luminance" maskUnits="userSpaceOnUse" x="283" y="103" width="28" height="47">
<path d="M295.104 103.042L283.071 107.329L298.075 149.445L310.108 145.158L295.104 103.042Z" fill="white"/>
</mask>
<g mask="url(#mask3_549_393)">
<path d="M285.465 130.196L303.665 123.711" stroke="#F7FAFB" stroke-width="0.958" stroke-miterlimit="10"/>
</g>
<mask id="mask4_549_393" style="mask-type:luminance" maskUnits="userSpaceOnUse" x="283" y="103" width="28" height="47">
<path d="M295.104 103.042L283.071 107.329L298.075 149.445L310.108 145.158L295.104 103.042Z" fill="white"/>
</mask>
<g mask="url(#mask4_549_393)">
<path d="M297.491 99.7219L292.688 115.262L296.595 126.23" stroke="#F7FAFB" stroke-width="0.958" stroke-miterlimit="10"/>
</g>
<mask id="mask5_549_393" style="mask-type:luminance" maskUnits="userSpaceOnUse" x="283" y="103" width="28" height="47">
<path d="M295.104 103.042L283.071 107.329L298.075 149.445L310.108 145.158L295.104 103.042Z" fill="white"/>
</mask>
<g mask="url(#mask5_549_393)">
<path d="M291.707 127.971L308.313 149.6" stroke="#F7FAFB" stroke-width="0.958" stroke-miterlimit="10"/>
</g>
<mask id="mask6_549_393" style="mask-type:luminance" maskUnits="userSpaceOnUse" x="283" y="103" width="28" height="47">
<path d="M295.104 103.042L283.071 107.329L298.075 149.445L310.108 145.158L295.104 103.042Z" fill="white"/>
</mask>
<g mask="url(#mask6_549_393)">
<path d="M290.301 140.677L310.106 139.172" stroke="#F7FAFB" stroke-width="0.958" stroke-miterlimit="10"/>
</g>
<path d="M317.294 137.515L314.599 117.44C314.229 114.68 314.955 111.941 316.644 109.729C318.334 107.516 320.783 106.093 323.543 105.723L333.287 104.415C338.979 103.657 344.241 107.663 345.005 113.359L347.7 133.434L317.294 137.515ZM334.678 108.911C334.42 108.911 334.16 108.928 333.898 108.963L324.154 110.271C322.61 110.478 321.239 111.274 320.294 112.513C319.349 113.751 318.942 115.284 319.149 116.827L321.233 132.353L342.54 129.492L340.456 113.968C340.062 111.043 337.552 108.911 334.678 108.911Z" fill="#3D324C"/>
<path d="M368.429 165.089L305.648 173.517L300.209 133.005C299.577 128.3 302.88 123.973 307.585 123.341L353.326 117.2C358.031 116.568 362.358 119.871 362.99 124.576L368.429 165.089Z" fill="#A5616E"/>
<path d="M362.962 128.368L369.232 127.526C371.089 127.277 372.798 128.58 373.047 130.438L377.083 160.502C377.332 162.36 376.029 164.068 374.171 164.317L367.901 165.159L362.962 128.368Z" fill="#A5616E"/>
<path d="M301.237 136.655L294.967 137.497C293.109 137.746 291.806 139.455 292.055 141.312L296.091 171.376C296.34 173.234 298.048 174.537 299.906 174.288L306.176 173.446L301.237 136.655Z" fill="#A5616E"/>
<path d="M300.745 136.721L303.466 155.083C303.916 158.144 304.408 161.199 304.773 164.271C305.119 167.346 305.478 170.419 305.684 173.512L305.612 173.522C304.995 170.484 304.531 167.425 304.054 164.367C303.595 161.307 303.264 158.231 302.891 155.16L300.673 136.731L300.745 136.721Z" fill="#3D324C"/>
<path d="M363.538 128.291L366.266 146.704C366.718 149.773 367.21 152.837 367.576 155.918C367.923 159.001 368.284 162.083 368.491 165.185L368.419 165.195C367.801 162.148 367.335 159.081 366.857 156.015C366.397 152.947 366.065 149.862 365.691 146.782L363.466 128.302L363.538 128.291Z" fill="#3D324C"/>
<path d="M302.963 153.518L334.437 149.318L342.305 148.262L350.181 147.271C355.44 146.678 360.698 146.073 365.974 145.621L365.983 145.693C360.758 146.557 355.514 147.267 350.271 147.991L342.394 148.975L334.509 149.894L302.972 153.591L302.963 153.518Z" fill="#3D324C"/>
<path d="M337.567 142.13L329.331 143.235L330.436 151.471L338.672 150.366L337.567 142.13Z" fill="#FFB68E"/>
<path d="M295.994 181.678L277.017 186.358L235.998 71.211L254.974 66.53L295.994 181.678Z" fill="#25B491"/>
<path d="M277.017 186.358L381.378 169.508L380.294 163.503L293.466 174.581L277.017 186.358Z" fill="#25B491"/>
<path d="M275.156 189.504L233.352 72.1529L238.644 70.2679L278.878 183.213L380.93 166.735L381.826 172.28L275.156 189.504Z" fill="#375E6A"/>
<path d="M362.255 240.539V234.278L329.763 175.479L347.215 150.364C348.477 148.549 348.624 146.205 347.6 144.246C346.576 142.287 344.567 141.07 342.357 141.07H292.42C290.525 141.07 288.732 141.987 287.623 143.524C286.513 145.061 286.208 147.053 286.806 148.853L297.299 180.426L266.927 234.278V240.539H265.703V242.528H272.527V240.539H271.42V234.278L308.012 196.13H321.169L357.761 234.278V240.539H356.51V242.528H363.334V240.539H362.255ZM297.085 164.944L291.248 147.379C291.074 146.857 291.28 146.457 291.418 146.266C291.556 146.075 291.871 145.754 292.42 145.754H342.357C343.033 145.754 343.348 146.218 343.452 146.417C343.556 146.616 343.757 147.14 343.372 147.695L331.384 164.945H297.085V164.944Z" fill="#375E6A"/>
<path d="M243.706 84.4L259.798 80.071L244.111 85.695L243.706 84.4Z" fill="#3D324C"/>
<path d="M248.582 98.188L264.429 93.07L249.051 99.461L248.582 98.188Z" fill="#3D324C"/>
<path d="M252.723 109.933L268.278 103.874L253.267 111.177L252.723 109.933Z" fill="#3D324C"/>
<path d="M257.147 122.327L272.761 116.46L257.676 123.577L257.147 122.327Z" fill="#3D324C"/>
<path d="M261.185 133.734L276.621 127.296L261.758 134.965L261.185 133.734Z" fill="#3D324C"/>
<path d="M265.258 145.133L280.778 138.963L265.81 146.372L265.258 145.133Z" fill="#3D324C"/>
<path d="M268.746 155.005L284.065 148.191L269.347 156.222L268.746 155.005Z" fill="#3D324C"/>
<path d="M278.533 182.629L293.466 174.581L279.224 183.797L278.533 182.629Z" fill="#3D324C"/>
<path d="M273.255 167.63L288.656 161.078L273.836 168.856L273.255 167.63Z" fill="#3D324C"/>
<path d="M297.085 164.944C298.262 168.238 299.423 171.537 300.524 174.854L302.191 179.825C302.757 181.479 303.273 183.149 303.814 184.811L303.39 184.5L311.184 184.453C313.782 184.435 316.38 184.475 318.978 184.484L318.586 184.702C320.666 181.376 322.761 178.06 324.905 174.773C327.024 171.471 329.186 168.196 331.384 164.944C329.447 168.359 327.473 171.75 325.457 175.116C323.465 178.497 321.425 181.847 319.37 185.188L319.236 185.405L318.978 185.406C316.38 185.414 313.782 185.454 311.184 185.437L303.39 185.39L303.06 185.388L302.966 185.079C302.456 183.407 301.922 181.743 301.436 180.064L299.951 175.035C298.951 171.685 298.011 168.317 297.085 164.944Z" fill="#3D324C"/>
<path d="M329.198 181.529L322.478 193.362L358.729 232.636L329.198 181.529Z" stroke="#3D324C" stroke-miterlimit="10" stroke-linejoin="bevel"/>
<path d="M295.994 186.358L305.645 194.362L269.978 232.931L295.994 186.358Z" stroke="#3D324C" stroke-miterlimit="10" stroke-linejoin="bevel"/>
<path d="M694.426 195.869C694.426 195.869 696.937 200.471 693.965 206.836C690.993 213.202 679.705 224.182 679.705 224.182L676.275 228.321C676.275 228.321 675.465 229.33 673.439 229.584C673.134 229.62 672.837 229.625 672.547 229.586C672.533 229.589 672.533 229.589 672.533 229.589C670.818 229.421 669.262 228.214 668.197 227.378C664.896 224.848 664.844 220.934 664.844 220.934C664.844 220.934 672.11 214.263 671.933 212.447C671.933 212.447 685.69 205.772 689.279 200.29C689.699 199.637 690.102 199.082 690.467 198.6C691.569 197.18 692.394 196.396 693.042 196.11C693.807 195.772 694.426 195.869 694.426 195.869Z" fill="#398893"/>
<path d="M675.683 228.812L676.487 229.36L682.968 220.862C682.968 220.862 677.059 226.407 675.683 228.812Z" fill="#5D4E75"/>
<path d="M668.986 224.307C669.244 224.502 669.295 224.87 669.1 225.128C668.905 225.386 668.537 225.437 668.279 225.242C668.021 225.047 667.97 224.679 668.165 224.421C668.36 224.163 668.728 224.112 668.986 224.307Z" fill="#5D4E75"/>
<path d="M671.501 224.738C671.759 224.933 671.81 225.301 671.615 225.559C671.42 225.817 671.052 225.868 670.794 225.673C670.536 225.478 670.485 225.11 670.68 224.852C670.875 224.594 671.243 224.543 671.501 224.738Z" fill="#5D4E75"/>
<path d="M674.264 224.413C674.522 224.608 674.573 224.976 674.378 225.234C674.183 225.492 673.815 225.543 673.557 225.348C673.299 225.153 673.248 224.785 673.443 224.527C673.639 224.268 674.006 224.217 674.264 224.413Z" fill="#5D4E75"/>
<path d="M678.629 221.209C678.887 221.404 678.938 221.772 678.743 222.03C678.548 222.288 678.18 222.339 677.922 222.144C677.664 221.949 677.613 221.581 677.808 221.323C678.003 221.065 678.37 221.013 678.629 221.209Z" fill="#5D4E75"/>
<path d="M684.795 216.938C685.053 217.133 685.104 217.501 684.909 217.759C684.714 218.017 684.346 218.068 684.088 217.873C683.83 217.678 683.779 217.31 683.974 217.052C684.169 216.794 684.537 216.743 684.795 216.938Z" fill="#5D4E75"/>
<path d="M686.648 211.914C686.906 212.109 686.957 212.477 686.762 212.735C686.567 212.993 686.199 213.044 685.941 212.849C685.683 212.654 685.632 212.286 685.827 212.028C686.022 211.77 686.39 211.719 686.648 211.914Z" fill="#5D4E75"/>
<path d="M689.424 211.348C689.682 211.543 689.733 211.911 689.538 212.169C689.343 212.427 688.975 212.478 688.717 212.283C688.459 212.088 688.408 211.72 688.603 211.462C688.798 211.204 689.165 211.153 689.424 211.348Z" fill="#5D4E75"/>
<path d="M691.127 208.559C691.385 208.754 691.436 209.122 691.241 209.38C691.046 209.638 690.678 209.689 690.42 209.494C690.162 209.299 690.111 208.931 690.306 208.673C690.501 208.415 690.869 208.364 691.127 208.559Z" fill="#5D4E75"/>
<path d="M692.995 205.116C693.253 205.311 693.304 205.679 693.109 205.937C692.914 206.195 692.546 206.246 692.288 206.051C692.03 205.856 691.979 205.488 692.174 205.23C692.369 204.972 692.736 204.921 692.995 205.116Z" fill="#5D4E75"/>
<path d="M693.777 201.686C694.035 201.881 694.086 202.249 693.891 202.507C693.696 202.765 693.328 202.816 693.07 202.621C692.812 202.426 692.761 202.058 692.956 201.8C693.151 201.542 693.519 201.491 693.777 201.686Z" fill="#5D4E75"/>
<path d="M693.003 198.646C693.261 198.841 693.312 199.209 693.117 199.467C692.922 199.725 692.554 199.776 692.296 199.581C692.038 199.386 691.987 199.018 692.182 198.76C692.377 198.502 692.745 198.451 693.003 198.646Z" fill="#5D4E75"/>
<path d="M693.692 196.347C693.95 196.542 694.001 196.91 693.806 197.168C693.611 197.426 693.243 197.477 692.985 197.282C692.727 197.087 692.676 196.719 692.871 196.461C693.067 196.203 693.434 196.152 693.692 196.347Z" fill="#5D4E75"/>
<path d="M691.478 203.235C691.736 203.43 691.787 203.798 691.592 204.056C691.397 204.314 691.029 204.365 690.771 204.17C690.513 203.975 690.462 203.607 690.657 203.349C690.852 203.091 691.219 203.04 691.478 203.235Z" fill="#5D4E75"/>
<path d="M690.602 200.436C690.86 200.631 690.911 200.999 690.716 201.257C690.521 201.515 690.153 201.566 689.895 201.371C689.637 201.176 689.586 200.808 689.781 200.55C689.977 200.292 690.344 200.241 690.602 200.436Z" fill="#5D4E75"/>
<path d="M679.957 217.852C680.215 218.047 680.266 218.415 680.071 218.673C679.876 218.931 679.508 218.982 679.25 218.787C678.992 218.592 678.941 218.224 679.136 217.966C679.331 217.708 679.699 217.657 679.957 217.852Z" fill="#5D4E75"/>
<path d="M677.39 219.304C677.648 219.499 677.699 219.867 677.504 220.125C677.309 220.383 676.941 220.434 676.683 220.239C676.425 220.044 676.374 219.676 676.569 219.418C676.765 219.16 677.132 219.109 677.39 219.304Z" fill="#5D4E75"/>
<path d="M674.34 226.884C674.598 227.079 674.649 227.447 674.454 227.705C674.259 227.963 673.891 228.014 673.633 227.819C673.375 227.624 673.324 227.256 673.519 226.998C673.714 226.74 674.081 226.689 674.34 226.884Z" fill="#5D4E75"/>
<path d="M672.858 222.386C673.116 222.581 673.167 222.949 672.972 223.207C672.777 223.465 672.409 223.516 672.151 223.321C671.893 223.126 671.842 222.758 672.037 222.5C672.232 222.242 672.599 222.191 672.858 222.386Z" fill="#5D4E75"/>
<path d="M677.308 223.928C677.566 224.123 677.617 224.491 677.422 224.749C677.227 225.007 676.859 225.058 676.601 224.863C676.343 224.668 676.292 224.3 676.487 224.042C676.683 223.784 677.05 223.733 677.308 223.928Z" fill="#5D4E75"/>
<path d="M675.49 221.819C675.748 222.014 675.799 222.382 675.604 222.64C675.409 222.898 675.041 222.949 674.783 222.754C674.525 222.559 674.474 222.191 674.669 221.933C674.864 221.675 675.232 221.624 675.49 221.819Z" fill="#5D4E75"/>
<path d="M682.186 217.473C682.444 217.668 682.495 218.036 682.3 218.294C682.105 218.552 681.737 218.603 681.479 218.408C681.221 218.213 681.17 217.845 681.365 217.587C681.56 217.329 681.928 217.278 682.186 217.473Z" fill="#5D4E75"/>
<path d="M687.576 213.872C687.834 214.067 687.885 214.435 687.69 214.693C687.495 214.951 687.127 215.002 686.869 214.807C686.611 214.612 686.56 214.244 686.755 213.986C686.95 213.728 687.318 213.677 687.576 213.872Z" fill="#5D4E75"/>
<path d="M688.758 209.122C689.016 209.317 689.067 209.685 688.872 209.943C688.677 210.201 688.309 210.252 688.051 210.057C687.793 209.862 687.742 209.494 687.937 209.236C688.133 208.978 688.5 208.927 688.758 209.122Z" fill="#5D4E75"/>
<path d="M681.363 220.507C681.621 220.702 681.672 221.07 681.477 221.328C681.282 221.586 680.914 221.637 680.656 221.442C680.398 221.247 680.347 220.879 680.542 220.621C680.737 220.363 681.105 220.312 681.363 220.507Z" fill="#5D4E75"/>
<path d="M684.07 214.353C684.328 214.548 684.379 214.916 684.184 215.174C683.989 215.432 683.621 215.483 683.363 215.288C683.105 215.093 683.054 214.725 683.249 214.467C683.445 214.209 683.812 214.158 684.07 214.353Z" fill="#5D4E75"/>
<path d="M690.274 206.145C690.532 206.34 690.583 206.708 690.388 206.966C690.193 207.224 689.825 207.275 689.567 207.08C689.309 206.885 689.258 206.517 689.453 206.259C689.648 206.001 690.016 205.95 690.274 206.145Z" fill="#5D4E75"/>
<path d="M671.576 226.998C671.834 227.193 671.885 227.561 671.69 227.819C671.495 228.077 671.127 228.128 670.869 227.933C670.611 227.738 670.56 227.37 670.755 227.112C670.95 226.854 671.317 226.803 671.576 226.998Z" fill="#5D4E75"/>
<path d="M635.921 201.715C635.921 201.715 664.734 219.687 665.5 223.8C665.5 223.8 675.558 221.887 684.867 212.151C689.402 207.739 690.356 202.312 688.904 201.844C687.452 201.375 676.449 210.795 668.769 209.068C661.089 207.342 642.866 191.523 642.866 191.523L635.921 201.715Z" fill="#EC9D6C"/>
<path d="M597.292 155.658C605.498 157.235 657.668 198.631 657.668 198.631L648.459 210.845L605.283 184.717C605.283 184.717 566.119 162.594 549.592 167.925C531.253 173.841 512.853 165.035 514.385 149.536C516.207 131.089 589.086 154.081 597.292 155.658Z" fill="#32283E"/>
<path d="M664.176 204.12L655.36 215.972L646.833 211.646L657.58 197.198L664.176 204.12Z" fill="#3D324C"/>
<path d="M631.184 236.683C631.184 236.683 629.027 241.461 622.156 242.928C615.286 244.395 599.72 242.01 599.72 242.01L594.35 241.769C594.35 241.769 593.057 241.731 591.633 240.268C591.42 240.046 591.237 239.813 591.094 239.558C591.083 239.549 591.083 239.549 591.083 239.549C590.184 238.08 590.208 236.111 590.233 234.757C590.261 230.598 593.352 228.197 593.352 228.197C593.352 228.197 603.055 229.971 604.397 228.735C604.397 228.735 618.017 235.685 624.554 235.244C625.328 235.186 626.014 235.172 626.619 235.173C628.416 235.196 629.539 235.382 630.158 235.726C630.888 236.131 631.184 236.683 631.184 236.683Z" fill="#25B491"/>
<path d="M593.602 241.593L593.65 242.565L604.337 242.612C604.337 242.612 596.351 241.24 593.602 241.593Z" fill="#5D4E75"/>
<path d="M593.158 233.534C593.158 233.858 592.896 234.12 592.572 234.12C592.248 234.12 591.986 233.858 591.986 233.534C591.986 233.21 592.248 232.948 592.572 232.948C592.896 232.948 593.158 233.21 593.158 233.534Z" fill="#5D4E75"/>
<path d="M594.33 235.8C594.33 236.124 594.068 236.386 593.744 236.386C593.42 236.386 593.158 236.124 593.158 235.8C593.158 235.476 593.42 235.214 593.744 235.214C594.068 235.214 594.33 235.476 594.33 235.8Z" fill="#5D4E75"/>
<path d="M596.256 237.808C596.256 238.132 595.994 238.394 595.67 238.394C595.346 238.394 595.084 238.132 595.084 237.808C595.084 237.484 595.346 237.222 595.67 237.222C595.994 237.222 596.256 237.484 596.256 237.808Z" fill="#5D4E75"/>
<path d="M601.444 239.358C601.444 239.682 601.182 239.944 600.858 239.944C600.534 239.944 600.272 239.682 600.272 239.358C600.272 239.034 600.534 238.772 600.858 238.772C601.181 238.772 601.444 239.035 601.444 239.358Z" fill="#5D4E75"/>
<path d="M608.569 241.702C608.569 242.026 608.307 242.288 607.983 242.288C607.659 242.288 607.397 242.026 607.397 241.702C607.397 241.378 607.659 241.116 607.983 241.116C608.306 241.116 608.569 241.379 608.569 241.702Z" fill="#5D4E75"/>
<path d="M613.694 240.152C613.694 240.476 613.432 240.738 613.108 240.738C612.784 240.738 612.522 240.476 612.522 240.152C612.522 239.828 612.784 239.566 613.108 239.566C613.431 239.566 613.694 239.829 613.694 240.152Z" fill="#5D4E75"/>
<path d="M615.819 242.025C615.819 242.349 615.557 242.611 615.233 242.611C614.909 242.611 614.647 242.349 614.647 242.025C614.647 241.701 614.909 241.439 615.233 241.439C615.556 241.439 615.819 241.702 615.819 242.025Z" fill="#5D4E75"/>
<path d="M619.072 241.702C619.072 242.026 618.81 242.288 618.486 242.288C618.162 242.288 617.9 242.026 617.9 241.702C617.9 241.378 618.162 241.116 618.486 241.116C618.809 241.116 619.072 241.379 619.072 241.702Z" fill="#5D4E75"/>
<path d="M622.944 241.116C622.944 241.44 622.682 241.702 622.358 241.702C622.034 241.702 621.772 241.44 621.772 241.116C621.772 240.792 622.034 240.53 622.358 240.53C622.681 240.53 622.944 240.793 622.944 241.116Z" fill="#5D4E75"/>
<path d="M626.152 239.672C626.152 239.996 625.89 240.258 625.566 240.258C625.242 240.258 624.98 239.996 624.98 239.672C624.98 239.348 625.242 239.086 625.566 239.086C625.89 239.086 626.152 239.349 626.152 239.672Z" fill="#5D4E75"/>
<path d="M628.11 237.222C628.11 237.546 627.848 237.808 627.524 237.808C627.2 237.808 626.938 237.546 626.938 237.222C626.938 236.898 627.2 236.636 627.524 236.636C627.848 236.636 628.11 236.898 628.11 237.222Z" fill="#5D4E75"/>
<path d="M630.36 236.386C630.36 236.71 630.098 236.972 629.774 236.972C629.45 236.972 629.188 236.71 629.188 236.386C629.188 236.062 629.45 235.8 629.774 235.8C630.098 235.8 630.36 236.062 630.36 236.386Z" fill="#5D4E75"/>
<path d="M623.53 238.772C623.53 239.096 623.268 239.358 622.944 239.358C622.62 239.358 622.358 239.096 622.358 238.772C622.358 238.448 622.62 238.186 622.944 238.186C623.267 238.186 623.53 238.448 623.53 238.772Z" fill="#5D4E75"/>
<path d="M625.235 236.386C625.235 236.71 624.973 236.972 624.649 236.972C624.325 236.972 624.063 236.71 624.063 236.386C624.063 236.062 624.325 235.8 624.649 235.8C624.973 235.8 625.235 236.062 625.235 236.386Z" fill="#5D4E75"/>
<path d="M604.923 238.394C604.923 238.718 604.661 238.98 604.337 238.98C604.013 238.98 603.751 238.718 603.751 238.394C603.751 238.07 604.013 237.808 604.337 237.808C604.66 237.808 604.923 238.07 604.923 238.394Z" fill="#5D4E75"/>
<path d="M602.217 237.222C602.217 237.546 601.955 237.808 601.631 237.808C601.307 237.808 601.045 237.546 601.045 237.222C601.045 236.898 601.307 236.636 601.631 236.636C601.954 236.636 602.217 236.898 602.217 237.222Z" fill="#5D4E75"/>
<path d="M594.33 239.358C594.33 239.682 594.068 239.944 593.744 239.944C593.42 239.944 593.158 239.682 593.158 239.358C593.158 239.034 593.42 238.772 593.744 238.772C594.068 238.772 594.33 239.035 594.33 239.358Z" fill="#5D4E75"/>
<path d="M597.025 235.464C597.025 235.788 596.763 236.05 596.439 236.05C596.115 236.05 595.853 235.788 595.853 235.464C595.853 235.14 596.115 234.878 596.439 234.878C596.763 234.878 597.025 235.14 597.025 235.464Z" fill="#5D4E75"/>
<path d="M598.479 239.944C598.479 240.268 598.217 240.53 597.893 240.53C597.569 240.53 597.307 240.268 597.307 239.944C597.307 239.62 597.569 239.358 597.893 239.358C598.216 239.358 598.479 239.621 598.479 239.944Z" fill="#5D4E75"/>
<path d="M599.065 237.222C599.065 237.546 598.803 237.808 598.479 237.808C598.155 237.808 597.893 237.546 597.893 237.222C597.893 236.898 598.155 236.636 598.479 236.636C598.802 236.636 599.065 236.898 599.065 237.222Z" fill="#5D4E75"/>
<path d="M606.569 239.944C606.569 240.268 606.307 240.53 605.983 240.53C605.659 240.53 605.397 240.268 605.397 239.944C605.397 239.62 605.659 239.358 605.983 239.358C606.306 239.358 606.569 239.621 606.569 239.944Z" fill="#5D4E75"/>
<path d="M612.691 242.073C612.691 242.397 612.429 242.659 612.105 242.659C611.781 242.659 611.519 242.397 611.519 242.073C611.519 241.749 611.781 241.487 612.105 241.487C612.429 241.487 612.691 241.749 612.691 242.073Z" fill="#5D4E75"/>
<path d="M617.194 240.152C617.194 240.476 616.932 240.738 616.608 240.738C616.284 240.738 616.022 240.476 616.022 240.152C616.022 239.828 616.284 239.566 616.608 239.566C616.931 239.566 617.194 239.829 617.194 240.152Z" fill="#5D4E75"/>
<path d="M603.652 241.116C603.652 241.44 603.39 241.702 603.066 241.702C602.742 241.702 602.48 241.44 602.48 241.116C602.48 240.792 602.742 240.53 603.066 240.53C603.39 240.53 603.652 240.793 603.652 241.116Z" fill="#5D4E75"/>
<path d="M610.194 239.566C610.194 239.89 609.932 240.152 609.608 240.152C609.284 240.152 609.022 239.89 609.022 239.566C609.022 239.242 609.284 238.98 609.608 238.98C609.931 238.98 610.194 239.243 610.194 239.566Z" fill="#5D4E75"/>
<path d="M620.483 239.566C620.483 239.89 620.221 240.152 619.897 240.152C619.573 240.152 619.311 239.89 619.311 239.566C619.311 239.242 619.573 238.98 619.897 238.98C620.22 238.98 620.483 239.243 620.483 239.566Z" fill="#5D4E75"/>
<path d="M592.572 237.222C592.572 237.546 592.31 237.808 591.986 237.808C591.662 237.808 591.4 237.546 591.4 237.222C591.4 236.898 591.662 236.636 591.986 236.636C592.31 236.636 592.572 236.898 592.572 237.222Z" fill="#5D4E75"/>
<path d="M591.245 193.533C591.245 193.533 594.28 227.356 591.461 230.447C591.461 230.447 599.051 237.318 612.432 238.874C618.686 239.832 623.591 237.321 623.089 235.88C622.587 234.439 608.439 231.34 605.185 224.172C601.931 217.004 603.565 192.929 603.565 192.929L591.245 193.533Z" fill="#FFB68E"/>
<path d="M604.711 128.747C608.572 136.158 605.366 208.296 605.366 208.296L590.074 208.665L583.735 158.598C583.735 158.598 556.96 169.337 538.774 175.708C520.588 182.079 513.443 183.43 511.509 164.994C509.574 146.558 600.849 121.336 604.711 128.747Z" fill="#3D324C"/>
<path d="M604.997 216.008H590.225L588.608 206.585H606.615L604.997 216.008Z" fill="#5D4E75"/>
<path d="M495.68 44.051C495.68 44.051 485.848 68.017 479.796 73.968C486.122 84.336 495.987 85.888 495.987 85.888C495.987 85.888 504.575 71.37 509.285 73.763C513.995 76.154 495.68 44.051 495.68 44.051Z" fill="#EC9D6C"/>
<path d="M539.921 143.141C519.096 170.439 519.76 179.244 515.935 180.791C513.164 181.912 483.646 138.982 475.347 112.065C467.049 85.148 482.051 69.571 482.051 69.571C482.051 69.571 484.198 76.748 497.12 82.882C498.815 83.687 506.23 91.303 514.57 100.085C519.084 104.838 516.378 112.078 519.216 118.696C523.714 129.184 539.921 143.141 539.921 143.141Z" fill="#A5616E"/>
<path d="M538.791 136.459C538.791 136.459 544.706 130.04 548.379 132.166C557.608 137.506 550.641 139.562 546.324 140.523C542.008 141.485 538.791 136.459 538.791 136.459Z" fill="#FFB68E"/>
<path d="M523.328 150.322L542.888 132.686L550.508 140.661L526.705 166.636C523.396 168.969 518.845 168.339 516.295 165.194C516.295 165.194 469.861 103.46 479.583 92.719C487.087 84.429 523.328 150.322 523.328 150.322Z" fill="#A5616E"/>
<path d="M489.888 96.402L506.801 123.242L515.251 136.666C518.056 141.148 520.87 145.624 523.607 150.148L523.112 150.073C527.318 146.475 531.554 142.91 535.834 139.397L535.882 139.452C531.809 143.203 527.691 146.903 523.544 150.569L523.258 150.822L523.049 150.494C520.208 146.035 517.444 141.527 514.67 137.026L506.385 123.5L489.827 96.44L489.888 96.402Z" fill="#3D324C"/>
<path d="M516.268 165.216C512.031 159.635 507.935 153.947 503.952 148.179C499.981 142.403 496.147 136.531 492.511 130.534C490.693 127.535 488.908 124.515 487.231 121.433C485.536 118.362 483.919 115.245 482.44 112.062C481.684 110.479 480.974 108.872 480.293 107.255C479.62 105.638 478.949 103.999 478.469 102.306C477.986 100.616 477.591 98.8879 477.499 97.1219C477.461 96.2439 477.491 95.342 477.769 94.493C478.02 93.644 478.686 92.876 479.575 92.684L479.593 92.754C478.734 92.966 478.127 93.708 477.902 94.535C477.654 95.362 477.645 96.2469 477.705 97.1089C477.839 98.8439 478.274 100.546 478.793 102.207C479.302 103.878 479.971 105.483 480.719 107.067C481.468 108.647 482.211 110.229 482.996 111.792C486.137 118.041 489.494 124.182 493.033 130.221C496.577 136.258 500.348 142.161 504.255 147.973C508.155 153.79 512.168 159.534 516.325 165.172L516.268 165.216Z" fill="#3D324C"/>
<path d="M516.915 48.422C516.417 59.24 514.823 77.796 510.226 77.922C502.156 78.142 491.938 71.778 492.436 60.96C492.934 50.142 494.643 38.825 502.707 39.196C510.772 39.567 517.413 37.605 516.915 48.422Z" fill="#FFB68E"/>
<path d="M484.552 38.983C487.305 35.933 490.158 33.489 492.85 34.435C492.85 34.435 494.688 32.528 498.894 31.237C510.899 27.553 521.364 38.012 521.019 45.941C520.626 54.966 502.299 51.094 500.994 54.659C498.75 60.789 496.958 57.347 493.313 56.918C491.568 58.87 493.425 90.543 490.555 91.036C454.929 97.152 480.604 59.062 480.42 54.318C480.214 49.013 480.96 42.964 484.552 38.983Z" fill="#3D324C"/>
<path d="M497.313 58.152C497.173 61.185 497.093 63.645 495.238 63.559C493.383 63.474 490.456 60.875 490.596 57.842C490.736 54.809 492.353 52.42 494.208 52.505C496.063 52.59 497.453 55.119 497.313 58.152Z" fill="#FFB68E"/>
<path d="M495.422 54.859C494.552 54.548 493.507 54.589 492.996 55.273C492.492 55.936 492.326 56.878 492.314 57.758C492.256 58.648 492.501 59.519 492.987 60.254C493.489 60.978 494.238 61.553 495.097 61.926C494.163 61.779 493.276 61.276 492.635 60.52C492.004 59.748 491.721 58.723 491.742 57.746C491.81 56.788 491.958 55.76 492.672 54.977C493.034 54.599 493.567 54.4 494.063 54.414C494.561 54.439 495.03 54.598 495.422 54.859Z" fill="#3D324C"/>
<path d="M492.258 56.235C492.711 56.364 493.005 56.647 493.313 56.918C493.572 57.235 493.844 57.538 493.955 57.998C493.5 57.87 493.207 57.586 492.9 57.316C492.642 56.998 492.37 56.693 492.258 56.235Z" fill="#3D324C"/>
<path d="M514.639 56.8159C514.585 57.9919 514.19 58.9289 513.757 58.9089C513.324 58.8889 513.016 57.92 513.07 56.744C513.124 55.568 513.519 54.6309 513.953 54.6509C514.386 54.6699 514.693 55.6399 514.639 56.8159Z" fill="#3D324C"/>
<path d="M513.953 54.65L515.371 54.906L513.967 55.268L513.953 54.65Z" fill="#3D324C"/>
<path d="M511.962 70.048L514.303 70.979L513.966 72.282L511.962 70.048Z" fill="#3D324C"/>
<path d="M516.11 58.2679L519.133 68.9849L514.531 68.7729L516.11 58.2679Z" fill="#FF977E"/>
<path d="M511.332 53.408C512.087 53.118 512.895 52.9329 513.744 52.9579C514.163 52.9699 514.623 52.984 515.021 53.225C515.403 53.471 515.745 53.826 515.835 54.272L515.781 54.3079C515.395 54.0929 515.097 53.9219 514.75 53.8159C514.419 53.6989 514.075 53.5579 513.7 53.4779C512.948 53.3429 512.141 53.3639 511.351 53.4689L511.332 53.408Z" fill="#3D324C"/>
<path d="M501.932 181.18L482.955 185.861L441.936 70.713L460.913 66.032L501.932 181.18Z" fill="#25B491"/>
<path d="M482.955 185.861L587.316 169.01L586.232 163.005L499.404 174.084L482.955 185.861Z" fill="#25B491"/>
<path d="M481.095 189.006L439.29 71.656L444.582 69.77L484.817 182.716L586.868 166.238L587.764 171.782L481.095 189.006Z" fill="#375E6A"/>
<path d="M568.194 240.042V233.781L535.702 174.982L553.154 149.867C554.416 148.052 554.563 145.708 553.539 143.749C552.515 141.79 550.506 140.573 548.296 140.573H498.359C496.464 140.573 494.671 141.49 493.562 143.027C492.452 144.564 492.147 146.556 492.745 148.355L503.238 179.928L472.866 233.78V240.041H471.642V242.03H478.466V240.041H477.359V233.78L513.951 195.631H527.108L563.7 233.78V240.041H562.449V242.03H569.273V240.041H568.194V240.042ZM503.024 164.446L497.187 146.881C497.013 146.358 497.219 145.959 497.357 145.768C497.495 145.577 497.81 145.255 498.359 145.255H548.296C548.972 145.255 549.287 145.719 549.391 145.918C549.495 146.117 549.696 146.641 549.311 147.196L537.323 164.446H503.024Z" fill="#375E6A"/>
<path d="M449.644 83.902L465.736 79.573L450.05 85.197L449.644 83.902Z" fill="#3D324C"/>
<path d="M454.52 97.69L470.367 92.573L454.989 98.964L454.52 97.69Z" fill="#3D324C"/>
<path d="M474.488 103.998L458.934 110.057L473.944 102.755L474.488 103.998Z" fill="#3D324C"/>
<path d="M463.085 121.829L478.699 115.963L463.614 123.079L463.085 121.829Z" fill="#3D324C"/>
<path d="M467.123 133.237L482.56 126.798L467.696 134.467L467.123 133.237Z" fill="#3D324C"/>
<path d="M471.196 144.635L486.716 138.466L471.748 145.875L471.196 144.635Z" fill="#3D324C"/>
<path d="M474.684 154.507L490.003 147.694L475.285 155.724L474.684 154.507Z" fill="#3D324C"/>
<path d="M484.471 182.132L499.404 174.084L485.162 183.299L484.471 182.132Z" fill="#3D324C"/>
<path d="M479.193 167.132L494.594 160.581L479.774 168.358L479.193 167.132Z" fill="#3D324C"/>
<path d="M503.024 164.446C504.201 167.74 505.362 171.038 506.463 174.356L508.13 179.328C508.696 180.982 509.212 182.652 509.753 184.313L509.329 184.002L517.123 183.955C519.721 183.937 522.319 183.977 524.917 183.986L524.525 184.204C526.605 180.878 528.7 177.562 530.844 174.275C532.963 170.974 535.125 167.698 537.323 164.446C535.386 167.861 533.412 171.252 531.396 174.618C529.404 177.999 527.364 181.349 525.309 184.69L525.175 184.907L524.917 184.908C522.319 184.916 519.721 184.956 517.123 184.939L509.329 184.892L508.999 184.89L508.905 184.581C508.395 182.909 507.861 181.245 507.375 179.566L505.89 174.537C504.889 171.188 503.949 167.819 503.024 164.446Z" fill="#3D324C"/>
<path d="M535.136 181.031L528.417 192.864L564.667 232.138L535.136 181.031Z" stroke="#3D324C" stroke-miterlimit="10" stroke-linejoin="bevel"/>
<path d="M501.932 185.861L511.583 193.864L475.917 232.434L501.932 185.861Z" stroke="#3D324C" stroke-miterlimit="10" stroke-linejoin="bevel"/>
<path d="M486 251.678H480.018V239.77L486 238.421V251.678Z" fill="#3D324C"/>
<path d="M482.245 239.77H462.201C456.35 239.77 451.608 235.027 451.608 229.176V127.238C451.608 121.387 456.351 116.644 462.201 116.644H482.245C488.096 116.644 492.839 121.387 492.839 127.238V229.177C492.838 235.027 488.095 239.77 482.245 239.77Z" fill="#5D4E75"/>
<path d="M472.223 103.177H459.45V109.362H472.223V103.177Z" fill="#3D324C"/>
<path d="M469.477 109.362H462.195V116.645H469.477V109.362Z" fill="#9EB7C7"/>
<path d="M477.917 116.644H473.339V239.77H477.917V116.644Z" fill="#3D324C"/>
<path d="M468.914 244.965C468.914 248.673 465.908 251.678 462.2 251.678C458.492 251.678 455.486 248.672 455.486 244.965C455.486 241.257 458.492 238.251 462.2 238.251C465.909 238.251 468.914 241.257 468.914 244.965Z" fill="#3D324C"/>
<path d="M465.671 244.965C465.671 246.881 464.117 248.435 462.201 248.435C460.285 248.435 458.731 246.881 458.731 244.965C458.731 243.048 460.285 241.495 462.201 241.495C464.117 241.495 465.671 243.048 465.671 244.965Z" fill="#9EB7C7"/>
<path d="M498.473 183.165H491.647V126.885H498.473C501.901 126.885 504.681 129.664 504.681 133.093V176.957C504.68 180.386 501.901 183.165 498.473 183.165Z" fill="#5D4E75"/>
<path d="M498.473 231.611H491.647V193.06H498.473C501.901 193.06 504.681 195.839 504.681 199.268V225.403C504.68 228.832 501.901 231.611 498.473 231.611Z" fill="#5D4E75"/>
<path d="M492.838 127.238L493.064 140.285L493.193 153.331L493.302 179.425L493.195 205.518L493.065 218.565L492.838 231.611L492.611 218.565L492.481 205.518L492.375 179.425L492.483 153.331L492.613 140.285L492.838 127.238Z" fill="#3D324C"/>
<path d="M459.45 117.018L459.675 132.246L459.805 147.475L459.913 177.932L459.806 208.388L459.677 223.617L459.45 238.845L459.223 223.617L459.093 208.388L458.986 177.932L459.094 147.475L459.224 132.246L459.45 117.018Z" fill="#3D324C"/>
<path d="M492.838 148.737C494.812 148.371 496.785 148.289 498.759 148.273C500.733 148.286 502.706 148.369 504.68 148.737C502.706 149.105 500.733 149.187 498.759 149.201C496.786 149.185 494.812 149.103 492.838 148.737Z" fill="#3D324C"/>
<path d="M492.838 220.541C494.812 220.175 496.785 220.093 498.759 220.077C500.733 220.09 502.706 220.173 504.68 220.541C502.706 220.909 500.733 220.991 498.759 221.005C496.786 220.989 494.812 220.907 492.838 220.541Z" fill="#3D324C"/>
<path d="M512.78 133.787C511.159 138.586 495.383 133.903 476.165 127.412C456.947 120.92 441.563 115.077 443.185 110.278C444.806 105.479 462.818 103.541 482.036 110.033C501.254 116.524 514.401 128.988 512.78 133.787Z" fill="#FF977E"/>
<path d="M498.251 125.191L459.949 112.252L465.138 96.89C466.749 92.119 471.923 89.559 476.694 91.17L497.72 98.273C502.491 99.885 505.052 105.058 503.44 109.829L498.251 125.191Z" fill="#FF977E"/>
<path d="M500.615 100.814C500.017 101.476 499.185 101.915 498.426 102.321L496.143 103.655C495.385 104.109 494.627 104.563 493.826 104.937C493.026 105.312 492.221 105.679 491.367 105.955L491.337 105.899C492.037 105.338 492.785 104.867 493.539 104.404C494.292 103.941 495.087 103.557 495.883 103.173L498.264 102.002C498.668 101.811 499.088 101.665 499.477 101.477C499.868 101.291 500.228 101.04 500.573 100.765L500.615 100.814Z" fill="#3D324C"/>
<path d="M502.545 103.998C501.307 104.833 500.035 105.62 498.733 106.356C498.085 106.73 497.447 107.127 496.755 107.415C496.057 107.688 495.359 107.963 494.604 108.102L494.578 108.044C495.182 107.573 495.835 107.218 496.479 106.843C497.129 106.483 497.824 106.215 498.499 105.904C499.844 105.272 501.182 104.618 502.512 103.942L502.545 103.998Z" fill="#3D324C"/>
<path d="M497.077 98.9089C498.159 100.371 499.153 101.902 500.053 103.489C500.508 104.279 500.977 105.068 501.323 105.914C501.654 106.766 501.975 107.623 502.146 108.534L502.087 108.558C501.58 107.785 501.179 106.976 500.747 106.181C500.33 105.38 499.994 104.541 499.603 103.726C498.811 102.101 497.95 100.506 497.023 98.9439L497.077 98.9089Z" fill="#3D324C"/>
<path d="M494.714 101.458C495.283 102.856 495.958 104.202 496.728 105.483C497.119 106.122 497.567 106.719 497.947 107.36C498.315 108.011 498.721 108.637 499.054 109.336L499.005 109.376C498.387 108.903 497.895 108.314 497.421 107.714C496.96 107.103 496.621 106.411 496.283 105.728C495.597 104.366 495.05 102.94 494.653 101.479L494.714 101.458Z" fill="#3D324C"/>
<path d="M478.906 120.73C479.839 121.68 480.758 122.64 481.664 123.613C482.122 124.095 482.607 124.554 483.007 125.085C483.395 125.627 483.791 126.161 484.085 126.784L484.037 126.825C483.467 126.439 483.001 125.964 482.525 125.497C482.062 125.02 481.684 124.469 481.279 123.942C480.459 122.896 479.652 121.839 478.858 120.771L478.906 120.73Z" fill="#3D324C"/>
<path d="M480.985 119.239C481.99 120.206 482.982 121.186 483.961 122.177C484.455 122.669 484.976 123.136 485.414 123.678C485.84 124.232 486.275 124.777 486.609 125.414L486.562 125.457C485.959 125.065 485.457 124.581 484.945 124.105C484.446 123.618 484.029 123.056 483.586 122.518C482.69 121.451 481.808 120.372 480.938 119.281L480.985 119.239Z" fill="#3D324C"/>
<path d="M478.767 124.056C479.622 123.085 480.487 122.128 481.362 121.186C481.796 120.71 482.203 120.21 482.689 119.789C483.188 119.378 483.678 118.96 484.269 118.632L484.315 118.675C483.988 119.252 483.561 119.737 483.143 120.231C482.712 120.714 482.202 121.118 481.718 121.546C480.759 122.413 479.789 123.265 478.809 124.101L478.767 124.056Z" fill="#3D324C"/>
<path d="M480.857 126.293C481.596 125.434 482.4 124.626 483.26 123.879C483.686 123.501 484.103 123.104 484.595 122.812C485.095 122.534 485.598 122.259 486.175 122.118L486.208 122.172C485.824 122.622 485.383 122.966 484.958 123.332C484.524 123.685 484.035 123.959 483.574 124.278C482.66 124.924 481.768 125.611 480.903 126.338L480.857 126.293Z" fill="#3D324C"/>
<path d="M456.677 109.695C455.689 110.367 454.648 110.968 453.566 111.489C453.028 111.755 452.492 112.04 451.911 112.204C451.326 112.351 450.739 112.493 450.115 112.485L450.097 112.424C450.616 112.084 451.162 111.859 451.697 111.606C452.237 111.369 452.81 111.221 453.367 111.022C454.475 110.612 455.569 110.152 456.645 109.64L456.677 109.695Z" fill="#3D324C"/>
<path d="M458.539 111.676C457.686 112.245 456.824 112.798 455.953 113.336C455.521 113.61 455.106 113.916 454.637 114.124C454.161 114.317 453.69 114.521 453.155 114.606L453.125 114.55C453.487 114.146 453.914 113.862 454.335 113.567C454.764 113.286 455.246 113.104 455.711 112.89C456.635 112.451 457.568 112.028 458.509 111.62L458.539 111.676Z" fill="#3D324C"/>
<path d="M452.242 109.253C453.344 110.451 454.389 111.703 455.372 113.005C455.868 113.652 456.384 114.29 456.793 114.998C457.188 115.714 457.579 116.432 457.839 117.223L457.784 117.255C457.213 116.651 456.748 115.989 456.26 115.342C455.786 114.687 455.394 113.978 454.957 113.296C454.074 111.94 453.152 110.605 452.193 109.292L452.242 109.253Z" fill="#3D324C"/>
<path d="M454.311 109.087C455.682 109.895 456.563 111.306 457.347 112.63C457.748 113.296 458.18 113.944 458.514 114.646C458.833 115.356 459.164 116.059 459.374 116.828L459.318 116.858C458.788 116.263 458.377 115.603 457.956 114.948C457.549 114.286 457.241 113.57 456.901 112.872C456.214 111.499 455.518 110.089 454.276 109.14L454.311 109.087Z" fill="#3D324C"/>
<path d="M472.75 93.272C471.926 94.184 471.134 95.118 470.373 96.071C469.997 96.552 469.661 97.0629 469.248 97.5119C468.822 97.9509 468.417 98.407 467.909 98.794L467.858 98.757C468.073 98.154 468.413 97.634 468.753 97.116C469.107 96.607 469.559 96.178 469.991 95.737C470.847 94.846 471.754 94.007 472.706 93.226L472.75 93.272Z" fill="#3D324C"/>
<path d="M475.214 92.9669C474.182 94.1069 473.201 95.2859 472.273 96.4999C471.813 97.1109 471.401 97.7549 470.914 98.3429C470.414 98.9219 469.94 99.5199 469.366 100.06L469.313 100.025C469.585 99.2829 469.991 98.6219 470.404 97.9659C470.831 97.3189 471.364 96.7509 471.881 96.1769C472.907 95.0209 474.006 93.9319 475.169 92.9219L475.214 92.9669Z" fill="#3D324C"/>
<path d="M469.934 93.2189C470.664 93.7589 471.401 94.2799 472.145 94.7839C472.521 95.0309 472.922 95.2399 473.263 95.5329C473.595 95.8399 473.939 96.1289 474.218 96.5279L474.183 96.5809C473.704 96.4859 473.301 96.2669 472.896 96.0499C472.499 95.8199 472.174 95.4899 471.835 95.1849C471.148 94.5839 470.499 93.9419 469.891 93.2659L469.934 93.2189Z" fill="#3D324C"/>
<path d="M468.919 94.8339C469.499 95.3579 470.105 95.8409 470.732 96.2829C471.05 96.4999 471.395 96.6719 471.683 96.9219C471.964 97.1869 472.26 97.4289 472.505 97.7799L472.473 97.8349C472.043 97.7969 471.681 97.6219 471.322 97.4429C470.97 97.2499 470.693 96.9519 470.41 96.6739C469.833 96.1269 469.316 95.5229 468.871 94.8749L468.919 94.8339Z" fill="#3D324C"/>
<path d="M499.39 122.1L460.903 109.15L461.893 105.953L500.379 118.904L499.39 122.1Z" fill="#3D324C"/>
<path d="M496.148 114.552C495.453 113.554 494.709 112.502 493.892 111.593C493.491 111.151 493.088 110.744 492.758 110.573C492.424 110.406 492.311 110.413 491.979 110.449C491.901 110.456 491.808 110.477 491.715 110.497L491.567 110.537C491.529 110.55 491.531 110.557 491.51 110.559C491.459 110.583 491.451 110.601 491.394 110.649C491.294 110.754 491.115 111.121 491.081 111.572C490.963 112.492 491.207 113.579 491.49 114.633C491.778 115.691 492.274 116.785 493.119 117.581C493.936 118.374 495.168 118.814 496.166 118.55C496.656 118.429 497.025 118.185 497.277 117.913C497.437 117.743 497.599 117.543 497.576 117.554C497.565 117.554 497.521 117.685 497.539 117.796C497.561 117.902 497.6 117.902 497.595 117.834C497.539 117.522 497.236 116.806 497.018 116.22C496.778 115.609 496.51 115.044 496.148 114.552ZM496.357 114.407C496.691 114.909 497.178 115.296 497.736 115.598L498.592 116.058C498.875 116.237 499.174 116.402 499.46 116.797C499.602 116.992 499.757 117.281 499.795 117.692C499.836 118.108 499.68 118.538 499.505 118.791C499.145 119.31 498.811 119.484 498.478 119.661C497.724 120.076 496.863 120.141 496.144 119.996C495.416 119.853 494.797 119.561 494.224 119.248C493.652 118.932 493.117 118.588 492.601 118.209C491.588 117.446 490.565 116.579 489.802 115.451C489.048 114.322 488.595 113.012 488.528 111.498C488.534 110.749 488.594 109.861 489.232 108.988C489.545 108.557 490.038 108.195 490.555 108.004C490.678 107.962 490.824 107.92 490.933 107.896L491.23 107.842C491.436 107.814 491.644 107.788 491.869 107.788C492.312 107.789 492.806 107.864 493.267 108.062C493.729 108.261 494.118 108.582 494.386 108.918C494.918 109.609 495.101 110.288 495.241 110.926C495.486 112.193 495.654 113.411 496.357 114.407Z" fill="#3D324C"/>
<path d="M507.945 122.355C509.157 121.96 510.001 120.855 510.296 119.718C510.595 118.589 510.702 117.471 510.572 116.619C510.549 116.415 510.467 116.209 510.427 116.125C510.377 116.026 510.343 116.006 510.316 115.969C510.275 115.901 509.971 115.789 509.536 115.879C508.656 116.043 507.67 116.703 506.714 117.421L506.364 117.714C506.227 117.829 506.073 117.97 505.91 118.074C505.594 118.304 505.242 118.467 504.898 118.601C504.194 118.851 503.499 118.903 502.824 118.975C502.487 119.004 502.149 119.051 501.829 119.103C501.535 119.149 501.155 119.249 501.16 119.341C501.183 119.358 501.246 119.358 501.357 119.283C501.461 119.206 501.532 119.074 501.553 119.014C501.597 118.895 501.622 118.955 501.674 119.023C501.775 119.185 501.886 119.36 502.028 119.54C502.614 120.251 503.438 121.028 504.424 121.699C505.4 122.385 506.735 122.757 507.945 122.355ZM508.023 122.597C506.772 122.945 505.42 123.187 503.975 123.027C502.546 122.873 501.083 122.221 500.166 120.835C499.938 120.49 499.76 120.088 499.651 119.643C499.614 119.405 499.565 119.144 499.652 118.706C499.702 118.492 499.825 118.197 500.051 118.012C500.27 117.817 500.486 117.752 500.659 117.715C501.29 117.642 501.562 117.813 501.906 117.888C502.227 117.981 502.529 118.074 502.834 118.108C503.436 118.195 504.053 118.099 504.513 117.79C504.748 117.648 504.927 117.436 505.067 117.215C505.141 117.102 505.181 116.985 505.25 116.855L505.505 116.4C506.203 115.182 507.241 114.082 508.834 113.481C509.611 113.21 510.712 113.046 511.778 113.676C512.291 113.988 512.685 114.477 512.9 114.963C513.02 115.208 513.083 115.452 513.128 115.668C513.185 115.894 513.212 116.111 513.228 116.326C513.348 118.04 512.635 119.505 511.58 120.537C510.52 121.583 509.25 122.181 508.023 122.597Z" fill="#3D324C"/>
<path d="M499.304 117.948C499.304 117.948 519.122 141.422 511.308 149.674C508.753 147.542 499.304 117.948 499.304 117.948Z" fill="#3D324C"/>
<path d="M499.716 117.805C499.716 117.805 479.898 141.279 487.712 149.531C490.268 147.399 499.716 117.805 499.716 117.805Z" fill="#3D324C"/>
</svg>
